<?xml version="1.0" encoding="utf-8"?>
<svg xmlns="http://www.w3.org/2000/svg" xmlns:xlink="http://www.w3.org/1999/xlink" width="1800" height="1200" viewBox="0 0 7200 4800">
<defs>
  <clipPath id="clip370">
    <rect x="0" y="0" width="7200" height="4800"/>
  </clipPath>
</defs>
<path clip-path="url(#clip370)" d="M0 4800 L7200 4800 L7200 0 L0 0  Z" fill="#ffffff" fill-rule="evenodd" fill-opacity="1"/>
<defs>
  <clipPath id="clip371">
    <rect x="1440" y="0" width="5041" height="4800"/>
  </clipPath>
</defs>
<path clip-path="url(#clip370)" d="M661.489 4245.43 L6932.28 4245.43 L6932.28 413.065 L661.489 413.065  Z" fill="#ffffff" fill-rule="evenodd" fill-opacity="1"/>
<defs>
  <clipPath id="clip372">
    <rect x="661" y="413" width="6272" height="3833"/>
  </clipPath>
</defs>
<polyline clip-path="url(#clip372)" style="stroke:#000000; stroke-linecap:round; stroke-linejoin:round; stroke-width:4; stroke-opacity:0.1; fill:none" points="838.964,4245.43 838.964,413.065 "/>
<polyline clip-path="url(#clip372)" style="stroke:#000000; stroke-linecap:round; stroke-linejoin:round; stroke-width:4; stroke-opacity:0.1; fill:none" points="2022.13,4245.43 2022.13,413.065 "/>
<polyline clip-path="url(#clip372)" style="stroke:#000000; stroke-linecap:round; stroke-linejoin:round; stroke-width:4; stroke-opacity:0.1; fill:none" points="3205.3,4245.43 3205.3,413.065 "/>
<polyline clip-path="url(#clip372)" style="stroke:#000000; stroke-linecap:round; stroke-linejoin:round; stroke-width:4; stroke-opacity:0.1; fill:none" points="4388.47,4245.43 4388.47,413.065 "/>
<polyline clip-path="url(#clip372)" style="stroke:#000000; stroke-linecap:round; stroke-linejoin:round; stroke-width:4; stroke-opacity:0.1; fill:none" points="5571.64,4245.43 5571.64,413.065 "/>
<polyline clip-path="url(#clip372)" style="stroke:#000000; stroke-linecap:round; stroke-linejoin:round; stroke-width:4; stroke-opacity:0.1; fill:none" points="6754.81,4245.43 6754.81,413.065 "/>
<polyline clip-path="url(#clip372)" style="stroke:#000000; stroke-linecap:round; stroke-linejoin:round; stroke-width:2; stroke-opacity:0.05; fill:none" points="1075.6,4245.43 1075.6,413.065 "/>
<polyline clip-path="url(#clip372)" style="stroke:#000000; stroke-linecap:round; stroke-linejoin:round; stroke-width:2; stroke-opacity:0.05; fill:none" points="1312.23,4245.43 1312.23,413.065 "/>
<polyline clip-path="url(#clip372)" style="stroke:#000000; stroke-linecap:round; stroke-linejoin:round; stroke-width:2; stroke-opacity:0.05; fill:none" points="1548.87,4245.43 1548.87,413.065 "/>
<polyline clip-path="url(#clip372)" style="stroke:#000000; stroke-linecap:round; stroke-linejoin:round; stroke-width:2; stroke-opacity:0.05; fill:none" points="1785.5,4245.43 1785.5,413.065 "/>
<polyline clip-path="url(#clip372)" style="stroke:#000000; stroke-linecap:round; stroke-linejoin:round; stroke-width:2; stroke-opacity:0.05; fill:none" points="2258.77,4245.43 2258.77,413.065 "/>
<polyline clip-path="url(#clip372)" style="stroke:#000000; stroke-linecap:round; stroke-linejoin:round; stroke-width:2; stroke-opacity:0.05; fill:none" points="2495.4,4245.43 2495.4,413.065 "/>
<polyline clip-path="url(#clip372)" style="stroke:#000000; stroke-linecap:round; stroke-linejoin:round; stroke-width:2; stroke-opacity:0.05; fill:none" points="2732.03,4245.43 2732.03,413.065 "/>
<polyline clip-path="url(#clip372)" style="stroke:#000000; stroke-linecap:round; stroke-linejoin:round; stroke-width:2; stroke-opacity:0.05; fill:none" points="2968.67,4245.43 2968.67,413.065 "/>
<polyline clip-path="url(#clip372)" style="stroke:#000000; stroke-linecap:round; stroke-linejoin:round; stroke-width:2; stroke-opacity:0.05; fill:none" points="3441.94,4245.43 3441.94,413.065 "/>
<polyline clip-path="url(#clip372)" style="stroke:#000000; stroke-linecap:round; stroke-linejoin:round; stroke-width:2; stroke-opacity:0.05; fill:none" points="3678.57,4245.43 3678.57,413.065 "/>
<polyline clip-path="url(#clip372)" style="stroke:#000000; stroke-linecap:round; stroke-linejoin:round; stroke-width:2; stroke-opacity:0.05; fill:none" points="3915.2,4245.43 3915.2,413.065 "/>
<polyline clip-path="url(#clip372)" style="stroke:#000000; stroke-linecap:round; stroke-linejoin:round; stroke-width:2; stroke-opacity:0.05; fill:none" points="4151.84,4245.43 4151.84,413.065 "/>
<polyline clip-path="url(#clip372)" style="stroke:#000000; stroke-linecap:round; stroke-linejoin:round; stroke-width:2; stroke-opacity:0.05; fill:none" points="4625.1,4245.43 4625.1,413.065 "/>
<polyline clip-path="url(#clip372)" style="stroke:#000000; stroke-linecap:round; stroke-linejoin:round; stroke-width:2; stroke-opacity:0.05; fill:none" points="4861.74,4245.43 4861.74,413.065 "/>
<polyline clip-path="url(#clip372)" style="stroke:#000000; stroke-linecap:round; stroke-linejoin:round; stroke-width:2; stroke-opacity:0.05; fill:none" points="5098.37,4245.43 5098.37,413.065 "/>
<polyline clip-path="url(#clip372)" style="stroke:#000000; stroke-linecap:round; stroke-linejoin:round; stroke-width:2; stroke-opacity:0.05; fill:none" points="5335.01,4245.43 5335.01,413.065 "/>
<polyline clip-path="url(#clip372)" style="stroke:#000000; stroke-linecap:round; stroke-linejoin:round; stroke-width:2; stroke-opacity:0.05; fill:none" points="5808.27,4245.43 5808.27,413.065 "/>
<polyline clip-path="url(#clip372)" style="stroke:#000000; stroke-linecap:round; stroke-linejoin:round; stroke-width:2; stroke-opacity:0.05; fill:none" points="6044.91,4245.43 6044.91,413.065 "/>
<polyline clip-path="url(#clip372)" style="stroke:#000000; stroke-linecap:round; stroke-linejoin:round; stroke-width:2; stroke-opacity:0.05; fill:none" points="6281.54,4245.43 6281.54,413.065 "/>
<polyline clip-path="url(#clip372)" style="stroke:#000000; stroke-linecap:round; stroke-linejoin:round; stroke-width:2; stroke-opacity:0.05; fill:none" points="6518.17,4245.43 6518.17,413.065 "/>
<polyline clip-path="url(#clip370)" style="stroke:#000000; stroke-linecap:round; stroke-linejoin:round; stroke-width:4; stroke-opacity:1; fill:none" points="661.489,4245.43 6932.28,4245.43 "/>
<polyline clip-path="url(#clip370)" style="stroke:#000000; stroke-linecap:round; stroke-linejoin:round; stroke-width:4; stroke-opacity:1; fill:none" points="838.964,4245.43 838.964,4226.53 "/>
<polyline clip-path="url(#clip370)" style="stroke:#000000; stroke-linecap:round; stroke-linejoin:round; stroke-width:4; stroke-opacity:1; fill:none" points="2022.13,4245.43 2022.13,4226.53 "/>
<polyline clip-path="url(#clip370)" style="stroke:#000000; stroke-linecap:round; stroke-linejoin:round; stroke-width:4; stroke-opacity:1; fill:none" points="3205.3,4245.43 3205.3,4226.53 "/>
<polyline clip-path="url(#clip370)" style="stroke:#000000; stroke-linecap:round; stroke-linejoin:round; stroke-width:4; stroke-opacity:1; fill:none" points="4388.47,4245.43 4388.47,4226.53 "/>
<polyline clip-path="url(#clip370)" style="stroke:#000000; stroke-linecap:round; stroke-linejoin:round; stroke-width:4; stroke-opacity:1; fill:none" points="5571.64,4245.43 5571.64,4226.53 "/>
<polyline clip-path="url(#clip370)" style="stroke:#000000; stroke-linecap:round; stroke-linejoin:round; stroke-width:4; stroke-opacity:1; fill:none" points="6754.81,4245.43 6754.81,4226.53 "/>
<polyline clip-path="url(#clip370)" style="stroke:#000000; stroke-linecap:round; stroke-linejoin:round; stroke-width:4; stroke-opacity:1; fill:none" points="1075.6,4245.43 1075.6,4235.98 "/>
<polyline clip-path="url(#clip370)" style="stroke:#000000; stroke-linecap:round; stroke-linejoin:round; stroke-width:4; stroke-opacity:1; fill:none" points="1312.23,4245.43 1312.23,4235.98 "/>
<polyline clip-path="url(#clip370)" style="stroke:#000000; stroke-linecap:round; stroke-linejoin:round; stroke-width:4; stroke-opacity:1; fill:none" points="1548.87,4245.43 1548.87,4235.98 "/>
<polyline clip-path="url(#clip370)" style="stroke:#000000; stroke-linecap:round; stroke-linejoin:round; stroke-width:4; stroke-opacity:1; fill:none" points="1785.5,4245.43 1785.5,4235.98 "/>
<polyline clip-path="url(#clip370)" style="stroke:#000000; stroke-linecap:round; stroke-linejoin:round; stroke-width:4; stroke-opacity:1; fill:none" points="2258.77,4245.43 2258.77,4235.98 "/>
<polyline clip-path="url(#clip370)" style="stroke:#000000; stroke-linecap:round; stroke-linejoin:round; stroke-width:4; stroke-opacity:1; fill:none" points="2495.4,4245.43 2495.4,4235.98 "/>
<polyline clip-path="url(#clip370)" style="stroke:#000000; stroke-linecap:round; stroke-linejoin:round; stroke-width:4; stroke-opacity:1; fill:none" points="2732.03,4245.43 2732.03,4235.98 "/>
<polyline clip-path="url(#clip370)" style="stroke:#000000; stroke-linecap:round; stroke-linejoin:round; stroke-width:4; stroke-opacity:1; fill:none" points="2968.67,4245.43 2968.67,4235.98 "/>
<polyline clip-path="url(#clip370)" style="stroke:#000000; stroke-linecap:round; stroke-linejoin:round; stroke-width:4; stroke-opacity:1; fill:none" points="3441.94,4245.43 3441.94,4235.98 "/>
<polyline clip-path="url(#clip370)" style="stroke:#000000; stroke-linecap:round; stroke-linejoin:round; stroke-width:4; stroke-opacity:1; fill:none" points="3678.57,4245.43 3678.57,4235.98 "/>
<polyline clip-path="url(#clip370)" style="stroke:#000000; stroke-linecap:round; stroke-linejoin:round; stroke-width:4; stroke-opacity:1; fill:none" points="3915.2,4245.43 3915.2,4235.98 "/>
<polyline clip-path="url(#clip370)" style="stroke:#000000; stroke-linecap:round; stroke-linejoin:round; stroke-width:4; stroke-opacity:1; fill:none" points="4151.84,4245.43 4151.84,4235.98 "/>
<polyline clip-path="url(#clip370)" style="stroke:#000000; stroke-linecap:round; stroke-linejoin:round; stroke-width:4; stroke-opacity:1; fill:none" points="4625.1,4245.43 4625.1,4235.98 "/>
<polyline clip-path="url(#clip370)" style="stroke:#000000; stroke-linecap:round; stroke-linejoin:round; stroke-width:4; stroke-opacity:1; fill:none" points="4861.74,4245.43 4861.74,4235.98 "/>
<polyline clip-path="url(#clip370)" style="stroke:#000000; stroke-linecap:round; stroke-linejoin:round; stroke-width:4; stroke-opacity:1; fill:none" points="5098.37,4245.43 5098.37,4235.98 "/>
<polyline clip-path="url(#clip370)" style="stroke:#000000; stroke-linecap:round; stroke-linejoin:round; stroke-width:4; stroke-opacity:1; fill:none" points="5335.01,4245.43 5335.01,4235.98 "/>
<polyline clip-path="url(#clip370)" style="stroke:#000000; stroke-linecap:round; stroke-linejoin:round; stroke-width:4; stroke-opacity:1; fill:none" points="5808.27,4245.43 5808.27,4235.98 "/>
<polyline clip-path="url(#clip370)" style="stroke:#000000; stroke-linecap:round; stroke-linejoin:round; stroke-width:4; stroke-opacity:1; fill:none" points="6044.91,4245.43 6044.91,4235.98 "/>
<polyline clip-path="url(#clip370)" style="stroke:#000000; stroke-linecap:round; stroke-linejoin:round; stroke-width:4; stroke-opacity:1; fill:none" points="6281.54,4245.43 6281.54,4235.98 "/>
<polyline clip-path="url(#clip370)" style="stroke:#000000; stroke-linecap:round; stroke-linejoin:round; stroke-width:4; stroke-opacity:1; fill:none" points="6518.17,4245.43 6518.17,4235.98 "/>
<path clip-path="url(#clip370)" d="M838.964 4338.18 Q828.131 4338.18 822.645 4348.88 Q817.228 4359.5 817.228 4380.89 Q817.228 4402.21 822.645 4412.91 Q828.131 4423.53 838.964 4423.53 Q849.867 4423.53 855.283 4412.91 Q860.77 4402.21 860.77 4380.89 Q860.77 4359.5 855.283 4348.88 Q849.867 4338.18 838.964 4338.18 M838.964 4327.07 Q856.395 4327.07 865.561 4340.89 Q874.797 4354.64 874.797 4380.89 Q874.797 4407.07 865.561 4420.89 Q856.395 4434.64 838.964 4434.64 Q821.534 4434.64 812.298 4420.89 Q803.131 4407.07 803.131 4380.89 Q803.131 4354.64 812.298 4340.89 Q821.534 4327.07 838.964 4327.07 Z" fill="#000000" fill-rule="nonzero" fill-opacity="1" /><path clip-path="url(#clip370)" d="M1900.95 4420.82 L1923.87 4420.82 L1923.87 4341.73 L1898.94 4346.73 L1898.94 4333.95 L1923.73 4328.95 L1937.76 4328.95 L1937.76 4420.82 L1960.67 4420.82 L1960.67 4432.63 L1900.95 4432.63 L1900.95 4420.82 Z" fill="#000000" fill-rule="nonzero" fill-opacity="1" /><path clip-path="url(#clip370)" d="M2019.01 4338.18 Q2008.17 4338.18 2002.69 4348.88 Q1997.27 4359.5 1997.27 4380.89 Q1997.27 4402.21 2002.69 4412.91 Q2008.17 4423.53 2019.01 4423.53 Q2029.91 4423.53 2035.33 4412.91 Q2040.81 4402.21 2040.81 4380.89 Q2040.81 4359.5 2035.33 4348.88 Q2029.91 4338.18 2019.01 4338.18 M2019.01 4327.07 Q2036.44 4327.07 2045.61 4340.89 Q2054.84 4354.64 2054.84 4380.89 Q2054.84 4407.07 2045.61 4420.89 Q2036.44 4434.64 2019.01 4434.64 Q2001.58 4434.64 1992.34 4420.89 Q1983.17 4407.07 1983.17 4380.89 Q1983.17 4354.64 1992.34 4340.89 Q2001.58 4327.07 2019.01 4327.07 Z" fill="#000000" fill-rule="nonzero" fill-opacity="1" /><path clip-path="url(#clip370)" d="M2109.49 4338.18 Q2098.66 4338.18 2093.17 4348.88 Q2087.76 4359.5 2087.76 4380.89 Q2087.76 4402.21 2093.17 4412.91 Q2098.66 4423.53 2109.49 4423.53 Q2120.4 4423.53 2125.81 4412.91 Q2131.3 4402.21 2131.3 4380.89 Q2131.3 4359.5 2125.81 4348.88 Q2120.4 4338.18 2109.49 4338.18 M2109.49 4327.07 Q2126.92 4327.07 2136.09 4340.89 Q2145.33 4354.64 2145.33 4380.89 Q2145.33 4407.07 2136.09 4420.89 Q2126.92 4434.64 2109.49 4434.64 Q2092.06 4434.64 2082.83 4420.89 Q2073.66 4407.07 2073.66 4380.89 Q2073.66 4354.64 2082.83 4340.89 Q2092.06 4327.07 2109.49 4327.07 Z" fill="#000000" fill-rule="nonzero" fill-opacity="1" /><path clip-path="url(#clip370)" d="M3096.38 4420.82 L3145.34 4420.82 L3145.34 4432.63 L3079.5 4432.63 L3079.5 4420.82 Q3087.49 4412.56 3101.24 4398.67 Q3115.06 4384.71 3118.6 4380.68 Q3125.34 4373.11 3127.98 4367.91 Q3130.68 4362.63 3130.68 4357.56 Q3130.68 4349.29 3124.85 4344.09 Q3119.09 4338.88 3109.78 4338.88 Q3103.18 4338.88 3095.82 4341.17 Q3088.53 4343.46 3080.2 4348.11 L3080.2 4333.95 Q3088.67 4330.54 3096.03 4328.81 Q3103.39 4327.07 3109.5 4327.07 Q3125.61 4327.07 3135.2 4335.13 Q3144.78 4343.18 3144.78 4356.66 Q3144.78 4363.04 3142.35 4368.81 Q3139.99 4374.5 3133.67 4382.28 Q3131.93 4384.29 3122.63 4393.95 Q3113.32 4403.53 3096.38 4420.82 Z" fill="#000000" fill-rule="nonzero" fill-opacity="1" /><path clip-path="url(#clip370)" d="M3204.78 4338.18 Q3193.95 4338.18 3188.46 4348.88 Q3183.04 4359.5 3183.04 4380.89 Q3183.04 4402.21 3188.46 4412.91 Q3193.95 4423.53 3204.78 4423.53 Q3215.68 4423.53 3221.1 4412.91 Q3226.59 4402.21 3226.59 4380.89 Q3226.59 4359.5 3221.1 4348.88 Q3215.68 4338.18 3204.78 4338.18 M3204.78 4327.07 Q3222.21 4327.07 3231.38 4340.89 Q3240.61 4354.64 3240.61 4380.89 Q3240.61 4407.07 3231.38 4420.89 Q3222.21 4434.64 3204.78 4434.64 Q3187.35 4434.64 3178.11 4420.89 Q3168.95 4407.07 3168.95 4380.89 Q3168.95 4354.64 3178.11 4340.89 Q3187.35 4327.07 3204.78 4327.07 Z" fill="#000000" fill-rule="nonzero" fill-opacity="1" /><path clip-path="url(#clip370)" d="M3295.27 4338.18 Q3284.43 4338.18 3278.95 4348.88 Q3273.53 4359.5 3273.53 4380.89 Q3273.53 4402.21 3278.95 4412.91 Q3284.43 4423.53 3295.27 4423.53 Q3306.17 4423.53 3311.59 4412.91 Q3317.07 4402.21 3317.07 4380.89 Q3317.07 4359.5 3311.59 4348.88 Q3306.17 4338.18 3295.27 4338.18 M3295.27 4327.07 Q3312.7 4327.07 3321.86 4340.89 Q3331.1 4354.64 3331.1 4380.89 Q3331.1 4407.07 3321.86 4420.89 Q3312.7 4434.64 3295.27 4434.64 Q3277.84 4434.64 3268.6 4420.89 Q3259.43 4407.07 3259.43 4380.89 Q3259.43 4354.64 3268.6 4340.89 Q3277.84 4327.07 3295.27 4327.07 Z" fill="#000000" fill-rule="nonzero" fill-opacity="1" /><path clip-path="url(#clip370)" d="M4309.76 4376.72 Q4319.83 4378.88 4325.45 4385.68 Q4331.14 4392.49 4331.14 4402.49 Q4331.14 4417.84 4320.59 4426.24 Q4310.03 4434.64 4290.59 4434.64 Q4284.06 4434.64 4277.12 4433.32 Q4270.24 4432.07 4262.88 4429.5 L4262.88 4415.96 Q4268.71 4419.36 4275.66 4421.1 Q4282.6 4422.84 4290.17 4422.84 Q4303.37 4422.84 4310.24 4417.63 Q4317.19 4412.42 4317.19 4402.49 Q4317.19 4393.32 4310.73 4388.18 Q4304.34 4382.97 4292.88 4382.97 L4280.8 4382.97 L4280.8 4371.45 L4293.44 4371.45 Q4303.78 4371.45 4309.27 4367.35 Q4314.76 4363.18 4314.76 4355.41 Q4314.76 4347.42 4309.06 4343.18 Q4303.44 4338.88 4292.88 4338.88 Q4287.12 4338.88 4280.52 4340.13 Q4273.92 4341.38 4266.01 4344.02 L4266.01 4331.52 Q4273.99 4329.29 4280.94 4328.18 Q4287.95 4327.07 4294.13 4327.07 Q4310.1 4327.07 4319.41 4334.36 Q4328.71 4341.59 4328.71 4353.95 Q4328.71 4362.56 4323.78 4368.53 Q4318.85 4374.43 4309.76 4376.72 Z" fill="#000000" fill-rule="nonzero" fill-opacity="1" /><path clip-path="url(#clip370)" d="M4387.74 4338.18 Q4376.91 4338.18 4371.42 4348.88 Q4366.01 4359.5 4366.01 4380.89 Q4366.01 4402.21 4371.42 4412.91 Q4376.91 4423.53 4387.74 4423.53 Q4398.64 4423.53 4404.06 4412.91 Q4409.55 4402.21 4409.55 4380.89 Q4409.55 4359.5 4404.06 4348.88 Q4398.64 4338.18 4387.74 4338.18 M4387.74 4327.07 Q4405.17 4327.07 4414.34 4340.89 Q4423.57 4354.64 4423.57 4380.89 Q4423.57 4407.07 4414.34 4420.89 Q4405.17 4434.64 4387.74 4434.64 Q4370.31 4434.64 4361.07 4420.89 Q4351.91 4407.07 4351.91 4380.89 Q4351.91 4354.64 4361.07 4340.89 Q4370.31 4327.07 4387.74 4327.07 Z" fill="#000000" fill-rule="nonzero" fill-opacity="1" /><path clip-path="url(#clip370)" d="M4478.23 4338.18 Q4467.39 4338.18 4461.91 4348.88 Q4456.49 4359.5 4456.49 4380.89 Q4456.49 4402.21 4461.91 4412.91 Q4467.39 4423.53 4478.23 4423.53 Q4489.13 4423.53 4494.55 4412.91 Q4500.03 4402.21 4500.03 4380.89 Q4500.03 4359.5 4494.55 4348.88 Q4489.13 4338.18 4478.23 4338.18 M4478.23 4327.07 Q4495.66 4327.07 4504.82 4340.89 Q4514.06 4354.64 4514.06 4380.89 Q4514.06 4407.07 4504.82 4420.89 Q4495.66 4434.64 4478.23 4434.64 Q4460.8 4434.64 4451.56 4420.89 Q4442.39 4407.07 4442.39 4380.89 Q4442.39 4354.64 4451.56 4340.89 Q4460.8 4327.07 4478.23 4327.07 Z" fill="#000000" fill-rule="nonzero" fill-opacity="1" /><path clip-path="url(#clip370)" d="M5490.91 4341.17 L5455.49 4396.52 L5490.91 4396.52 L5490.91 4341.17 M5487.23 4328.95 L5504.87 4328.95 L5504.87 4396.52 L5519.66 4396.52 L5519.66 4408.18 L5504.87 4408.18 L5504.87 4432.63 L5490.91 4432.63 L5490.91 4408.18 L5444.11 4408.18 L5444.11 4394.64 L5487.23 4328.95 Z" fill="#000000" fill-rule="nonzero" fill-opacity="1" /><path clip-path="url(#clip370)" d="M5572.85 4338.18 Q5562.02 4338.18 5556.54 4348.88 Q5551.12 4359.5 5551.12 4380.89 Q5551.12 4402.21 5556.54 4412.91 Q5562.02 4423.53 5572.85 4423.53 Q5583.76 4423.53 5589.17 4412.91 Q5594.66 4402.21 5594.66 4380.89 Q5594.66 4359.5 5589.17 4348.88 Q5583.76 4338.18 5572.85 4338.18 M5572.85 4327.07 Q5590.29 4327.07 5599.45 4340.89 Q5608.69 4354.64 5608.69 4380.89 Q5608.69 4407.07 5599.45 4420.89 Q5590.29 4434.64 5572.85 4434.64 Q5555.42 4434.64 5546.19 4420.89 Q5537.02 4407.07 5537.02 4380.89 Q5537.02 4354.64 5546.19 4340.89 Q5555.42 4327.07 5572.85 4327.07 Z" fill="#000000" fill-rule="nonzero" fill-opacity="1" /><path clip-path="url(#clip370)" d="M5663.34 4338.18 Q5652.51 4338.18 5647.02 4348.88 Q5641.6 4359.5 5641.6 4380.89 Q5641.6 4402.21 5647.02 4412.91 Q5652.51 4423.53 5663.34 4423.53 Q5674.24 4423.53 5679.66 4412.91 Q5685.15 4402.21 5685.15 4380.89 Q5685.15 4359.5 5679.66 4348.88 Q5674.24 4338.18 5663.34 4338.18 M5663.34 4327.07 Q5680.77 4327.07 5689.94 4340.89 Q5699.17 4354.64 5699.17 4380.89 Q5699.17 4407.07 5689.94 4420.89 Q5680.77 4434.64 5663.34 4434.64 Q5645.91 4434.64 5636.67 4420.89 Q5627.51 4407.07 5627.51 4380.89 Q5627.51 4354.64 5636.67 4340.89 Q5645.91 4327.07 5663.34 4327.07 Z" fill="#000000" fill-rule="nonzero" fill-opacity="1" /><path clip-path="url(#clip370)" d="M6633.66 4328.95 L6688.73 4328.95 L6688.73 4340.75 L6646.51 4340.75 L6646.51 4366.17 Q6649.57 4365.13 6652.62 4364.64 Q6655.68 4364.09 6658.73 4364.09 Q6676.09 4364.09 6686.23 4373.6 Q6696.37 4383.11 6696.37 4399.36 Q6696.37 4416.1 6685.95 4425.41 Q6675.54 4434.64 6656.58 4434.64 Q6650.05 4434.64 6643.25 4433.53 Q6636.51 4432.42 6629.29 4430.2 L6629.29 4416.1 Q6635.54 4419.5 6642.2 4421.17 Q6648.87 4422.84 6656.3 4422.84 Q6668.32 4422.84 6675.33 4416.52 Q6682.34 4410.2 6682.34 4399.36 Q6682.34 4388.53 6675.33 4382.21 Q6668.32 4375.89 6656.3 4375.89 Q6650.68 4375.89 6645.05 4377.14 Q6639.5 4378.39 6633.66 4381.03 L6633.66 4328.95 Z" fill="#000000" fill-rule="nonzero" fill-opacity="1" /><path clip-path="url(#clip370)" d="M6754.01 4338.18 Q6743.18 4338.18 6737.69 4348.88 Q6732.27 4359.5 6732.27 4380.89 Q6732.27 4402.21 6737.69 4412.91 Q6743.18 4423.53 6754.01 4423.53 Q6764.91 4423.53 6770.33 4412.91 Q6775.81 4402.21 6775.81 4380.89 Q6775.81 4359.5 6770.33 4348.88 Q6764.91 4338.18 6754.01 4338.18 M6754.01 4327.07 Q6771.44 4327.07 6780.61 4340.89 Q6789.84 4354.64 6789.84 4380.89 Q6789.84 4407.07 6780.61 4420.89 Q6771.44 4434.64 6754.01 4434.64 Q6736.58 4434.64 6727.34 4420.89 Q6718.18 4407.07 6718.18 4380.89 Q6718.18 4354.64 6727.34 4340.89 Q6736.58 4327.07 6754.01 4327.07 Z" fill="#000000" fill-rule="nonzero" fill-opacity="1" /><path clip-path="url(#clip370)" d="M6844.5 4338.18 Q6833.66 4338.18 6828.18 4348.88 Q6822.76 4359.5 6822.76 4380.89 Q6822.76 4402.21 6828.18 4412.91 Q6833.66 4423.53 6844.5 4423.53 Q6855.4 4423.53 6860.81 4412.91 Q6866.3 4402.21 6866.3 4380.89 Q6866.3 4359.5 6860.81 4348.88 Q6855.4 4338.18 6844.5 4338.18 M6844.5 4327.07 Q6861.93 4327.07 6871.09 4340.89 Q6880.33 4354.64 6880.33 4380.89 Q6880.33 4407.07 6871.09 4420.89 Q6861.93 4434.64 6844.5 4434.64 Q6827.06 4434.64 6817.83 4420.89 Q6808.66 4407.07 6808.66 4380.89 Q6808.66 4354.64 6817.83 4340.89 Q6827.06 4327.07 6844.5 4327.07 Z" fill="#000000" fill-rule="nonzero" fill-opacity="1" /><path clip-path="url(#clip370)" d="M3251.3 4533.5 L3251.3 4555.59 L3277.62 4555.59 L3277.62 4565.52 L3251.3 4565.52 L3251.3 4607.74 Q3251.3 4617.25 3253.87 4619.96 Q3256.51 4622.67 3264.49 4622.67 L3277.62 4622.67 L3277.62 4633.36 L3264.49 4633.36 Q3249.7 4633.36 3244.08 4627.88 Q3238.45 4622.32 3238.45 4607.74 L3238.45 4565.52 L3229.08 4565.52 L3229.08 4555.59 L3238.45 4555.59 L3238.45 4533.5 L3251.3 4533.5 Z" fill="#000000" fill-rule="nonzero" fill-opacity="1" /><path clip-path="url(#clip370)" d="M3294.42 4555.59 L3307.2 4555.59 L3307.2 4633.36 L3294.42 4633.36 L3294.42 4555.59 M3294.42 4525.31 L3307.2 4525.31 L3307.2 4541.49 L3294.42 4541.49 L3294.42 4525.31 Z" fill="#000000" fill-rule="nonzero" fill-opacity="1" /><path clip-path="url(#clip370)" d="M3394.49 4570.52 Q3399.28 4561.91 3405.95 4557.81 Q3412.62 4553.71 3421.65 4553.71 Q3433.8 4553.71 3440.39 4562.25 Q3446.99 4570.72 3446.99 4586.42 L3446.99 4633.36 L3434.15 4633.36 L3434.15 4586.84 Q3434.15 4575.66 3430.19 4570.24 Q3426.23 4564.82 3418.1 4564.82 Q3408.17 4564.82 3402.41 4571.42 Q3396.65 4578.02 3396.65 4589.41 L3396.65 4633.36 L3383.8 4633.36 L3383.8 4586.84 Q3383.8 4575.59 3379.84 4570.24 Q3375.88 4564.82 3367.62 4564.82 Q3357.83 4564.82 3352.06 4571.49 Q3346.3 4578.09 3346.3 4589.41 L3346.3 4633.36 L3333.45 4633.36 L3333.45 4555.59 L3346.3 4555.59 L3346.3 4567.67 Q3350.67 4560.52 3356.78 4557.11 Q3362.9 4553.71 3371.3 4553.71 Q3379.77 4553.71 3385.67 4558.02 Q3391.65 4562.32 3394.49 4570.52 Z" fill="#000000" fill-rule="nonzero" fill-opacity="1" /><path clip-path="url(#clip370)" d="M3539.01 4591.28 L3539.01 4597.53 L3480.26 4597.53 Q3481.09 4610.72 3488.17 4617.67 Q3495.33 4624.54 3508.03 4624.54 Q3515.39 4624.54 3522.27 4622.74 Q3529.21 4620.93 3536.02 4617.32 L3536.02 4629.41 Q3529.14 4632.32 3521.92 4633.85 Q3514.7 4635.38 3507.27 4635.38 Q3488.66 4635.38 3477.76 4624.54 Q3466.92 4613.71 3466.92 4595.24 Q3466.92 4576.14 3477.2 4564.96 Q3487.55 4553.71 3505.05 4553.71 Q3520.74 4553.71 3529.84 4563.85 Q3539.01 4573.92 3539.01 4591.28 M3526.23 4587.53 Q3526.09 4577.04 3520.33 4570.79 Q3514.63 4564.54 3505.19 4564.54 Q3494.49 4564.54 3488.03 4570.59 Q3481.64 4576.63 3480.67 4587.6 L3526.23 4587.53 Z" fill="#000000" fill-rule="nonzero" fill-opacity="1" /><path clip-path="url(#clip370)" d="M3604.01 4525.31 L3633.45 4525.31 L3633.45 4535.24 L3616.78 4535.24 L3616.78 4642.18 L3633.45 4642.18 L3633.45 4652.11 L3604.01 4652.11 L3604.01 4525.31 Z" fill="#000000" fill-rule="nonzero" fill-opacity="1" /><path clip-path="url(#clip370)" d="M3673.31 4533.5 L3673.31 4555.59 L3699.63 4555.59 L3699.63 4565.52 L3673.31 4565.52 L3673.31 4607.74 Q3673.31 4617.25 3675.88 4619.96 Q3678.52 4622.67 3686.5 4622.67 L3699.63 4622.67 L3699.63 4633.36 L3686.5 4633.36 Q3671.71 4633.36 3666.09 4627.88 Q3660.46 4622.32 3660.46 4607.74 L3660.46 4565.52 L3651.09 4565.52 L3651.09 4555.59 L3660.46 4555.59 L3660.46 4533.5 L3673.31 4533.5 Z" fill="#000000" fill-rule="nonzero" fill-opacity="1" /><path clip-path="url(#clip370)" d="M3716.44 4555.59 L3729.21 4555.59 L3729.21 4633.36 L3716.44 4633.36 L3716.44 4555.59 M3716.44 4525.31 L3729.21 4525.31 L3729.21 4541.49 L3716.44 4541.49 L3716.44 4525.31 Z" fill="#000000" fill-rule="nonzero" fill-opacity="1" /><path clip-path="url(#clip370)" d="M3816.5 4570.52 Q3821.3 4561.91 3827.96 4557.81 Q3834.63 4553.71 3843.66 4553.71 Q3855.81 4553.71 3862.41 4562.25 Q3869 4570.72 3869 4586.42 L3869 4633.36 L3856.16 4633.36 L3856.16 4586.84 Q3856.16 4575.66 3852.2 4570.24 Q3848.24 4564.82 3840.12 4564.82 Q3830.18 4564.82 3824.42 4571.42 Q3818.66 4578.02 3818.66 4589.41 L3818.66 4633.36 L3805.81 4633.36 L3805.81 4586.84 Q3805.81 4575.59 3801.85 4570.24 Q3797.89 4564.82 3789.63 4564.82 Q3779.84 4564.82 3774.07 4571.49 Q3768.31 4578.09 3768.31 4589.41 L3768.31 4633.36 L3755.46 4633.36 L3755.46 4555.59 L3768.31 4555.59 L3768.31 4567.67 Q3772.68 4560.52 3778.8 4557.11 Q3784.91 4553.71 3793.31 4553.71 Q3801.78 4553.71 3807.68 4558.02 Q3813.66 4562.32 3816.5 4570.52 Z" fill="#000000" fill-rule="nonzero" fill-opacity="1" /><path clip-path="url(#clip370)" d="M3961.02 4591.28 L3961.02 4597.53 L3902.27 4597.53 Q3903.1 4610.72 3910.18 4617.67 Q3917.34 4624.54 3930.05 4624.54 Q3937.41 4624.54 3944.28 4622.74 Q3951.23 4620.93 3958.03 4617.32 L3958.03 4629.41 Q3951.16 4632.32 3943.93 4633.85 Q3936.71 4635.38 3929.28 4635.38 Q3910.67 4635.38 3899.77 4624.54 Q3888.93 4613.71 3888.93 4595.24 Q3888.93 4576.14 3899.21 4564.96 Q3909.56 4553.71 3927.06 4553.71 Q3942.75 4553.71 3951.85 4563.85 Q3961.02 4573.92 3961.02 4591.28 M3948.24 4587.53 Q3948.1 4577.04 3942.34 4570.79 Q3936.64 4564.54 3927.2 4564.54 Q3916.5 4564.54 3910.05 4570.59 Q3903.66 4576.63 3902.68 4587.6 L3948.24 4587.53 Z" fill="#000000" fill-rule="nonzero" fill-opacity="1" /><path clip-path="url(#clip370)" d="M4076.78 4557.88 L4076.78 4569.96 Q4071.36 4567.18 4065.53 4565.79 Q4059.7 4564.41 4053.45 4564.41 Q4043.93 4564.41 4039.14 4567.32 Q4034.42 4570.24 4034.42 4576.07 Q4034.42 4580.52 4037.82 4583.09 Q4041.23 4585.59 4051.5 4587.88 L4055.88 4588.85 Q4069.49 4591.77 4075.18 4597.11 Q4080.95 4602.39 4080.95 4611.91 Q4080.95 4622.74 4072.34 4629.06 Q4063.79 4635.38 4048.79 4635.38 Q4042.54 4635.38 4035.74 4634.13 Q4029 4632.95 4021.5 4630.52 L4021.5 4617.32 Q4028.59 4621 4035.46 4622.88 Q4042.34 4624.68 4049.07 4624.68 Q4058.1 4624.68 4062.96 4621.63 Q4067.82 4618.5 4067.82 4612.88 Q4067.82 4607.67 4064.28 4604.89 Q4060.81 4602.11 4048.93 4599.54 L4044.49 4598.5 Q4032.61 4596 4027.34 4590.86 Q4022.06 4585.66 4022.06 4576.63 Q4022.06 4565.66 4029.84 4559.68 Q4037.61 4553.71 4051.92 4553.71 Q4059 4553.71 4065.25 4554.75 Q4071.5 4555.79 4076.78 4557.88 Z" fill="#000000" fill-rule="nonzero" fill-opacity="1" /><path clip-path="url(#clip370)" d="M4113.93 4533.5 L4113.93 4555.59 L4140.25 4555.59 L4140.25 4565.52 L4113.93 4565.52 L4113.93 4607.74 Q4113.93 4617.25 4116.5 4619.96 Q4119.14 4622.67 4127.13 4622.67 L4140.25 4622.67 L4140.25 4633.36 L4127.13 4633.36 Q4112.34 4633.36 4106.71 4627.88 Q4101.09 4622.32 4101.09 4607.74 L4101.09 4565.52 L4091.71 4565.52 L4091.71 4555.59 L4101.09 4555.59 L4101.09 4533.5 L4113.93 4533.5 Z" fill="#000000" fill-rule="nonzero" fill-opacity="1" /><path clip-path="url(#clip370)" d="M4223.59 4591.28 L4223.59 4597.53 L4164.84 4597.53 Q4165.67 4610.72 4172.75 4617.67 Q4179.9 4624.54 4192.61 4624.54 Q4199.97 4624.54 4206.85 4622.74 Q4213.79 4620.93 4220.6 4617.32 L4220.6 4629.41 Q4213.72 4632.32 4206.5 4633.85 Q4199.28 4635.38 4191.85 4635.38 Q4173.24 4635.38 4162.34 4624.54 Q4151.5 4613.71 4151.5 4595.24 Q4151.5 4576.14 4161.78 4564.96 Q4172.13 4553.71 4189.63 4553.71 Q4205.32 4553.71 4214.42 4563.85 Q4223.59 4573.92 4223.59 4591.28 M4210.81 4587.53 Q4210.67 4577.04 4204.9 4570.79 Q4199.21 4564.54 4189.77 4564.54 Q4179.07 4564.54 4172.61 4570.59 Q4166.22 4576.63 4165.25 4587.6 L4210.81 4587.53 Z" fill="#000000" fill-rule="nonzero" fill-opacity="1" /><path clip-path="url(#clip370)" d="M4256.92 4621.7 L4256.92 4662.95 L4244.07 4662.95 L4244.07 4555.59 L4256.92 4555.59 L4256.92 4567.39 Q4260.95 4560.45 4267.06 4557.11 Q4273.24 4553.71 4281.78 4553.71 Q4295.95 4553.71 4304.77 4564.96 Q4313.65 4576.21 4313.65 4594.54 Q4313.65 4612.88 4304.77 4624.13 Q4295.95 4635.38 4281.78 4635.38 Q4273.24 4635.38 4267.06 4632.04 Q4260.95 4628.64 4256.92 4621.7 M4300.39 4594.54 Q4300.39 4580.45 4294.56 4572.46 Q4288.79 4564.41 4278.65 4564.41 Q4268.52 4564.41 4262.68 4572.46 Q4256.92 4580.45 4256.92 4594.54 Q4256.92 4608.64 4262.68 4616.7 Q4268.52 4624.68 4278.65 4624.68 Q4288.79 4624.68 4294.56 4616.7 Q4300.39 4608.64 4300.39 4594.54 Z" fill="#000000" fill-rule="nonzero" fill-opacity="1" /><path clip-path="url(#clip370)" d="M4364.7 4525.31 L4364.7 4652.11 L4335.25 4652.11 L4335.25 4642.18 L4351.85 4642.18 L4351.85 4535.24 L4335.25 4535.24 L4335.25 4525.31 L4364.7 4525.31 Z" fill="#000000" fill-rule="nonzero" fill-opacity="1" /><polyline clip-path="url(#clip372)" style="stroke:#000000; stroke-linecap:round; stroke-linejoin:round; stroke-width:4; stroke-opacity:0.1; fill:none" points="661.489,3639.22 6932.28,3639.22 "/>
<polyline clip-path="url(#clip372)" style="stroke:#000000; stroke-linecap:round; stroke-linejoin:round; stroke-width:4; stroke-opacity:0.1; fill:none" points="661.489,2946.4 6932.28,2946.4 "/>
<polyline clip-path="url(#clip372)" style="stroke:#000000; stroke-linecap:round; stroke-linejoin:round; stroke-width:4; stroke-opacity:0.1; fill:none" points="661.489,2253.58 6932.28,2253.58 "/>
<polyline clip-path="url(#clip372)" style="stroke:#000000; stroke-linecap:round; stroke-linejoin:round; stroke-width:4; stroke-opacity:0.1; fill:none" points="661.489,1560.76 6932.28,1560.76 "/>
<polyline clip-path="url(#clip372)" style="stroke:#000000; stroke-linecap:round; stroke-linejoin:round; stroke-width:4; stroke-opacity:0.1; fill:none" points="661.489,867.938 6932.28,867.938 "/>
<polyline clip-path="url(#clip372)" style="stroke:#000000; stroke-linecap:round; stroke-linejoin:round; stroke-width:2; stroke-opacity:0.05; fill:none" points="661.489,4193.48 6932.28,4193.48 "/>
<polyline clip-path="url(#clip372)" style="stroke:#000000; stroke-linecap:round; stroke-linejoin:round; stroke-width:2; stroke-opacity:0.05; fill:none" points="661.489,4054.92 6932.28,4054.92 "/>
<polyline clip-path="url(#clip372)" style="stroke:#000000; stroke-linecap:round; stroke-linejoin:round; stroke-width:2; stroke-opacity:0.05; fill:none" points="661.489,3916.35 6932.28,3916.35 "/>
<polyline clip-path="url(#clip372)" style="stroke:#000000; stroke-linecap:round; stroke-linejoin:round; stroke-width:2; stroke-opacity:0.05; fill:none" points="661.489,3777.79 6932.28,3777.79 "/>
<polyline clip-path="url(#clip372)" style="stroke:#000000; stroke-linecap:round; stroke-linejoin:round; stroke-width:2; stroke-opacity:0.05; fill:none" points="661.489,3500.66 6932.28,3500.66 "/>
<polyline clip-path="url(#clip372)" style="stroke:#000000; stroke-linecap:round; stroke-linejoin:round; stroke-width:2; stroke-opacity:0.05; fill:none" points="661.489,3362.1 6932.28,3362.1 "/>
<polyline clip-path="url(#clip372)" style="stroke:#000000; stroke-linecap:round; stroke-linejoin:round; stroke-width:2; stroke-opacity:0.05; fill:none" points="661.489,3223.53 6932.28,3223.53 "/>
<polyline clip-path="url(#clip372)" style="stroke:#000000; stroke-linecap:round; stroke-linejoin:round; stroke-width:2; stroke-opacity:0.05; fill:none" points="661.489,3084.97 6932.28,3084.97 "/>
<polyline clip-path="url(#clip372)" style="stroke:#000000; stroke-linecap:round; stroke-linejoin:round; stroke-width:2; stroke-opacity:0.05; fill:none" points="661.489,2807.84 6932.28,2807.84 "/>
<polyline clip-path="url(#clip372)" style="stroke:#000000; stroke-linecap:round; stroke-linejoin:round; stroke-width:2; stroke-opacity:0.05; fill:none" points="661.489,2669.27 6932.28,2669.27 "/>
<polyline clip-path="url(#clip372)" style="stroke:#000000; stroke-linecap:round; stroke-linejoin:round; stroke-width:2; stroke-opacity:0.05; fill:none" points="661.489,2530.71 6932.28,2530.71 "/>
<polyline clip-path="url(#clip372)" style="stroke:#000000; stroke-linecap:round; stroke-linejoin:round; stroke-width:2; stroke-opacity:0.05; fill:none" points="661.489,2392.15 6932.28,2392.15 "/>
<polyline clip-path="url(#clip372)" style="stroke:#000000; stroke-linecap:round; stroke-linejoin:round; stroke-width:2; stroke-opacity:0.05; fill:none" points="661.489,2115.02 6932.28,2115.02 "/>
<polyline clip-path="url(#clip372)" style="stroke:#000000; stroke-linecap:round; stroke-linejoin:round; stroke-width:2; stroke-opacity:0.05; fill:none" points="661.489,1976.45 6932.28,1976.45 "/>
<polyline clip-path="url(#clip372)" style="stroke:#000000; stroke-linecap:round; stroke-linejoin:round; stroke-width:2; stroke-opacity:0.05; fill:none" points="661.489,1837.89 6932.28,1837.89 "/>
<polyline clip-path="url(#clip372)" style="stroke:#000000; stroke-linecap:round; stroke-linejoin:round; stroke-width:2; stroke-opacity:0.05; fill:none" points="661.489,1699.32 6932.28,1699.32 "/>
<polyline clip-path="url(#clip372)" style="stroke:#000000; stroke-linecap:round; stroke-linejoin:round; stroke-width:2; stroke-opacity:0.05; fill:none" points="661.489,1422.2 6932.28,1422.2 "/>
<polyline clip-path="url(#clip372)" style="stroke:#000000; stroke-linecap:round; stroke-linejoin:round; stroke-width:2; stroke-opacity:0.05; fill:none" points="661.489,1283.63 6932.28,1283.63 "/>
<polyline clip-path="url(#clip372)" style="stroke:#000000; stroke-linecap:round; stroke-linejoin:round; stroke-width:2; stroke-opacity:0.05; fill:none" points="661.489,1145.07 6932.28,1145.07 "/>
<polyline clip-path="url(#clip372)" style="stroke:#000000; stroke-linecap:round; stroke-linejoin:round; stroke-width:2; stroke-opacity:0.05; fill:none" points="661.489,1006.5 6932.28,1006.5 "/>
<polyline clip-path="url(#clip372)" style="stroke:#000000; stroke-linecap:round; stroke-linejoin:round; stroke-width:2; stroke-opacity:0.05; fill:none" points="661.489,729.374 6932.28,729.374 "/>
<polyline clip-path="url(#clip372)" style="stroke:#000000; stroke-linecap:round; stroke-linejoin:round; stroke-width:2; stroke-opacity:0.05; fill:none" points="661.489,590.81 6932.28,590.81 "/>
<polyline clip-path="url(#clip372)" style="stroke:#000000; stroke-linecap:round; stroke-linejoin:round; stroke-width:2; stroke-opacity:0.05; fill:none" points="661.489,452.246 6932.28,452.246 "/>
<polyline clip-path="url(#clip370)" style="stroke:#000000; stroke-linecap:round; stroke-linejoin:round; stroke-width:4; stroke-opacity:1; fill:none" points="661.489,4245.43 661.489,413.065 "/>
<polyline clip-path="url(#clip370)" style="stroke:#000000; stroke-linecap:round; stroke-linejoin:round; stroke-width:4; stroke-opacity:1; fill:none" points="661.489,3639.22 680.386,3639.22 "/>
<polyline clip-path="url(#clip370)" style="stroke:#000000; stroke-linecap:round; stroke-linejoin:round; stroke-width:4; stroke-opacity:1; fill:none" points="661.489,2946.4 680.386,2946.4 "/>
<polyline clip-path="url(#clip370)" style="stroke:#000000; stroke-linecap:round; stroke-linejoin:round; stroke-width:4; stroke-opacity:1; fill:none" points="661.489,2253.58 680.386,2253.58 "/>
<polyline clip-path="url(#clip370)" style="stroke:#000000; stroke-linecap:round; stroke-linejoin:round; stroke-width:4; stroke-opacity:1; fill:none" points="661.489,1560.76 680.386,1560.76 "/>
<polyline clip-path="url(#clip370)" style="stroke:#000000; stroke-linecap:round; stroke-linejoin:round; stroke-width:4; stroke-opacity:1; fill:none" points="661.489,867.938 680.386,867.938 "/>
<polyline clip-path="url(#clip370)" style="stroke:#000000; stroke-linecap:round; stroke-linejoin:round; stroke-width:4; stroke-opacity:1; fill:none" points="661.489,4193.48 670.938,4193.48 "/>
<polyline clip-path="url(#clip370)" style="stroke:#000000; stroke-linecap:round; stroke-linejoin:round; stroke-width:4; stroke-opacity:1; fill:none" points="661.489,4054.92 670.938,4054.92 "/>
<polyline clip-path="url(#clip370)" style="stroke:#000000; stroke-linecap:round; stroke-linejoin:round; stroke-width:4; stroke-opacity:1; fill:none" points="661.489,3916.35 670.938,3916.35 "/>
<polyline clip-path="url(#clip370)" style="stroke:#000000; stroke-linecap:round; stroke-linejoin:round; stroke-width:4; stroke-opacity:1; fill:none" points="661.489,3777.79 670.938,3777.79 "/>
<polyline clip-path="url(#clip370)" style="stroke:#000000; stroke-linecap:round; stroke-linejoin:round; stroke-width:4; stroke-opacity:1; fill:none" points="661.489,3500.66 670.938,3500.66 "/>
<polyline clip-path="url(#clip370)" style="stroke:#000000; stroke-linecap:round; stroke-linejoin:round; stroke-width:4; stroke-opacity:1; fill:none" points="661.489,3362.1 670.938,3362.1 "/>
<polyline clip-path="url(#clip370)" style="stroke:#000000; stroke-linecap:round; stroke-linejoin:round; stroke-width:4; stroke-opacity:1; fill:none" points="661.489,3223.53 670.938,3223.53 "/>
<polyline clip-path="url(#clip370)" style="stroke:#000000; stroke-linecap:round; stroke-linejoin:round; stroke-width:4; stroke-opacity:1; fill:none" points="661.489,3084.97 670.938,3084.97 "/>
<polyline clip-path="url(#clip370)" style="stroke:#000000; stroke-linecap:round; stroke-linejoin:round; stroke-width:4; stroke-opacity:1; fill:none" points="661.489,2807.84 670.938,2807.84 "/>
<polyline clip-path="url(#clip370)" style="stroke:#000000; stroke-linecap:round; stroke-linejoin:round; stroke-width:4; stroke-opacity:1; fill:none" points="661.489,2669.27 670.938,2669.27 "/>
<polyline clip-path="url(#clip370)" style="stroke:#000000; stroke-linecap:round; stroke-linejoin:round; stroke-width:4; stroke-opacity:1; fill:none" points="661.489,2530.71 670.938,2530.71 "/>
<polyline clip-path="url(#clip370)" style="stroke:#000000; stroke-linecap:round; stroke-linejoin:round; stroke-width:4; stroke-opacity:1; fill:none" points="661.489,2392.15 670.938,2392.15 "/>
<polyline clip-path="url(#clip370)" style="stroke:#000000; stroke-linecap:round; stroke-linejoin:round; stroke-width:4; stroke-opacity:1; fill:none" points="661.489,2115.02 670.938,2115.02 "/>
<polyline clip-path="url(#clip370)" style="stroke:#000000; stroke-linecap:round; stroke-linejoin:round; stroke-width:4; stroke-opacity:1; fill:none" points="661.489,1976.45 670.938,1976.45 "/>
<polyline clip-path="url(#clip370)" style="stroke:#000000; stroke-linecap:round; stroke-linejoin:round; stroke-width:4; stroke-opacity:1; fill:none" points="661.489,1837.89 670.938,1837.89 "/>
<polyline clip-path="url(#clip370)" style="stroke:#000000; stroke-linecap:round; stroke-linejoin:round; stroke-width:4; stroke-opacity:1; fill:none" points="661.489,1699.32 670.938,1699.32 "/>
<polyline clip-path="url(#clip370)" style="stroke:#000000; stroke-linecap:round; stroke-linejoin:round; stroke-width:4; stroke-opacity:1; fill:none" points="661.489,1422.2 670.938,1422.2 "/>
<polyline clip-path="url(#clip370)" style="stroke:#000000; stroke-linecap:round; stroke-linejoin:round; stroke-width:4; stroke-opacity:1; fill:none" points="661.489,1283.63 670.938,1283.63 "/>
<polyline clip-path="url(#clip370)" style="stroke:#000000; stroke-linecap:round; stroke-linejoin:round; stroke-width:4; stroke-opacity:1; fill:none" points="661.489,1145.07 670.938,1145.07 "/>
<polyline clip-path="url(#clip370)" style="stroke:#000000; stroke-linecap:round; stroke-linejoin:round; stroke-width:4; stroke-opacity:1; fill:none" points="661.489,1006.5 670.938,1006.5 "/>
<polyline clip-path="url(#clip370)" style="stroke:#000000; stroke-linecap:round; stroke-linejoin:round; stroke-width:4; stroke-opacity:1; fill:none" points="661.489,729.374 670.938,729.374 "/>
<polyline clip-path="url(#clip370)" style="stroke:#000000; stroke-linecap:round; stroke-linejoin:round; stroke-width:4; stroke-opacity:1; fill:none" points="661.489,590.81 670.938,590.81 "/>
<polyline clip-path="url(#clip370)" style="stroke:#000000; stroke-linecap:round; stroke-linejoin:round; stroke-width:4; stroke-opacity:1; fill:none" points="661.489,452.246 670.938,452.246 "/>
<path clip-path="url(#clip370)" d="M366.893 3640.58 L455.92 3640.58 L455.92 3652.38 L366.893 3652.38 L366.893 3640.58 Z" fill="#000000" fill-rule="nonzero" fill-opacity="1" /><path clip-path="url(#clip370)" d="M524.739 3599.61 L489.322 3654.95 L524.739 3654.95 L524.739 3599.61 M521.058 3587.38 L538.697 3587.38 L538.697 3654.95 L553.489 3654.95 L553.489 3666.62 L538.697 3666.62 L538.697 3691.06 L524.739 3691.06 L524.739 3666.62 L477.934 3666.62 L477.934 3653.08 L521.058 3587.38 Z" fill="#000000" fill-rule="nonzero" fill-opacity="1" /><path clip-path="url(#clip370)" d="M373.143 2947.76 L462.17 2947.76 L462.17 2959.56 L373.143 2959.56 L373.143 2947.76 Z" fill="#000000" fill-rule="nonzero" fill-opacity="1" /><path clip-path="url(#clip370)" d="M504.531 2986.44 L553.489 2986.44 L553.489 2998.24 L487.656 2998.24 L487.656 2986.44 Q495.642 2978.17 509.392 2964.28 Q523.211 2950.33 526.753 2946.3 Q533.489 2938.73 536.128 2933.52 Q538.836 2928.24 538.836 2923.17 Q538.836 2914.91 533.003 2909.7 Q527.239 2904.49 517.933 2904.49 Q511.336 2904.49 503.975 2906.79 Q496.684 2909.08 488.35 2913.73 L488.35 2899.56 Q496.822 2896.16 504.184 2894.42 Q511.545 2892.69 517.656 2892.69 Q533.767 2892.69 543.35 2900.74 Q552.933 2908.8 552.933 2922.27 Q552.933 2928.66 550.503 2934.42 Q548.142 2940.12 541.822 2947.9 Q540.086 2949.91 530.781 2959.56 Q521.475 2969.15 504.531 2986.44 Z" fill="#000000" fill-rule="nonzero" fill-opacity="1" /><path clip-path="url(#clip370)" d="M517.656 2210.98 Q506.822 2210.98 501.336 2221.67 Q495.92 2232.3 495.92 2253.69 Q495.92 2275.01 501.336 2285.7 Q506.822 2296.32 517.656 2296.32 Q528.558 2296.32 533.975 2285.7 Q539.461 2275.01 539.461 2253.69 Q539.461 2232.3 533.975 2221.67 Q528.558 2210.98 517.656 2210.98 M517.656 2199.87 Q535.086 2199.87 544.253 2213.69 Q553.489 2227.44 553.489 2253.69 Q553.489 2279.87 544.253 2293.69 Q535.086 2307.44 517.656 2307.44 Q500.225 2307.44 490.989 2293.69 Q481.823 2279.87 481.823 2253.69 Q481.823 2227.44 490.989 2213.69 Q500.225 2199.87 517.656 2199.87 Z" fill="#000000" fill-rule="nonzero" fill-opacity="1" /><path clip-path="url(#clip370)" d="M504.531 1600.79 L553.489 1600.79 L553.489 1612.6 L487.656 1612.6 L487.656 1600.79 Q495.642 1592.53 509.392 1578.64 Q523.211 1564.68 526.753 1560.66 Q533.489 1553.09 536.128 1547.88 Q538.836 1542.6 538.836 1537.53 Q538.836 1529.27 533.003 1524.06 Q527.239 1518.85 517.933 1518.85 Q511.336 1518.85 503.975 1521.14 Q496.684 1523.43 488.35 1528.09 L488.35 1513.92 Q496.822 1510.52 504.184 1508.78 Q511.545 1507.05 517.656 1507.05 Q533.767 1507.05 543.35 1515.1 Q552.933 1523.16 552.933 1536.63 Q552.933 1543.02 550.503 1548.78 Q548.142 1554.48 541.822 1562.25 Q540.086 1564.27 530.781 1573.92 Q521.475 1583.5 504.531 1600.79 Z" fill="#000000" fill-rule="nonzero" fill-opacity="1" /><path clip-path="url(#clip370)" d="M524.739 828.321 L489.322 883.668 L524.739 883.668 L524.739 828.321 M521.058 816.098 L538.697 816.098 L538.697 883.668 L553.489 883.668 L553.489 895.334 L538.697 895.334 L538.697 919.778 L524.739 919.778 L524.739 895.334 L477.934 895.334 L477.934 881.793 L521.058 816.098 Z" fill="#000000" fill-rule="nonzero" fill-opacity="1" /><path clip-path="url(#clip370)" d="M127.928 2909.28 L150.011 2909.28 L150.011 2882.96 L159.942 2882.96 L159.942 2909.28 L202.164 2909.28 Q211.678 2909.28 214.386 2906.71 Q217.094 2904.07 217.094 2896.08 L217.094 2882.96 L227.789 2882.96 L227.789 2896.08 Q227.789 2910.87 222.303 2916.5 Q216.747 2922.12 202.164 2922.12 L159.942 2922.12 L159.942 2931.5 L150.011 2931.5 L150.011 2922.12 L127.928 2922.12 L127.928 2909.28 Z" fill="#000000" fill-rule="nonzero" fill-opacity="1" /><path clip-path="url(#clip370)" d="M185.705 2799.63 L191.955 2799.63 L191.955 2858.38 Q205.15 2857.54 212.094 2850.46 Q218.969 2843.31 218.969 2830.6 Q218.969 2823.24 217.164 2816.36 Q215.358 2809.42 211.747 2802.61 L223.83 2802.61 Q226.747 2809.49 228.275 2816.71 Q229.802 2823.93 229.802 2831.36 Q229.802 2849.97 218.969 2860.88 Q208.136 2871.71 189.664 2871.71 Q170.567 2871.71 159.386 2861.43 Q148.136 2851.08 148.136 2833.58 Q148.136 2817.89 158.275 2808.79 Q168.344 2799.63 185.705 2799.63 M181.956 2812.4 Q171.469 2812.54 165.219 2818.31 Q158.97 2824 158.97 2833.44 Q158.97 2844.14 165.011 2850.6 Q171.053 2856.99 182.025 2857.96 L181.956 2812.4 Z" fill="#000000" fill-rule="nonzero" fill-opacity="1" /><path clip-path="url(#clip370)" d="M164.942 2718.1 Q156.331 2713.31 152.233 2706.64 Q148.136 2699.97 148.136 2690.95 Q148.136 2678.79 156.678 2672.2 Q165.15 2665.6 180.844 2665.6 L227.789 2665.6 L227.789 2678.45 L181.261 2678.45 Q170.081 2678.45 164.664 2682.4 Q159.247 2686.36 159.247 2694.49 Q159.247 2704.42 165.844 2710.18 Q172.442 2715.95 183.831 2715.95 L227.789 2715.95 L227.789 2728.79 L181.261 2728.79 Q170.011 2728.79 164.664 2732.75 Q159.247 2736.71 159.247 2744.97 Q159.247 2754.76 165.914 2760.53 Q172.511 2766.29 183.831 2766.29 L227.789 2766.29 L227.789 2779.14 L150.011 2779.14 L150.011 2766.29 L162.095 2766.29 Q154.942 2761.92 151.539 2755.81 Q148.136 2749.7 148.136 2741.29 Q148.136 2732.82 152.442 2726.92 Q156.747 2720.95 164.942 2718.1 Z" fill="#000000" fill-rule="nonzero" fill-opacity="1" /><path clip-path="url(#clip370)" d="M216.122 2627.75 L257.372 2627.75 L257.372 2640.6 L150.011 2640.6 L150.011 2627.75 L161.817 2627.75 Q154.872 2623.72 151.539 2617.61 Q148.136 2611.43 148.136 2602.89 Q148.136 2588.72 159.386 2579.9 Q170.636 2571.02 188.969 2571.02 Q207.303 2571.02 218.553 2579.9 Q229.802 2588.72 229.802 2602.89 Q229.802 2611.43 226.469 2617.61 Q223.066 2623.72 216.122 2627.75 M188.969 2584.28 Q174.872 2584.28 166.886 2590.11 Q158.831 2595.88 158.831 2606.02 Q158.831 2616.15 166.886 2621.99 Q174.872 2627.75 188.969 2627.75 Q203.067 2627.75 211.122 2621.99 Q219.108 2616.15 219.108 2606.02 Q219.108 2595.88 211.122 2590.11 Q203.067 2584.28 188.969 2584.28 Z" fill="#000000" fill-rule="nonzero" fill-opacity="1" /><path clip-path="url(#clip370)" d="M185.705 2483.31 L191.955 2483.31 L191.955 2542.06 Q205.15 2541.22 212.094 2534.14 Q218.969 2526.99 218.969 2514.28 Q218.969 2506.92 217.164 2500.04 Q215.358 2493.1 211.747 2486.29 L223.83 2486.29 Q226.747 2493.17 228.275 2500.39 Q229.802 2507.61 229.802 2515.04 Q229.802 2533.65 218.969 2544.56 Q208.136 2555.39 189.664 2555.39 Q170.567 2555.39 159.386 2545.11 Q148.136 2534.77 148.136 2517.27 Q148.136 2501.57 158.275 2492.47 Q168.344 2483.31 185.705 2483.31 M181.956 2496.09 Q171.469 2496.22 165.219 2501.99 Q158.97 2507.68 158.97 2517.13 Q158.97 2527.82 165.011 2534.28 Q171.053 2540.67 182.025 2541.64 L181.956 2496.09 Z" fill="#000000" fill-rule="nonzero" fill-opacity="1" /><path clip-path="url(#clip370)" d="M161.956 2417.27 Q160.706 2419.42 160.15 2421.99 Q159.525 2424.49 159.525 2427.54 Q159.525 2438.38 166.608 2444.21 Q173.622 2449.97 186.817 2449.97 L227.789 2449.97 L227.789 2462.82 L150.011 2462.82 L150.011 2449.97 L162.095 2449.97 Q155.011 2445.95 151.608 2439.49 Q148.136 2433.03 148.136 2423.79 Q148.136 2422.47 148.345 2420.88 Q148.483 2419.28 148.831 2417.34 L161.956 2417.27 Z" fill="#000000" fill-rule="nonzero" fill-opacity="1" /><path clip-path="url(#clip370)" d="M188.692 2368.52 Q188.692 2384 192.233 2389.97 Q195.775 2395.95 204.317 2395.95 Q211.122 2395.95 215.15 2391.5 Q219.108 2386.99 219.108 2379.28 Q219.108 2368.66 211.608 2362.27 Q204.039 2355.81 191.539 2355.81 L188.692 2355.81 L188.692 2368.52 M183.414 2343.03 L227.789 2343.03 L227.789 2355.81 L215.983 2355.81 Q223.066 2360.18 226.469 2366.71 Q229.802 2373.24 229.802 2382.68 Q229.802 2394.63 223.136 2401.71 Q216.4 2408.72 205.15 2408.72 Q192.025 2408.72 185.358 2399.97 Q178.692 2391.16 178.692 2373.72 L178.692 2355.81 L177.442 2355.81 Q168.622 2355.81 163.831 2361.64 Q158.97 2367.41 158.97 2377.89 Q158.97 2384.56 160.567 2390.88 Q162.164 2397.2 165.358 2403.03 L153.553 2403.03 Q150.845 2396.02 149.525 2389.42 Q148.136 2382.82 148.136 2376.57 Q148.136 2359.7 156.886 2351.36 Q165.636 2343.03 183.414 2343.03 Z" fill="#000000" fill-rule="nonzero" fill-opacity="1" /><path clip-path="url(#clip370)" d="M127.928 2304.07 L150.011 2304.07 L150.011 2277.75 L159.942 2277.75 L159.942 2304.07 L202.164 2304.07 Q211.678 2304.07 214.386 2301.5 Q217.094 2298.86 217.094 2290.88 L217.094 2277.75 L227.789 2277.75 L227.789 2290.88 Q227.789 2305.67 222.303 2311.29 Q216.747 2316.92 202.164 2316.92 L159.942 2316.92 L159.942 2326.29 L150.011 2326.29 L150.011 2316.92 L127.928 2316.92 L127.928 2304.07 Z" fill="#000000" fill-rule="nonzero" fill-opacity="1" /><path clip-path="url(#clip370)" d="M197.094 2262.27 L150.011 2262.27 L150.011 2249.49 L196.608 2249.49 Q207.65 2249.49 213.205 2245.18 Q218.691 2240.88 218.691 2232.27 Q218.691 2221.92 212.094 2215.95 Q205.497 2209.91 194.108 2209.91 L150.011 2209.91 L150.011 2197.13 L227.789 2197.13 L227.789 2209.91 L215.844 2209.91 Q222.928 2214.56 226.4 2220.74 Q229.802 2226.85 229.802 2234.98 Q229.802 2248.38 221.469 2255.32 Q213.136 2262.27 197.094 2262.27 M148.136 2230.11 L148.136 2230.11 Z" fill="#000000" fill-rule="nonzero" fill-opacity="1" /><path clip-path="url(#clip370)" d="M161.956 2125.74 Q160.706 2127.89 160.15 2130.46 Q159.525 2132.96 159.525 2136.02 Q159.525 2146.85 166.608 2152.68 Q173.622 2158.45 186.817 2158.45 L227.789 2158.45 L227.789 2171.3 L150.011 2171.3 L150.011 2158.45 L162.095 2158.45 Q155.011 2154.42 151.608 2147.96 Q148.136 2141.5 148.136 2132.27 Q148.136 2130.95 148.345 2129.35 Q148.483 2127.75 148.831 2125.81 L161.956 2125.74 Z" fill="#000000" fill-rule="nonzero" fill-opacity="1" /><path clip-path="url(#clip370)" d="M185.705 2048.93 L191.955 2048.93 L191.955 2107.68 Q205.15 2106.85 212.094 2099.77 Q218.969 2092.62 218.969 2079.91 Q218.969 2072.55 217.164 2065.67 Q215.358 2058.73 211.747 2051.92 L223.83 2051.92 Q226.747 2058.8 228.275 2066.02 Q229.802 2073.24 229.802 2080.67 Q229.802 2099.28 218.969 2110.18 Q208.136 2121.02 189.664 2121.02 Q170.567 2121.02 159.386 2110.74 Q148.136 2100.39 148.136 2082.89 Q148.136 2067.2 158.275 2058.1 Q168.344 2048.93 185.705 2048.93 M181.956 2061.71 Q171.469 2061.85 165.219 2067.62 Q158.97 2073.31 158.97 2082.75 Q158.97 2093.45 165.011 2099.91 Q171.053 2106.3 182.025 2107.27 L181.956 2061.71 Z" fill="#000000" fill-rule="nonzero" fill-opacity="1" /><path clip-path="url(#clip370)" d="M119.734 1983.94 L119.734 1954.49 L129.664 1954.49 L129.664 1971.16 L236.608 1971.16 L236.608 1954.49 L246.538 1954.49 L246.538 1983.94 L119.734 1983.94 Z" fill="#000000" fill-rule="nonzero" fill-opacity="1" /><path clip-path="url(#clip370)" d="M131.192 1905.12 Q131.192 1910.67 135.081 1914.49 Q138.9 1918.31 144.456 1918.31 Q149.942 1918.31 153.761 1914.49 Q157.511 1910.67 157.511 1905.12 Q157.511 1899.56 153.761 1895.74 Q149.942 1891.92 144.456 1891.92 Q138.97 1891.92 135.081 1895.81 Q131.192 1899.63 131.192 1905.12 M122.234 1905.12 Q122.234 1900.67 123.97 1896.57 Q125.636 1892.48 128.831 1889.49 Q131.956 1886.3 135.914 1884.7 Q139.872 1883.1 144.456 1883.1 Q153.622 1883.1 160.011 1889.56 Q166.331 1895.95 166.331 1905.26 Q166.331 1914.63 160.081 1920.88 Q153.831 1927.13 144.456 1927.13 Q135.15 1927.13 128.692 1920.74 Q122.234 1914.35 122.234 1905.12 Z" fill="#000000" fill-rule="nonzero" fill-opacity="1" /><path clip-path="url(#clip370)" d="M132.095 1777.96 L146.886 1777.96 Q140.289 1785.05 137.025 1793.1 Q133.761 1801.09 133.761 1810.12 Q133.761 1827.89 144.664 1837.34 Q155.497 1846.78 176.053 1846.78 Q196.539 1846.78 207.441 1837.34 Q218.275 1827.89 218.275 1810.12 Q218.275 1801.09 215.011 1793.1 Q211.747 1785.05 205.15 1777.96 L219.803 1777.96 Q224.803 1785.33 227.302 1793.59 Q229.802 1801.78 229.802 1810.95 Q229.802 1834.49 215.428 1848.03 Q200.983 1861.57 176.053 1861.57 Q151.053 1861.57 136.678 1848.03 Q122.234 1834.49 122.234 1810.95 Q122.234 1801.64 124.734 1793.45 Q127.164 1785.19 132.095 1777.96 Z" fill="#000000" fill-rule="nonzero" fill-opacity="1" /><path clip-path="url(#clip370)" d="M119.734 1726.99 L246.538 1726.99 L246.538 1756.44 L236.608 1756.44 L236.608 1739.84 L129.664 1739.84 L129.664 1756.44 L119.734 1756.44 L119.734 1726.99 Z" fill="#000000" fill-rule="nonzero" fill-opacity="1" /><path clip-path="url(#clip370)" d="M1081.32 25.92 L1190.95 25.92 L1190.95 40.6769 L1144.95 40.6769 L1144.95 155.52 L1127.33 155.52 L1127.33 40.6769 L1081.32 40.6769 L1081.32 25.92 Z" fill="#000000" fill-rule="nonzero" fill-opacity="1" /><path clip-path="url(#clip370)" d="M1260.14 102.916 L1260.14 110.729 L1186.7 110.729 Q1187.74 127.222 1196.6 135.902 Q1205.54 144.496 1221.42 144.496 Q1230.62 144.496 1239.22 142.239 Q1247.9 139.982 1256.4 135.468 L1256.4 150.572 Q1247.81 154.218 1238.78 156.128 Q1229.76 158.037 1220.47 158.037 Q1197.2 158.037 1183.58 144.496 Q1170.03 130.954 1170.03 107.864 Q1170.03 83.9926 1182.88 70.017 Q1195.82 55.9546 1217.69 55.9546 Q1237.31 55.9546 1248.68 68.6281 Q1260.14 81.2148 1260.14 102.916 M1244.17 98.2286 Q1243.99 85.1211 1236.79 77.3086 Q1229.67 69.4962 1217.86 69.4962 Q1204.5 69.4962 1196.42 77.0482 Q1188.44 84.6002 1187.22 98.3154 L1244.17 98.2286 Z" fill="#000000" fill-rule="nonzero" fill-opacity="1" /><path clip-path="url(#clip370)" d="M1362.05 76.9614 Q1368.04 66.1976 1376.37 61.0761 Q1384.7 55.9546 1395.99 55.9546 Q1411.18 55.9546 1419.42 66.6316 Q1427.67 77.2218 1427.67 96.8398 L1427.67 155.52 L1411.61 155.52 L1411.61 97.3606 Q1411.61 83.385 1406.66 76.6142 Q1401.72 69.8434 1391.56 69.8434 Q1379.15 69.8434 1371.94 78.0899 Q1364.74 86.3363 1364.74 100.572 L1364.74 155.52 L1348.68 155.52 L1348.68 97.3606 Q1348.68 83.2982 1343.73 76.6142 Q1338.78 69.8434 1328.45 69.8434 Q1316.21 69.8434 1309.01 78.1767 Q1301.8 86.4231 1301.8 100.572 L1301.8 155.52 L1285.75 155.52 L1285.75 58.2983 L1301.8 58.2983 L1301.8 73.4024 Q1307.27 64.4615 1314.91 60.208 Q1322.55 55.9546 1333.05 55.9546 Q1343.64 55.9546 1351.02 61.3365 Q1358.49 66.7184 1362.05 76.9614 Z" fill="#000000" fill-rule="nonzero" fill-opacity="1" /><path clip-path="url(#clip370)" d="M1474.98 140.937 L1474.98 192.499 L1458.92 192.499 L1458.92 58.2983 L1474.98 58.2983 L1474.98 73.0552 Q1480.01 64.3747 1487.65 60.208 Q1495.38 55.9546 1506.06 55.9546 Q1523.76 55.9546 1534.79 70.017 Q1545.9 84.0794 1545.9 106.996 Q1545.9 129.912 1534.79 143.975 Q1523.76 158.037 1506.06 158.037 Q1495.38 158.037 1487.65 153.871 Q1480.01 149.617 1474.98 140.937 M1529.32 106.996 Q1529.32 89.3745 1522.03 79.3919 Q1514.82 69.3225 1502.15 69.3225 Q1489.48 69.3225 1482.19 79.3919 Q1474.98 89.3745 1474.98 106.996 Q1474.98 124.617 1482.19 134.687 Q1489.48 144.669 1502.15 144.669 Q1514.82 144.669 1522.03 134.687 Q1529.32 124.617 1529.32 106.996 Z" fill="#000000" fill-rule="nonzero" fill-opacity="1" /><path clip-path="url(#clip370)" d="M1655.53 102.916 L1655.53 110.729 L1582.1 110.729 Q1583.14 127.222 1591.99 135.902 Q1600.93 144.496 1616.82 144.496 Q1626.02 144.496 1634.61 142.239 Q1643.3 139.982 1651.8 135.468 L1651.8 150.572 Q1643.21 154.218 1634.18 156.128 Q1625.15 158.037 1615.86 158.037 Q1592.6 158.037 1578.97 144.496 Q1565.43 130.954 1565.43 107.864 Q1565.43 83.9926 1578.28 70.017 Q1591.21 55.9546 1613.09 55.9546 Q1632.71 55.9546 1644.08 68.6281 Q1655.53 81.2148 1655.53 102.916 M1639.56 98.2286 Q1639.39 85.1211 1632.18 77.3086 Q1625.07 69.4962 1613.26 69.4962 Q1599.89 69.4962 1591.82 77.0482 Q1583.83 84.6002 1582.62 98.3154 L1639.56 98.2286 Z" fill="#000000" fill-rule="nonzero" fill-opacity="1" /><path clip-path="url(#clip370)" d="M1738.09 73.2288 Q1735.4 71.6663 1732.18 70.9718 Q1729.06 70.1906 1725.24 70.1906 Q1711.7 70.1906 1704.41 79.0447 Q1697.2 87.812 1697.2 104.305 L1697.2 155.52 L1681.14 155.52 L1681.14 58.2983 L1697.2 58.2983 L1697.2 73.4024 Q1702.24 64.5483 1710.31 60.2948 Q1718.38 55.9546 1729.93 55.9546 Q1731.58 55.9546 1733.57 56.215 Q1735.57 56.3886 1738 56.8226 L1738.09 73.2288 Z" fill="#000000" fill-rule="nonzero" fill-opacity="1" /><path clip-path="url(#clip370)" d="M1799.02 106.649 Q1779.67 106.649 1772.2 111.076 Q1764.74 115.503 1764.74 126.18 Q1764.74 134.687 1770.29 139.721 Q1775.93 144.669 1785.57 144.669 Q1798.85 144.669 1806.84 135.294 Q1814.91 125.833 1814.91 110.208 L1814.91 106.649 L1799.02 106.649 M1830.88 100.052 L1830.88 155.52 L1814.91 155.52 L1814.91 140.763 Q1809.44 149.617 1801.28 153.871 Q1793.12 158.037 1781.32 158.037 Q1766.38 158.037 1757.53 149.704 Q1748.76 141.284 1748.76 127.222 Q1748.76 110.815 1759.7 102.482 Q1770.73 94.1488 1792.51 94.1488 L1814.91 94.1488 L1814.91 92.5863 Q1814.91 81.5621 1807.62 75.5725 Q1800.41 69.4962 1787.3 69.4962 Q1778.97 69.4962 1771.07 71.4927 Q1763.17 73.4892 1755.88 77.4822 L1755.88 62.7254 Q1764.65 59.34 1772.9 57.6907 Q1781.14 55.9546 1788.95 55.9546 Q1810.05 55.9546 1820.46 66.892 Q1830.88 77.8294 1830.88 100.052 Z" fill="#000000" fill-rule="nonzero" fill-opacity="1" /><path clip-path="url(#clip370)" d="M1879.58 30.6943 L1879.58 58.2983 L1912.48 58.2983 L1912.48 70.7114 L1879.58 70.7114 L1879.58 123.489 Q1879.58 135.381 1882.79 138.767 Q1886.09 142.152 1896.07 142.152 L1912.48 142.152 L1912.48 155.52 L1896.07 155.52 Q1877.58 155.52 1870.55 148.662 Q1863.52 141.718 1863.52 123.489 L1863.52 70.7114 L1851.8 70.7114 L1851.8 58.2983 L1863.52 58.2983 L1863.52 30.6943 L1879.58 30.6943 Z" fill="#000000" fill-rule="nonzero" fill-opacity="1" /><path clip-path="url(#clip370)" d="M1931.84 117.152 L1931.84 58.2983 L1947.81 58.2983 L1947.81 116.545 Q1947.81 130.347 1953.19 137.291 Q1958.57 144.149 1969.34 144.149 Q1982.27 144.149 1989.73 135.902 Q1997.29 127.656 1997.29 113.42 L1997.29 58.2983 L2013.26 58.2983 L2013.26 155.52 L1997.29 155.52 L1997.29 140.59 Q1991.47 149.444 1983.74 153.784 Q1976.11 158.037 1965.95 158.037 Q1949.2 158.037 1940.52 147.621 Q1931.84 137.204 1931.84 117.152 M1972.03 55.9546 L1972.03 55.9546 Z" fill="#000000" fill-rule="nonzero" fill-opacity="1" /><path clip-path="url(#clip370)" d="M2102.49 73.2288 Q2099.8 71.6663 2096.59 70.9718 Q2093.47 70.1906 2089.65 70.1906 Q2076.11 70.1906 2068.81 79.0447 Q2061.61 87.812 2061.61 104.305 L2061.61 155.52 L2045.55 155.52 L2045.55 58.2983 L2061.61 58.2983 L2061.61 73.4024 Q2066.64 64.5483 2074.72 60.2948 Q2082.79 55.9546 2094.33 55.9546 Q2095.98 55.9546 2097.98 56.215 Q2099.98 56.3886 2102.41 56.8226 L2102.49 73.2288 Z" fill="#000000" fill-rule="nonzero" fill-opacity="1" /><path clip-path="url(#clip370)" d="M2198.5 102.916 L2198.5 110.729 L2125.06 110.729 Q2126.11 127.222 2134.96 135.902 Q2143.9 144.496 2159.79 144.496 Q2168.99 144.496 2177.58 142.239 Q2186.26 139.982 2194.77 135.468 L2194.77 150.572 Q2186.17 154.218 2177.15 156.128 Q2168.12 158.037 2158.83 158.037 Q2135.57 158.037 2121.94 144.496 Q2108.4 130.954 2108.4 107.864 Q2108.4 83.9926 2121.24 70.017 Q2134.18 55.9546 2156.05 55.9546 Q2175.67 55.9546 2187.04 68.6281 Q2198.5 81.2148 2198.5 102.916 M2182.53 98.2286 Q2182.35 85.1211 2175.15 77.3086 Q2168.03 69.4962 2156.23 69.4962 Q2142.86 69.4962 2134.79 77.0482 Q2126.8 84.6002 2125.58 98.3154 L2182.53 98.2286 Z" fill="#000000" fill-rule="nonzero" fill-opacity="1" /><path clip-path="url(#clip370)" d="M2345.2 73.0552 L2345.2 20.4513 L2361.17 20.4513 L2361.17 155.52 L2345.2 155.52 L2345.2 140.937 Q2340.17 149.617 2332.44 153.871 Q2324.8 158.037 2314.04 158.037 Q2296.42 158.037 2285.31 143.975 Q2274.28 129.912 2274.28 106.996 Q2274.28 84.0794 2285.31 70.017 Q2296.42 55.9546 2314.04 55.9546 Q2324.8 55.9546 2332.44 60.208 Q2340.17 64.3747 2345.2 73.0552 M2290.77 106.996 Q2290.77 124.617 2297.98 134.687 Q2305.27 144.669 2317.94 144.669 Q2330.62 144.669 2337.91 134.687 Q2345.2 124.617 2345.2 106.996 Q2345.2 89.3745 2337.91 79.3919 Q2330.62 69.3225 2317.94 69.3225 Q2305.27 69.3225 2297.98 79.3919 Q2290.77 89.3745 2290.77 106.996 Z" fill="#000000" fill-rule="nonzero" fill-opacity="1" /><path clip-path="url(#clip370)" d="M2477.23 102.916 L2477.23 110.729 L2403.79 110.729 Q2404.84 127.222 2413.69 135.902 Q2422.63 144.496 2438.52 144.496 Q2447.72 144.496 2456.31 142.239 Q2464.99 139.982 2473.5 135.468 L2473.5 150.572 Q2464.91 154.218 2455.88 156.128 Q2446.85 158.037 2437.56 158.037 Q2414.3 158.037 2400.67 144.496 Q2387.13 130.954 2387.13 107.864 Q2387.13 83.9926 2399.98 70.017 Q2412.91 55.9546 2434.78 55.9546 Q2454.4 55.9546 2465.77 68.6281 Q2477.23 81.2148 2477.23 102.916 M2461.26 98.2286 Q2461.09 85.1211 2453.88 77.3086 Q2446.76 69.4962 2434.96 69.4962 Q2421.59 69.4962 2413.52 77.0482 Q2405.53 84.6002 2404.32 98.3154 L2461.26 98.2286 Z" fill="#000000" fill-rule="nonzero" fill-opacity="1" /><path clip-path="url(#clip370)" d="M2573.41 62.0309 L2573.41 76.9614 Q2566.64 73.2288 2559.78 71.4059 Q2553.01 69.4962 2546.07 69.4962 Q2530.53 69.4962 2521.94 79.3919 Q2513.34 89.2009 2513.34 106.996 Q2513.34 124.791 2521.94 134.687 Q2530.53 144.496 2546.07 144.496 Q2553.01 144.496 2559.78 142.673 Q2566.64 140.763 2573.41 137.031 L2573.41 151.787 Q2566.73 154.912 2559.52 156.475 Q2552.4 158.037 2544.33 158.037 Q2522.37 158.037 2509.44 144.235 Q2496.5 130.433 2496.5 106.996 Q2496.5 83.2114 2509.52 69.583 Q2522.63 55.9546 2545.37 55.9546 Q2552.75 55.9546 2559.78 57.5171 Q2566.81 58.9927 2573.41 62.0309 Z" fill="#000000" fill-rule="nonzero" fill-opacity="1" /><path clip-path="url(#clip370)" d="M2657.53 73.2288 Q2654.83 71.6663 2651.62 70.9718 Q2648.5 70.1906 2644.68 70.1906 Q2631.14 70.1906 2623.85 79.0447 Q2616.64 87.812 2616.64 104.305 L2616.64 155.52 L2600.58 155.52 L2600.58 58.2983 L2616.64 58.2983 L2616.64 73.4024 Q2621.68 64.5483 2629.75 60.2948 Q2637.82 55.9546 2649.37 55.9546 Q2651.02 55.9546 2653.01 56.215 Q2655.01 56.3886 2657.44 56.8226 L2657.53 73.2288 Z" fill="#000000" fill-rule="nonzero" fill-opacity="1" /><path clip-path="url(#clip370)" d="M2753.53 102.916 L2753.53 110.729 L2680.1 110.729 Q2681.14 127.222 2689.99 135.902 Q2698.93 144.496 2714.82 144.496 Q2724.02 144.496 2732.61 142.239 Q2741.29 139.982 2749.8 135.468 L2749.8 150.572 Q2741.21 154.218 2732.18 156.128 Q2723.15 158.037 2713.86 158.037 Q2690.6 158.037 2676.97 144.496 Q2663.43 130.954 2663.43 107.864 Q2663.43 83.9926 2676.28 70.017 Q2689.21 55.9546 2711.08 55.9546 Q2730.7 55.9546 2742.07 68.6281 Q2753.53 81.2148 2753.53 102.916 M2737.56 98.2286 Q2737.39 85.1211 2730.18 77.3086 Q2723.06 69.4962 2711.26 69.4962 Q2697.89 69.4962 2689.82 77.0482 Q2681.83 84.6002 2680.62 98.3154 L2737.56 98.2286 Z" fill="#000000" fill-rule="nonzero" fill-opacity="1" /><path clip-path="url(#clip370)" d="M2823.93 106.649 Q2804.57 106.649 2797.11 111.076 Q2789.64 115.503 2789.64 126.18 Q2789.64 134.687 2795.2 139.721 Q2800.84 144.669 2810.48 144.669 Q2823.76 144.669 2831.74 135.294 Q2839.82 125.833 2839.82 110.208 L2839.82 106.649 L2823.93 106.649 M2855.79 100.052 L2855.79 155.52 L2839.82 155.52 L2839.82 140.763 Q2834.35 149.617 2826.19 153.871 Q2818.03 158.037 2806.22 158.037 Q2791.29 158.037 2782.44 149.704 Q2773.67 141.284 2773.67 127.222 Q2773.67 110.815 2784.61 102.482 Q2795.63 94.1488 2817.42 94.1488 L2839.82 94.1488 L2839.82 92.5863 Q2839.82 81.5621 2832.52 75.5725 Q2825.32 69.4962 2812.21 69.4962 Q2803.88 69.4962 2795.98 71.4927 Q2788.08 73.4892 2780.79 77.4822 L2780.79 62.7254 Q2789.56 59.34 2797.8 57.6907 Q2806.05 55.9546 2813.86 55.9546 Q2834.96 55.9546 2845.37 66.892 Q2855.79 77.8294 2855.79 100.052 Z" fill="#000000" fill-rule="nonzero" fill-opacity="1" /><path clip-path="url(#clip370)" d="M2950.67 61.1629 L2950.67 76.267 Q2943.9 72.7947 2936.6 71.0586 Q2929.31 69.3225 2921.5 69.3225 Q2909.61 69.3225 2903.62 72.9684 Q2897.72 76.6142 2897.72 83.9058 Q2897.72 89.4613 2901.97 92.6731 Q2906.22 95.7981 2919.07 98.6627 L2924.54 99.8779 Q2941.55 103.524 2948.67 110.208 Q2955.88 116.805 2955.88 128.697 Q2955.88 142.239 2945.11 150.138 Q2934.43 158.037 2915.68 158.037 Q2907.87 158.037 2899.36 156.475 Q2890.94 154.999 2881.57 151.961 L2881.57 135.468 Q2890.42 140.069 2899.02 142.412 Q2907.61 144.669 2916.03 144.669 Q2927.32 144.669 2933.39 140.85 Q2939.47 136.944 2939.47 129.912 Q2939.47 123.402 2935.04 119.93 Q2930.7 116.458 2915.86 113.246 L2910.3 111.944 Q2895.46 108.819 2888.86 102.395 Q2882.26 95.8849 2882.26 84.6002 Q2882.26 70.885 2891.99 63.4198 Q2901.71 55.9546 2919.59 55.9546 Q2928.44 55.9546 2936.26 57.2566 Q2944.07 58.5587 2950.67 61.1629 Z" fill="#000000" fill-rule="nonzero" fill-opacity="1" /><path clip-path="url(#clip370)" d="M3064.47 102.916 L3064.47 110.729 L2991.03 110.729 Q2992.07 127.222 3000.93 135.902 Q3009.87 144.496 3025.75 144.496 Q3034.95 144.496 3043.55 142.239 Q3052.23 139.982 3060.74 135.468 L3060.74 150.572 Q3052.14 154.218 3043.11 156.128 Q3034.09 158.037 3024.8 158.037 Q3001.53 158.037 2987.91 144.496 Q2974.36 130.954 2974.36 107.864 Q2974.36 83.9926 2987.21 70.017 Q3000.15 55.9546 3022.02 55.9546 Q3041.64 55.9546 3053.01 68.6281 Q3064.47 81.2148 3064.47 102.916 M3048.5 98.2286 Q3048.32 85.1211 3041.12 77.3086 Q3034 69.4962 3022.19 69.4962 Q3008.83 69.4962 3000.75 77.0482 Q2992.77 84.6002 2991.55 98.3154 L3048.5 98.2286 Z" fill="#000000" fill-rule="nonzero" fill-opacity="1" /><path clip-path="url(#clip370)" d="M3211.17 73.0552 L3211.17 20.4513 L3227.14 20.4513 L3227.14 155.52 L3211.17 155.52 L3211.17 140.937 Q3206.13 149.617 3198.41 153.871 Q3190.77 158.037 3180.01 158.037 Q3162.38 158.037 3151.27 143.975 Q3140.25 129.912 3140.25 106.996 Q3140.25 84.0794 3151.27 70.017 Q3162.38 55.9546 3180.01 55.9546 Q3190.77 55.9546 3198.41 60.208 Q3206.13 64.3747 3211.17 73.0552 M3156.74 106.996 Q3156.74 124.617 3163.95 134.687 Q3171.24 144.669 3183.91 144.669 Q3196.59 144.669 3203.88 134.687 Q3211.17 124.617 3211.17 106.996 Q3211.17 89.3745 3203.88 79.3919 Q3196.59 69.3225 3183.91 69.3225 Q3171.24 69.3225 3163.95 79.3919 Q3156.74 89.3745 3156.74 106.996 Z" fill="#000000" fill-rule="nonzero" fill-opacity="1" /><path clip-path="url(#clip370)" d="M3258.39 117.152 L3258.39 58.2983 L3274.36 58.2983 L3274.36 116.545 Q3274.36 130.347 3279.74 137.291 Q3285.13 144.149 3295.89 144.149 Q3308.82 144.149 3316.29 135.902 Q3323.84 127.656 3323.84 113.42 L3323.84 58.2983 L3339.81 58.2983 L3339.81 155.52 L3323.84 155.52 L3323.84 140.59 Q3318.03 149.444 3310.3 153.784 Q3302.66 158.037 3292.51 158.037 Q3275.75 158.037 3267.07 147.621 Q3258.39 137.204 3258.39 117.152 M3298.58 55.9546 L3298.58 55.9546 Z" fill="#000000" fill-rule="nonzero" fill-opacity="1" /><path clip-path="url(#clip370)" d="M3429.05 73.2288 Q3426.36 71.6663 3423.15 70.9718 Q3420.02 70.1906 3416.2 70.1906 Q3402.66 70.1906 3395.37 79.0447 Q3388.16 87.812 3388.16 104.305 L3388.16 155.52 L3372.11 155.52 L3372.11 58.2983 L3388.16 58.2983 L3388.16 73.4024 Q3393.2 64.5483 3401.27 60.2948 Q3409.34 55.9546 3420.89 55.9546 Q3422.54 55.9546 3424.54 56.215 Q3426.53 56.3886 3428.96 56.8226 L3429.05 73.2288 Z" fill="#000000" fill-rule="nonzero" fill-opacity="1" /><path clip-path="url(#clip370)" d="M3445.8 58.2983 L3461.78 58.2983 L3461.78 155.52 L3445.8 155.52 L3445.8 58.2983 M3445.8 20.4513 L3461.78 20.4513 L3461.78 40.6769 L3445.8 40.6769 L3445.8 20.4513 Z" fill="#000000" fill-rule="nonzero" fill-opacity="1" /><path clip-path="url(#clip370)" d="M3576.01 96.8398 L3576.01 155.52 L3560.04 155.52 L3560.04 97.3606 Q3560.04 83.5586 3554.66 76.701 Q3549.27 69.8434 3538.51 69.8434 Q3525.58 69.8434 3518.11 78.0899 Q3510.65 86.3363 3510.65 100.572 L3510.65 155.52 L3494.59 155.52 L3494.59 58.2983 L3510.65 58.2983 L3510.65 73.4024 Q3516.38 64.6351 3524.1 60.2948 Q3531.91 55.9546 3542.07 55.9546 Q3558.82 55.9546 3567.42 66.3712 Q3576.01 76.701 3576.01 96.8398 Z" fill="#000000" fill-rule="nonzero" fill-opacity="1" /><path clip-path="url(#clip370)" d="M3671.84 105.781 Q3671.84 88.4197 3664.64 78.8711 Q3657.52 69.3225 3644.59 69.3225 Q3631.74 69.3225 3624.53 78.8711 Q3617.42 88.4197 3617.42 105.781 Q3617.42 123.055 3624.53 132.603 Q3631.74 142.152 3644.59 142.152 Q3657.52 142.152 3664.64 132.603 Q3671.84 123.055 3671.84 105.781 M3687.82 143.454 Q3687.82 168.28 3676.79 180.346 Q3665.77 192.499 3643.02 192.499 Q3634.6 192.499 3627.14 191.197 Q3619.67 189.982 3612.64 187.377 L3612.64 171.839 Q3619.67 175.659 3626.53 177.482 Q3633.39 179.305 3640.51 179.305 Q3656.22 179.305 3664.03 171.058 Q3671.84 162.898 3671.84 146.319 L3671.84 138.419 Q3666.9 147.013 3659.17 151.267 Q3651.44 155.52 3640.68 155.52 Q3622.8 155.52 3611.86 141.892 Q3600.92 128.263 3600.92 105.781 Q3600.92 83.2114 3611.86 69.583 Q3622.8 55.9546 3640.68 55.9546 Q3651.44 55.9546 3659.17 60.208 Q3666.9 64.4615 3671.84 73.0552 L3671.84 58.2983 L3687.82 58.2983 L3687.82 143.454 Z" fill="#000000" fill-rule="nonzero" fill-opacity="1" /><path clip-path="url(#clip370)" d="M3826.44 20.4513 L3826.44 33.7325 L3811.17 33.7325 Q3802.57 33.7325 3799.19 37.2047 Q3795.89 40.6769 3795.89 49.7046 L3795.89 58.2983 L3822.19 58.2983 L3822.19 70.7114 L3795.89 70.7114 L3795.89 155.52 L3779.83 155.52 L3779.83 70.7114 L3764.55 70.7114 L3764.55 58.2983 L3779.83 58.2983 L3779.83 51.5275 Q3779.83 35.2949 3787.38 27.9165 Q3794.93 20.4513 3811.34 20.4513 L3826.44 20.4513 Z" fill="#000000" fill-rule="nonzero" fill-opacity="1" /><path clip-path="url(#clip370)" d="M3896.15 73.2288 Q3893.46 71.6663 3890.25 70.9718 Q3887.12 70.1906 3883.3 70.1906 Q3869.76 70.1906 3862.47 79.0447 Q3855.26 87.812 3855.26 104.305 L3855.26 155.52 L3839.2 155.52 L3839.2 58.2983 L3855.26 58.2983 L3855.26 73.4024 Q3860.3 64.5483 3868.37 60.2948 Q3876.44 55.9546 3887.99 55.9546 Q3889.64 55.9546 3891.63 56.215 Q3893.63 56.3886 3896.06 56.8226 L3896.15 73.2288 Z" fill="#000000" fill-rule="nonzero" fill-opacity="1" /><path clip-path="url(#clip370)" d="M3992.15 102.916 L3992.15 110.729 L3918.72 110.729 Q3919.76 127.222 3928.61 135.902 Q3937.55 144.496 3953.44 144.496 Q3962.64 144.496 3971.23 142.239 Q3979.91 139.982 3988.42 135.468 L3988.42 150.572 Q3979.83 154.218 3970.8 156.128 Q3961.77 158.037 3952.48 158.037 Q3929.22 158.037 3915.59 144.496 Q3902.05 130.954 3902.05 107.864 Q3902.05 83.9926 3914.9 70.017 Q3927.83 55.9546 3949.71 55.9546 Q3969.32 55.9546 3980.7 68.6281 Q3992.15 81.2148 3992.15 102.916 M3976.18 98.2286 Q3976.01 85.1211 3968.8 77.3086 Q3961.69 69.4962 3949.88 69.4962 Q3936.51 69.4962 3928.44 77.0482 Q3920.45 84.6002 3919.24 98.3154 L3976.18 98.2286 Z" fill="#000000" fill-rule="nonzero" fill-opacity="1" /><path clip-path="url(#clip370)" d="M4101.53 102.916 L4101.53 110.729 L4028.09 110.729 Q4029.13 127.222 4037.99 135.902 Q4046.93 144.496 4062.81 144.496 Q4072.01 144.496 4080.61 142.239 Q4089.29 139.982 4097.8 135.468 L4097.8 150.572 Q4089.2 154.218 4080.17 156.128 Q4071.15 158.037 4061.86 158.037 Q4038.59 158.037 4024.97 144.496 Q4011.42 130.954 4011.42 107.864 Q4011.42 83.9926 4024.27 70.017 Q4037.21 55.9546 4059.08 55.9546 Q4078.7 55.9546 4090.07 68.6281 Q4101.53 81.2148 4101.53 102.916 M4085.56 98.2286 Q4085.38 85.1211 4078.18 77.3086 Q4071.06 69.4962 4059.25 69.4962 Q4045.89 69.4962 4037.81 77.0482 Q4029.83 84.6002 4028.61 98.3154 L4085.56 98.2286 Z" fill="#000000" fill-rule="nonzero" fill-opacity="1" /><path clip-path="url(#clip370)" d="M4120.8 58.2983 L4196.67 58.2983 L4196.67 72.8816 L4136.6 142.76 L4196.67 142.76 L4196.67 155.52 L4118.63 155.52 L4118.63 140.937 L4178.7 71.0586 L4120.8 71.0586 L4120.8 58.2983 Z" fill="#000000" fill-rule="nonzero" fill-opacity="1" /><path clip-path="url(#clip370)" d="M4221.06 58.2983 L4237.03 58.2983 L4237.03 155.52 L4221.06 155.52 L4221.06 58.2983 M4221.06 20.4513 L4237.03 20.4513 L4237.03 40.6769 L4221.06 40.6769 L4221.06 20.4513 Z" fill="#000000" fill-rule="nonzero" fill-opacity="1" /><path clip-path="url(#clip370)" d="M4351.27 96.8398 L4351.27 155.52 L4335.29 155.52 L4335.29 97.3606 Q4335.29 83.5586 4329.91 76.701 Q4324.53 69.8434 4313.77 69.8434 Q4300.83 69.8434 4293.37 78.0899 Q4285.9 86.3363 4285.9 100.572 L4285.9 155.52 L4269.84 155.52 L4269.84 58.2983 L4285.9 58.2983 L4285.9 73.4024 Q4291.63 64.6351 4299.36 60.2948 Q4307.17 55.9546 4317.33 55.9546 Q4334.08 55.9546 4342.67 66.3712 Q4351.27 76.701 4351.27 96.8398 Z" fill="#000000" fill-rule="nonzero" fill-opacity="1" /><path clip-path="url(#clip370)" d="M4447.1 105.781 Q4447.1 88.4197 4439.89 78.8711 Q4432.78 69.3225 4419.84 69.3225 Q4407 69.3225 4399.79 78.8711 Q4392.67 88.4197 4392.67 105.781 Q4392.67 123.055 4399.79 132.603 Q4407 142.152 4419.84 142.152 Q4432.78 142.152 4439.89 132.603 Q4447.1 123.055 4447.1 105.781 M4463.07 143.454 Q4463.07 168.28 4452.05 180.346 Q4441.02 192.499 4418.28 192.499 Q4409.86 192.499 4402.4 191.197 Q4394.93 189.982 4387.9 187.377 L4387.9 171.839 Q4394.93 175.659 4401.79 177.482 Q4408.65 179.305 4415.76 179.305 Q4431.47 179.305 4439.29 171.058 Q4447.1 162.898 4447.1 146.319 L4447.1 138.419 Q4442.15 147.013 4434.43 151.267 Q4426.7 155.52 4415.94 155.52 Q4398.05 155.52 4387.12 141.892 Q4376.18 128.263 4376.18 105.781 Q4376.18 83.2114 4387.12 69.583 Q4398.05 55.9546 4415.94 55.9546 Q4426.7 55.9546 4434.43 60.208 Q4442.15 64.4615 4447.1 73.0552 L4447.1 58.2983 L4463.07 58.2983 L4463.07 143.454 Z" fill="#000000" fill-rule="nonzero" fill-opacity="1" /><path clip-path="url(#clip370)" d="M4543.19 58.2983 L4559.17 58.2983 L4579.13 134.166 L4599.01 58.2983 L4617.85 58.2983 L4637.81 134.166 L4657.69 58.2983 L4673.66 58.2983 L4648.23 155.52 L4629.39 155.52 L4608.47 75.8329 L4587.46 155.52 L4568.63 155.52 L4543.19 58.2983 Z" fill="#000000" fill-rule="nonzero" fill-opacity="1" /><path clip-path="url(#clip370)" d="M4697.88 58.2983 L4713.85 58.2983 L4713.85 155.52 L4697.88 155.52 L4697.88 58.2983 M4697.88 20.4513 L4713.85 20.4513 L4713.85 40.6769 L4697.88 40.6769 L4697.88 20.4513 Z" fill="#000000" fill-rule="nonzero" fill-opacity="1" /><path clip-path="url(#clip370)" d="M4763.07 30.6943 L4763.07 58.2983 L4795.97 58.2983 L4795.97 70.7114 L4763.07 70.7114 L4763.07 123.489 Q4763.07 135.381 4766.28 138.767 Q4769.58 142.152 4779.56 142.152 L4795.97 142.152 L4795.97 155.52 L4779.56 155.52 Q4761.07 155.52 4754.04 148.662 Q4747.01 141.718 4747.01 123.489 L4747.01 70.7114 L4735.29 70.7114 L4735.29 58.2983 L4747.01 58.2983 L4747.01 30.6943 L4763.07 30.6943 Z" fill="#000000" fill-rule="nonzero" fill-opacity="1" /><path clip-path="url(#clip370)" d="M4897.79 96.8398 L4897.79 155.52 L4881.82 155.52 L4881.82 97.3606 Q4881.82 83.5586 4876.44 76.701 Q4871.06 69.8434 4860.29 69.8434 Q4847.36 69.8434 4839.89 78.0899 Q4832.43 86.3363 4832.43 100.572 L4832.43 155.52 L4816.37 155.52 L4816.37 20.4513 L4832.43 20.4513 L4832.43 73.4024 Q4838.16 64.6351 4845.88 60.2948 Q4853.69 55.9546 4863.85 55.9546 Q4880.6 55.9546 4889.2 66.3712 Q4897.79 76.701 4897.79 96.8398 Z" fill="#000000" fill-rule="nonzero" fill-opacity="1" /><path clip-path="url(#clip370)" d="M5056.12 62.0309 L5056.12 76.9614 Q5049.35 73.2288 5042.5 71.4059 Q5035.72 69.4962 5028.78 69.4962 Q5013.24 69.4962 5004.65 79.3919 Q4996.06 89.2009 4996.06 106.996 Q4996.06 124.791 5004.65 134.687 Q5013.24 144.496 5028.78 144.496 Q5035.72 144.496 5042.5 142.673 Q5049.35 140.763 5056.12 137.031 L5056.12 151.787 Q5049.44 154.912 5042.24 156.475 Q5035.12 158.037 5027.04 158.037 Q5005.08 158.037 4992.15 144.235 Q4979.21 130.433 4979.21 106.996 Q4979.21 83.2114 4992.24 69.583 Q5005.34 55.9546 5028.09 55.9546 Q5035.46 55.9546 5042.5 57.5171 Q5049.53 58.9927 5056.12 62.0309 Z" fill="#000000" fill-rule="nonzero" fill-opacity="1" /><path clip-path="url(#clip370)" d="M5121.58 69.4962 Q5108.73 69.4962 5101.26 79.5655 Q5093.8 89.5481 5093.8 106.996 Q5093.8 124.444 5101.18 134.513 Q5108.64 144.496 5121.58 144.496 Q5134.34 144.496 5141.8 134.426 Q5149.27 124.357 5149.27 106.996 Q5149.27 89.7217 5141.8 79.6524 Q5134.34 69.4962 5121.58 69.4962 M5121.58 55.9546 Q5142.41 55.9546 5154.3 69.4962 Q5166.19 83.0377 5166.19 106.996 Q5166.19 130.867 5154.3 144.496 Q5142.41 158.037 5121.58 158.037 Q5100.66 158.037 5088.76 144.496 Q5076.96 130.867 5076.96 106.996 Q5076.96 83.0377 5088.76 69.4962 Q5100.66 55.9546 5121.58 55.9546 Z" fill="#000000" fill-rule="nonzero" fill-opacity="1" /><path clip-path="url(#clip370)" d="M5273.48 96.8398 L5273.48 155.52 L5257.51 155.52 L5257.51 97.3606 Q5257.51 83.5586 5252.13 76.701 Q5246.75 69.8434 5235.98 69.8434 Q5223.05 69.8434 5215.59 78.0899 Q5208.12 86.3363 5208.12 100.572 L5208.12 155.52 L5192.06 155.52 L5192.06 58.2983 L5208.12 58.2983 L5208.12 73.4024 Q5213.85 64.6351 5221.57 60.2948 Q5229.39 55.9546 5239.54 55.9546 Q5256.3 55.9546 5264.89 66.3712 Q5273.48 76.701 5273.48 96.8398 Z" fill="#000000" fill-rule="nonzero" fill-opacity="1" /><path clip-path="url(#clip370)" d="M5367.32 61.1629 L5367.32 76.267 Q5360.55 72.7947 5353.26 71.0586 Q5345.97 69.3225 5338.15 69.3225 Q5326.26 69.3225 5320.27 72.9684 Q5314.37 76.6142 5314.37 83.9058 Q5314.37 89.4613 5318.62 92.6731 Q5322.88 95.7981 5335.72 98.6627 L5341.19 99.8779 Q5358.21 103.524 5365.32 110.208 Q5372.53 116.805 5372.53 128.697 Q5372.53 142.239 5361.76 150.138 Q5351.09 158.037 5332.34 158.037 Q5324.53 158.037 5316.02 156.475 Q5307.6 154.999 5298.22 151.961 L5298.22 135.468 Q5307.08 140.069 5315.67 142.412 Q5324.27 144.669 5332.69 144.669 Q5343.97 144.669 5350.05 140.85 Q5356.12 136.944 5356.12 129.912 Q5356.12 123.402 5351.7 119.93 Q5347.36 116.458 5332.51 113.246 L5326.96 111.944 Q5312.11 108.819 5305.52 102.395 Q5298.92 95.8849 5298.92 84.6002 Q5298.92 70.885 5308.64 63.4198 Q5318.36 55.9546 5336.24 55.9546 Q5345.1 55.9546 5352.91 57.2566 Q5360.72 58.5587 5367.32 61.1629 Z" fill="#000000" fill-rule="nonzero" fill-opacity="1" /><path clip-path="url(#clip370)" d="M5413.76 30.6943 L5413.76 58.2983 L5446.66 58.2983 L5446.66 70.7114 L5413.76 70.7114 L5413.76 123.489 Q5413.76 135.381 5416.97 138.767 Q5420.27 142.152 5430.25 142.152 L5446.66 142.152 L5446.66 155.52 L5430.25 155.52 Q5411.76 155.52 5404.73 148.662 Q5397.7 141.718 5397.7 123.489 L5397.7 70.7114 L5385.98 70.7114 L5385.98 58.2983 L5397.7 58.2983 L5397.7 30.6943 L5413.76 30.6943 Z" fill="#000000" fill-rule="nonzero" fill-opacity="1" /><path clip-path="url(#clip370)" d="M5511.85 106.649 Q5492.49 106.649 5485.03 111.076 Q5477.56 115.503 5477.56 126.18 Q5477.56 134.687 5483.12 139.721 Q5488.76 144.669 5498.4 144.669 Q5511.68 144.669 5519.66 135.294 Q5527.74 125.833 5527.74 110.208 L5527.74 106.649 L5511.85 106.649 M5543.71 100.052 L5543.71 155.52 L5527.74 155.52 L5527.74 140.763 Q5522.27 149.617 5514.11 153.871 Q5505.95 158.037 5494.14 158.037 Q5479.21 158.037 5470.36 149.704 Q5461.59 141.284 5461.59 127.222 Q5461.59 110.815 5472.53 102.482 Q5483.55 94.1488 5505.34 94.1488 L5527.74 94.1488 L5527.74 92.5863 Q5527.74 81.5621 5520.44 75.5725 Q5513.24 69.4962 5500.13 69.4962 Q5491.8 69.4962 5483.9 71.4927 Q5476 73.4892 5468.71 77.4822 L5468.71 62.7254 Q5477.48 59.34 5485.72 57.6907 Q5493.97 55.9546 5501.78 55.9546 Q5522.88 55.9546 5533.29 66.892 Q5543.71 77.8294 5543.71 100.052 Z" fill="#000000" fill-rule="nonzero" fill-opacity="1" /><path clip-path="url(#clip370)" d="M5657.42 96.8398 L5657.42 155.52 L5641.45 155.52 L5641.45 97.3606 Q5641.45 83.5586 5636.07 76.701 Q5630.69 69.8434 5619.92 69.8434 Q5606.99 69.8434 5599.52 78.0899 Q5592.06 86.3363 5592.06 100.572 L5592.06 155.52 L5576 155.52 L5576 58.2983 L5592.06 58.2983 L5592.06 73.4024 Q5597.79 64.6351 5605.51 60.2948 Q5613.33 55.9546 5623.48 55.9546 Q5640.24 55.9546 5648.83 66.3712 Q5657.42 76.701 5657.42 96.8398 Z" fill="#000000" fill-rule="nonzero" fill-opacity="1" /><path clip-path="url(#clip370)" d="M5705.08 30.6943 L5705.08 58.2983 L5737.98 58.2983 L5737.98 70.7114 L5705.08 70.7114 L5705.08 123.489 Q5705.08 135.381 5708.29 138.767 Q5711.59 142.152 5721.57 142.152 L5737.98 142.152 L5737.98 155.52 L5721.57 155.52 Q5703.08 155.52 5696.05 148.662 Q5689.02 141.718 5689.02 123.489 L5689.02 70.7114 L5677.3 70.7114 L5677.3 58.2983 L5689.02 58.2983 L5689.02 30.6943 L5705.08 30.6943 Z" fill="#000000" fill-rule="nonzero" fill-opacity="1" /><path clip-path="url(#clip370)" d="M5879.47 73.0552 L5879.47 20.4513 L5895.44 20.4513 L5895.44 155.52 L5879.47 155.52 L5879.47 140.937 Q5874.44 149.617 5866.71 153.871 Q5859.07 158.037 5848.31 158.037 Q5830.69 158.037 5819.57 143.975 Q5808.55 129.912 5808.55 106.996 Q5808.55 84.0794 5819.57 70.017 Q5830.69 55.9546 5848.31 55.9546 Q5859.07 55.9546 5866.71 60.208 Q5874.44 64.3747 5879.47 73.0552 M5825.04 106.996 Q5825.04 124.617 5832.25 134.687 Q5839.54 144.669 5852.21 144.669 Q5864.89 144.669 5872.18 134.687 Q5879.47 124.617 5879.47 106.996 Q5879.47 89.3745 5872.18 79.3919 Q5864.89 69.3225 5852.21 69.3225 Q5839.54 69.3225 5832.25 79.3919 Q5825.04 89.3745 5825.04 106.996 Z" fill="#000000" fill-rule="nonzero" fill-opacity="1" /><path clip-path="url(#clip370)" d="M6011.5 102.916 L6011.5 110.729 L5938.06 110.729 Q5939.11 127.222 5947.96 135.902 Q5956.9 144.496 5972.79 144.496 Q5981.99 144.496 5990.58 142.239 Q5999.26 139.982 6007.77 135.468 L6007.77 150.572 Q5999.17 154.218 5990.15 156.128 Q5981.12 158.037 5971.83 158.037 Q5948.57 158.037 5934.94 144.496 Q5921.4 130.954 5921.4 107.864 Q5921.4 83.9926 5934.24 70.017 Q5947.18 55.9546 5969.05 55.9546 Q5988.67 55.9546 6000.04 68.6281 Q6011.5 81.2148 6011.5 102.916 M5995.53 98.2286 Q5995.36 85.1211 5988.15 77.3086 Q5981.03 69.4962 5969.23 69.4962 Q5955.86 69.4962 5947.79 77.0482 Q5939.8 84.6002 5938.58 98.3154 L5995.53 98.2286 Z" fill="#000000" fill-rule="nonzero" fill-opacity="1" /><path clip-path="url(#clip370)" d="M6113.41 76.9614 Q6119.4 66.1976 6127.73 61.0761 Q6136.07 55.9546 6147.35 55.9546 Q6162.54 55.9546 6170.79 66.6316 Q6179.03 77.2218 6179.03 96.8398 L6179.03 155.52 L6162.98 155.52 L6162.98 97.3606 Q6162.98 83.385 6158.03 76.6142 Q6153.08 69.8434 6142.92 69.8434 Q6130.51 69.8434 6123.31 78.0899 Q6116.1 86.3363 6116.1 100.572 L6116.1 155.52 L6100.04 155.52 L6100.04 97.3606 Q6100.04 83.2982 6095.09 76.6142 Q6090.15 69.8434 6079.82 69.8434 Q6067.58 69.8434 6060.37 78.1767 Q6053.17 86.4231 6053.17 100.572 L6053.17 155.52 L6037.11 155.52 L6037.11 58.2983 L6053.17 58.2983 L6053.17 73.4024 Q6058.64 64.4615 6066.28 60.208 Q6073.91 55.9546 6084.42 55.9546 Q6095.01 55.9546 6102.39 61.3365 Q6109.85 66.7184 6113.41 76.9614 Z" fill="#000000" fill-rule="nonzero" fill-opacity="1" /><path clip-path="url(#clip370)" d="M6255.08 106.649 Q6235.72 106.649 6228.25 111.076 Q6220.79 115.503 6220.79 126.18 Q6220.79 134.687 6226.34 139.721 Q6231.99 144.669 6241.62 144.669 Q6254.9 144.669 6262.89 135.294 Q6270.96 125.833 6270.96 110.208 L6270.96 106.649 L6255.08 106.649 M6286.93 100.052 L6286.93 155.52 L6270.96 155.52 L6270.96 140.763 Q6265.49 149.617 6257.33 153.871 Q6249.17 158.037 6237.37 158.037 Q6222.44 158.037 6213.58 149.704 Q6204.82 141.284 6204.82 127.222 Q6204.82 110.815 6215.75 102.482 Q6226.78 94.1488 6248.57 94.1488 L6270.96 94.1488 L6270.96 92.5863 Q6270.96 81.5621 6263.67 75.5725 Q6256.46 69.4962 6243.36 69.4962 Q6235.02 69.4962 6227.12 71.4927 Q6219.23 73.4892 6211.93 77.4822 L6211.93 62.7254 Q6220.7 59.34 6228.95 57.6907 Q6237.19 55.9546 6245.01 55.9546 Q6266.1 55.9546 6276.52 66.892 Q6286.93 77.8294 6286.93 100.052 Z" fill="#000000" fill-rule="nonzero" fill-opacity="1" /><path clip-path="url(#clip370)" d="M6400.65 96.8398 L6400.65 155.52 L6384.68 155.52 L6384.68 97.3606 Q6384.68 83.5586 6379.29 76.701 Q6373.91 69.8434 6363.15 69.8434 Q6350.21 69.8434 6342.75 78.0899 Q6335.28 86.3363 6335.28 100.572 L6335.28 155.52 L6319.23 155.52 L6319.23 58.2983 L6335.28 58.2983 L6335.28 73.4024 Q6341.01 64.6351 6348.74 60.2948 Q6356.55 55.9546 6366.71 55.9546 Q6383.46 55.9546 6392.05 66.3712 Q6400.65 76.701 6400.65 96.8398 Z" fill="#000000" fill-rule="nonzero" fill-opacity="1" /><path clip-path="url(#clip370)" d="M6496.48 73.0552 L6496.48 20.4513 L6512.45 20.4513 L6512.45 155.52 L6496.48 155.52 L6496.48 140.937 Q6491.45 149.617 6483.72 153.871 Q6476.08 158.037 6465.32 158.037 Q6447.7 158.037 6436.59 143.975 Q6425.56 129.912 6425.56 106.996 Q6425.56 84.0794 6436.59 70.017 Q6447.7 55.9546 6465.32 55.9546 Q6476.08 55.9546 6483.72 60.208 Q6491.45 64.3747 6496.48 73.0552 M6442.05 106.996 Q6442.05 124.617 6449.26 134.687 Q6456.55 144.669 6469.22 144.669 Q6481.9 144.669 6489.19 134.687 Q6496.48 124.617 6496.48 106.996 Q6496.48 89.3745 6489.19 79.3919 Q6481.9 69.3225 6469.22 69.3225 Q6456.55 69.3225 6449.26 79.3919 Q6442.05 89.3745 6442.05 106.996 Z" fill="#000000" fill-rule="nonzero" fill-opacity="1" /><polyline clip-path="url(#clip372)" style="stroke:#009af9; stroke-linecap:round; stroke-linejoin:round; stroke-width:24; stroke-opacity:1; fill:none" points="838.964,521.528 850.796,601.813 862.628,682.099 874.459,762.384 886.291,842.67 898.123,922.955 909.954,1003.24 921.786,1083.53 933.618,1163.81 945.449,1244.1 957.281,1324.38 969.113,1404.67 980.944,1484.95 992.776,1565.24 1004.61,1645.52 1016.44,1725.81 1028.27,1806.1 1040.1,1886.38 1051.93,1966.67 1063.77,2046.95 1075.6,2127.24 1087.43,2207.52 1099.26,2287.81 1111.09,2310.56 1122.92,2333.31 1134.76,2339.5 1146.59,2344.47 1158.42,2348.62 1170.25,2352.2 1182.08,2355.34 1193.91,2358.14 1205.75,2360.67 1217.58,2362.99 1229.41,2365.12 1241.24,2367.11 1253.07,2368.96 1264.9,2370.69 1276.74,2372.33 1288.57,2373.89 1300.4,2375.36 1312.23,2376.77 1324.06,2378.11 1335.9,2379.39 1347.73,2380.63 1359.56,2381.82 1371.39,2382.97 1383.22,2384.07 1395.05,2385.14 1406.89,2386.18 1418.72,2387.18 1430.55,2388.16 1442.38,2389.11 1454.21,2390.03 1466.04,2390.93 1477.88,2391.81 1489.71,2392.67 1501.54,2393.5 1513.37,2394.32 1525.2,2395.12 1537.03,2395.9 1548.87,2396.67 1560.7,2397.42 1572.53,2398.15 1584.36,2398.88 1596.19,2399.59 1608.02,2400.28 1619.86,2400.97 1631.69,2401.64 1643.52,2402.3 1655.35,2402.95 1667.18,2403.6 1679.01,2404.23 1690.85,2404.85 1702.68,2405.46 1714.51,2406.07 1726.34,2406.66 1738.17,2407.25 1750,2407.83 1761.84,2408.4 1773.67,2408.97 1785.5,2409.53 1797.33,2410.08 1809.16,2410.62 1820.99,2411.16 1832.83,2411.7 1844.66,2412.22 1856.49,2412.74 1868.32,2413.26 1880.15,2413.77 1891.98,2414.27 1903.82,2414.77 1915.65,2415.27 1927.48,2415.76 1939.31,2416.24 1951.14,2416.72 1962.97,2417.2 1974.81,2417.67 1986.64,2418.13 1998.47,2418.6 2010.3,2419.06 2022.13,2419.51 2033.96,2419.96 2045.8,2420.41 2057.63,2420.86 2069.46,2421.3 2081.29,2421.73 2093.12,2422.17 2104.95,2422.6 2116.79,2423.03 2128.62,2423.45 2140.45,2423.87 2152.28,2424.29 2164.11,2424.7 2175.94,2425.12 2187.78,2425.53 2199.61,2425.93 2211.44,2426.34 2223.27,2426.74 2235.1,2427.14 2246.94,2427.54 2258.77,2427.93 2270.6,2428.32 2282.43,2428.71 2294.26,2429.1 2306.09,2429.48 2317.93,2429.87 2329.76,2430.25 2341.59,2430.63 2353.42,2431 2365.25,2431.38 2377.08,2431.75 2388.92,2432.12 2400.75,2432.49 2412.58,2432.86 2424.41,2433.22 2436.24,2433.58 2448.07,2433.95 2459.91,2434.3 2471.74,2434.66 2483.57,2435.02 2495.4,2435.37 2507.23,2435.73 2519.06,2436.08 2530.9,2436.43 2542.73,2436.78 2554.56,2437.12 2566.39,2437.47 2578.22,2437.81 2590.05,2438.16 2601.89,2438.5 2613.72,2438.84 2625.55,2439.18 2637.38,2439.52 2649.21,2439.85 2661.04,2440.19 2672.88,2440.52 2684.71,2440.85 2696.54,2441.18 2708.37,2441.52 2720.2,2441.84 2732.03,2442.17 2743.87,2442.5 2755.7,2442.83 2767.53,2443.15 2779.36,2443.47 2791.19,2443.8 2803.02,2444.12 2814.86,2444.44 2826.69,2444.76 2838.52,2445.08 2850.35,2445.4 2862.18,2445.71 2874.01,2446.03 2885.85,2446.34 2897.68,2446.66 2909.51,2446.97 2921.34,2447.28 2933.17,2447.6 2945,2447.91 2956.84,2448.22 2968.67,2448.53 2980.5,2448.84 2992.33,2449.14 3004.16,2449.45 3015.99,2449.76 3027.83,2450.06 3039.66,2450.37 3051.49,2450.67 3063.32,2450.98 3075.15,2451.28 3086.98,2451.58 3098.82,2451.89 3110.65,2452.19 3122.48,2452.49 3134.31,2452.79 3146.14,2453.09 3157.97,2453.39 3169.81,2453.68 3181.64,2453.98 3193.47,2454.28 3205.3,2454.58 3217.13,2454.87 3228.97,2455.17 3240.8,2455.47 3252.63,2455.76 3264.46,2456.06 3276.29,2456.35 3288.12,2456.64 3299.96,2456.94 3311.79,2457.23 3323.62,2457.52 3335.45,2457.81 3347.28,2458.11 3359.11,2458.4 3370.95,2458.69 3382.78,2458.98 3394.61,2459.27 3406.44,2459.56 3418.27,2459.85 3430.1,2460.14 3441.94,2460.43 3453.77,2460.72 3465.6,2461 3477.43,2461.29 3489.26,2461.58 3501.09,2461.87 3512.93,2462.16 3524.76,2462.44 3536.59,2462.73 3548.42,2463.02 3560.25,2463.3 3572.08,2463.59 3583.92,2463.87 3595.75,2464.16 3607.58,2464.45 3619.41,2464.73 3631.24,2465.02 3643.07,2465.3 3654.91,2465.59 3666.74,2465.87 3678.57,2466.16 3690.4,2466.44 3702.23,2466.73 3714.06,2467.01 3725.9,2467.3 3737.73,2467.58 3749.56,2467.87 3761.39,2468.15 3773.22,2468.43 3785.05,2468.72 3796.89,2469 3808.72,2469.29 3820.55,2469.57 3832.38,2469.85 3844.21,2470.14 3856.04,2470.42 3867.88,2470.71 3879.71,2470.99 3891.54,2471.28 3903.37,2471.56 3915.2,2471.84 3927.03,2472.13 3938.87,2472.41 3950.7,2472.7 3962.53,2472.98 3974.36,2473.27 3986.19,2473.55 3998.02,2473.84 4009.86,2474.12 4021.69,2474.41 4033.52,2474.69 4045.35,2474.98 4057.18,2475.26 4069.01,2475.55 4080.85,2475.83 4092.68,2476.12 4104.51,2476.41 4116.34,2476.69 4128.17,2476.98 4140.01,2477.26 4151.84,2477.55 4163.67,2477.84 4175.5,2478.13 4187.33,2478.41 4199.16,2478.7 4211,2478.99 4222.83,2479.28 4234.66,2479.57 4246.49,2479.86 4258.32,2480.15 4270.15,2480.44 4281.99,2480.73 4293.82,2481.02 4305.65,2481.31 4317.48,2481.6 4329.31,2481.89 4341.14,2482.18 4352.98,2482.47 4364.81,2482.77 4376.64,2483.06 4388.47,2483.35 4400.3,2483.65 4412.13,2483.94 4423.97,2484.24 4435.8,2484.53 4447.63,2484.83 4459.46,2485.12 4471.29,2485.42 4483.12,2485.72 4494.96,2486.02 4506.79,2486.31 4518.62,2486.61 4530.45,2486.91 4542.28,2487.21 4554.11,2487.51 4565.95,2487.81 4577.78,2488.11 4589.61,2488.42 4601.44,2488.72 4613.27,2489.02 4625.1,2489.33 4636.94,2489.63 4648.77,2489.94 4660.6,2490.24 4672.43,2490.55 4684.26,2490.86 4696.09,2491.17 4707.93,2491.48 4719.76,2491.79 4731.59,2492.1 4743.42,2492.41 4755.25,2492.72 4767.08,2493.03 4778.92,2493.35 4790.75,2493.66 4802.58,2493.98 4814.41,2494.29 4826.24,2494.61 4838.07,2494.93 4849.91,2495.25 4861.74,2495.57 4873.57,2495.89 4885.4,2496.21 4897.23,2496.54 4909.06,2496.86 4920.9,2497.19 4932.73,2497.51 4944.56,2497.84 4956.39,2498.17 4968.22,2498.5 4980.05,2498.83 4991.89,2499.16 5003.72,2499.49 5015.55,2499.83 5027.38,2500.16 5039.21,2500.5 5051.05,2500.84 5062.88,2501.18 5074.71,2501.52 5086.54,2501.86 5098.37,2502.21 5110.2,2502.55 5122.04,2502.9 5133.87,2503.24 5145.7,2503.59 5157.53,2503.95 5169.36,2504.3 5181.19,2504.65 5193.03,2505.01 5204.86,2505.36 5216.69,2505.72 5228.52,2506.08 5240.35,2506.45 5252.18,2506.81 5264.02,2507.18 5275.85,2507.55 5287.68,2507.92 5299.51,2508.29 5311.34,2508.66 5323.17,2509.04 5335.01,2509.41 5346.84,2509.79 5358.67,2510.18 5370.5,2510.56 5382.33,2510.95 5394.16,2511.34 5406,2511.73 5417.83,2512.12 5429.66,2512.52 5441.49,2512.92 5453.32,2513.32 5465.15,2513.72 5476.99,2514.13 5488.82,2514.54 5500.65,2514.95 5512.48,2515.36 5524.31,2515.78 5536.14,2516.2 5547.98,2516.62 5559.81,2517.05 5571.64,2517.48 5583.47,2517.91 5595.3,2518.35 5607.13,2518.79 5618.97,2519.23 5630.8,2519.68 5642.63,2520.13 5654.46,2520.58 5666.29,2521.04 5678.12,2521.51 5689.96,2521.97 5701.79,2522.44 5713.62,2522.92 5725.45,2523.4 5737.28,2523.88 5749.11,2524.37 5760.95,2524.87 5772.78,2525.36 5784.61,2525.87 5796.44,2526.38 5808.27,2526.89 5820.1,2527.41 5831.94,2527.94 5843.77,2528.47 5855.6,2529.01 5867.43,2529.56 5879.26,2530.11 5891.09,2530.67 5902.93,2531.23 5914.76,2531.8 5926.59,2532.39 5938.42,2532.97 5950.25,2533.57 5962.09,2534.18 5973.92,2534.79 5985.75,2535.41 5997.58,2536.05 6009.41,2536.69 6021.24,2537.34 6033.08,2538.01 6044.91,2538.68 6056.74,2539.37 6068.57,2540.07 6080.4,2540.78 6092.23,2541.51 6104.07,2542.25 6115.9,2543.01 6127.73,2543.78 6139.56,2544.57 6151.39,2545.37 6163.22,2546.2 6175.06,2547.04 6186.89,2547.91 6198.72,2548.8 6210.55,2549.71 6222.38,2550.65 6234.21,2551.61 6246.05,2552.6 6257.88,2553.63 6269.71,2554.69 6281.54,2555.78 6293.37,2556.92 6305.2,2558.1 6317.04,2559.32 6328.87,2560.6 6340.7,2561.94 6352.53,2563.34 6364.36,2564.82 6376.19,2566.37 6388.03,2568.02 6399.86,2569.78 6411.69,2571.66 6423.52,2573.69 6435.35,2575.89 6447.18,2578.31 6459.02,2581 6470.85,2584.04 6482.68,2587.55 6494.51,2591.74 6506.34,2596.99 6518.17,2604.27 6530.01,2611.54 6541.84,2691.83 6553.67,2772.11 6565.5,2852.4 6577.33,2932.68 6589.16,3012.97 6601,3093.25 6612.83,3173.54 6624.66,3253.82 6636.49,3334.11 6648.32,3414.4 6660.15,3494.68 6671.99,3574.97 6683.82,3655.25 6695.65,3735.54 6707.48,3815.82 6719.31,3896.11 6731.14,3976.39 6742.98,4056.68 6754.81,4136.96 "/>
</svg>
