<?xml version="1.0" encoding="utf-8"?>
<svg xmlns="http://www.w3.org/2000/svg" xmlns:xlink="http://www.w3.org/1999/xlink" width="600" height="400" viewBox="0 0 2400 1600">
<defs>
  <clipPath id="clip710">
    <rect x="0" y="0" width="2400" height="1600"/>
  </clipPath>
</defs>
<path clip-path="url(#clip710)" d="M0 1600 L2400 1600 L2400 0 L0 0  Z" fill="#ffffff" fill-rule="evenodd" fill-opacity="1"/>
<defs>
  <clipPath id="clip711">
    <rect x="480" y="0" width="1681" height="1600"/>
  </clipPath>
</defs>
<path clip-path="url(#clip710)" d="M369.518 1423.18 L2352.76 1423.18 L2352.76 123.472 L369.518 123.472  Z" fill="#ffffff" fill-rule="evenodd" fill-opacity="1"/>
<defs>
  <clipPath id="clip712">
    <rect x="369" y="123" width="1984" height="1301"/>
  </clipPath>
</defs>
<polyline clip-path="url(#clip712)" style="stroke:#000000; stroke-linecap:round; stroke-linejoin:round; stroke-width:2; stroke-opacity:0.1; fill:none" points="612.746,1423.18 612.746,123.472 "/>
<polyline clip-path="url(#clip712)" style="stroke:#000000; stroke-linecap:round; stroke-linejoin:round; stroke-width:2; stroke-opacity:0.1; fill:none" points="986.941,1423.18 986.941,123.472 "/>
<polyline clip-path="url(#clip712)" style="stroke:#000000; stroke-linecap:round; stroke-linejoin:round; stroke-width:2; stroke-opacity:0.1; fill:none" points="1361.14,1423.18 1361.14,123.472 "/>
<polyline clip-path="url(#clip712)" style="stroke:#000000; stroke-linecap:round; stroke-linejoin:round; stroke-width:2; stroke-opacity:0.1; fill:none" points="1735.33,1423.18 1735.33,123.472 "/>
<polyline clip-path="url(#clip712)" style="stroke:#000000; stroke-linecap:round; stroke-linejoin:round; stroke-width:2; stroke-opacity:0.1; fill:none" points="2109.53,1423.18 2109.53,123.472 "/>
<polyline clip-path="url(#clip710)" style="stroke:#000000; stroke-linecap:round; stroke-linejoin:round; stroke-width:4; stroke-opacity:1; fill:none" points="369.518,1423.18 2352.76,1423.18 "/>
<polyline clip-path="url(#clip710)" style="stroke:#000000; stroke-linecap:round; stroke-linejoin:round; stroke-width:4; stroke-opacity:1; fill:none" points="612.746,1423.18 612.746,1404.28 "/>
<polyline clip-path="url(#clip710)" style="stroke:#000000; stroke-linecap:round; stroke-linejoin:round; stroke-width:4; stroke-opacity:1; fill:none" points="986.941,1423.18 986.941,1404.28 "/>
<polyline clip-path="url(#clip710)" style="stroke:#000000; stroke-linecap:round; stroke-linejoin:round; stroke-width:4; stroke-opacity:1; fill:none" points="1361.14,1423.18 1361.14,1404.28 "/>
<polyline clip-path="url(#clip710)" style="stroke:#000000; stroke-linecap:round; stroke-linejoin:round; stroke-width:4; stroke-opacity:1; fill:none" points="1735.33,1423.18 1735.33,1404.28 "/>
<polyline clip-path="url(#clip710)" style="stroke:#000000; stroke-linecap:round; stroke-linejoin:round; stroke-width:4; stroke-opacity:1; fill:none" points="2109.53,1423.18 2109.53,1404.28 "/>
<path clip-path="url(#clip710)" d="M581.646 1468.75 L611.322 1468.75 L611.322 1472.69 L581.646 1472.69 L581.646 1468.75 Z" fill="#000000" fill-rule="nonzero" fill-opacity="1" /><path clip-path="url(#clip710)" d="M634.262 1455.09 L622.456 1473.54 L634.262 1473.54 L634.262 1455.09 M633.035 1451.02 L638.914 1451.02 L638.914 1473.54 L643.845 1473.54 L643.845 1477.43 L638.914 1477.43 L638.914 1485.58 L634.262 1485.58 L634.262 1477.43 L618.66 1477.43 L618.66 1472.92 L633.035 1451.02 Z" fill="#000000" fill-rule="nonzero" fill-opacity="1" /><path clip-path="url(#clip710)" d="M956.884 1468.75 L986.559 1468.75 L986.559 1472.69 L956.884 1472.69 L956.884 1468.75 Z" fill="#000000" fill-rule="nonzero" fill-opacity="1" /><path clip-path="url(#clip710)" d="M1000.68 1481.64 L1017 1481.64 L1017 1485.58 L995.055 1485.58 L995.055 1481.64 Q997.717 1478.89 1002.3 1474.26 Q1006.91 1469.61 1008.09 1468.27 Q1010.33 1465.74 1011.21 1464.01 Q1012.11 1462.25 1012.11 1460.56 Q1012.11 1457.8 1010.17 1456.07 Q1008.25 1454.33 1005.15 1454.33 Q1002.95 1454.33 1000.49 1455.09 Q998.064 1455.86 995.286 1457.41 L995.286 1452.69 Q998.11 1451.55 1000.56 1450.97 Q1003.02 1450.39 1005.05 1450.39 Q1010.42 1450.39 1013.62 1453.08 Q1016.81 1455.77 1016.81 1460.26 Q1016.81 1462.39 1016 1464.31 Q1015.22 1466.2 1013.11 1468.8 Q1012.53 1469.47 1009.43 1472.69 Q1006.33 1475.88 1000.68 1481.64 Z" fill="#000000" fill-rule="nonzero" fill-opacity="1" /><path clip-path="url(#clip710)" d="M1361.14 1454.1 Q1357.53 1454.1 1355.7 1457.66 Q1353.89 1461.2 1353.89 1468.33 Q1353.89 1475.44 1355.7 1479.01 Q1357.53 1482.55 1361.14 1482.55 Q1364.77 1482.55 1366.58 1479.01 Q1368.41 1475.44 1368.41 1468.33 Q1368.41 1461.2 1366.58 1457.66 Q1364.77 1454.1 1361.14 1454.1 M1361.14 1450.39 Q1366.95 1450.39 1370 1455 Q1373.08 1459.58 1373.08 1468.33 Q1373.08 1477.06 1370 1481.67 Q1366.95 1486.25 1361.14 1486.25 Q1355.33 1486.25 1352.25 1481.67 Q1349.19 1477.06 1349.19 1468.33 Q1349.19 1459.58 1352.25 1455 Q1355.33 1450.39 1361.14 1450.39 Z" fill="#000000" fill-rule="nonzero" fill-opacity="1" /><path clip-path="url(#clip710)" d="M1729.99 1481.64 L1746.31 1481.64 L1746.31 1485.58 L1724.36 1485.58 L1724.36 1481.64 Q1727.02 1478.89 1731.61 1474.26 Q1736.21 1469.61 1737.39 1468.27 Q1739.64 1465.74 1740.52 1464.01 Q1741.42 1462.25 1741.42 1460.56 Q1741.42 1457.8 1739.48 1456.07 Q1737.56 1454.33 1734.45 1454.33 Q1732.25 1454.33 1729.8 1455.09 Q1727.37 1455.86 1724.59 1457.41 L1724.59 1452.69 Q1727.42 1451.55 1729.87 1450.97 Q1732.32 1450.39 1734.36 1450.39 Q1739.73 1450.39 1742.93 1453.08 Q1746.12 1455.77 1746.12 1460.26 Q1746.12 1462.39 1745.31 1464.31 Q1744.52 1466.2 1742.42 1468.8 Q1741.84 1469.47 1738.74 1472.69 Q1735.63 1475.88 1729.99 1481.64 Z" fill="#000000" fill-rule="nonzero" fill-opacity="1" /><path clip-path="url(#clip710)" d="M2112.54 1455.09 L2100.73 1473.54 L2112.54 1473.54 L2112.54 1455.09 M2111.31 1451.02 L2117.19 1451.02 L2117.19 1473.54 L2122.12 1473.54 L2122.12 1477.43 L2117.19 1477.43 L2117.19 1485.58 L2112.54 1485.58 L2112.54 1477.43 L2096.94 1477.43 L2096.94 1472.92 L2111.31 1451.02 Z" fill="#000000" fill-rule="nonzero" fill-opacity="1" /><path clip-path="url(#clip710)" d="M1082.54 1520.52 L1122.74 1520.52 L1122.74 1525.93 L1105.87 1525.93 L1105.87 1568.04 L1099.41 1568.04 L1099.41 1525.93 L1082.54 1525.93 L1082.54 1520.52 Z" fill="#000000" fill-rule="nonzero" fill-opacity="1" /><path clip-path="url(#clip710)" d="M1148.11 1548.76 L1148.11 1551.62 L1121.18 1551.62 Q1121.56 1557.67 1124.81 1560.85 Q1128.09 1564 1133.91 1564 Q1137.29 1564 1140.44 1563.17 Q1143.62 1562.35 1146.74 1560.69 L1146.74 1566.23 Q1143.59 1567.57 1140.28 1568.27 Q1136.97 1568.97 1133.56 1568.97 Q1125.03 1568.97 1120.04 1564 Q1115.07 1559.04 1115.07 1550.57 Q1115.07 1541.82 1119.78 1536.69 Q1124.52 1531.54 1132.54 1531.54 Q1139.74 1531.54 1143.91 1536.18 Q1148.11 1540.8 1148.11 1548.76 M1142.25 1547.04 Q1142.19 1542.23 1139.55 1539.37 Q1136.94 1536.5 1132.61 1536.5 Q1127.71 1536.5 1124.75 1539.27 Q1121.82 1542.04 1121.37 1547.07 L1142.25 1547.04 Z" fill="#000000" fill-rule="nonzero" fill-opacity="1" /><path clip-path="url(#clip710)" d="M1185.48 1539.24 Q1187.67 1535.29 1190.73 1533.41 Q1193.78 1531.54 1197.92 1531.54 Q1203.49 1531.54 1206.51 1535.45 Q1209.54 1539.33 1209.54 1546.53 L1209.54 1568.04 L1203.65 1568.04 L1203.65 1546.72 Q1203.65 1541.59 1201.84 1539.11 Q1200.02 1536.63 1196.3 1536.63 Q1191.75 1536.63 1189.1 1539.65 Q1186.46 1542.68 1186.46 1547.9 L1186.46 1568.04 L1180.57 1568.04 L1180.57 1546.72 Q1180.57 1541.56 1178.76 1539.11 Q1176.95 1536.63 1173.16 1536.63 Q1168.67 1536.63 1166.03 1539.68 Q1163.39 1542.71 1163.39 1547.9 L1163.39 1568.04 L1157.5 1568.04 L1157.5 1532.4 L1163.39 1532.4 L1163.39 1537.93 Q1165.39 1534.66 1168.19 1533.1 Q1170.99 1531.54 1174.84 1531.54 Q1178.73 1531.54 1181.43 1533.51 Q1184.17 1535.48 1185.48 1539.24 Z" fill="#000000" fill-rule="nonzero" fill-opacity="1" /><path clip-path="url(#clip710)" d="M1226.88 1562.7 L1226.88 1581.6 L1221 1581.6 L1221 1532.4 L1226.88 1532.4 L1226.88 1537.81 Q1228.73 1534.62 1231.53 1533.1 Q1234.36 1531.54 1238.28 1531.54 Q1244.77 1531.54 1248.81 1536.69 Q1252.89 1541.85 1252.89 1550.25 Q1252.89 1558.65 1248.81 1563.81 Q1244.77 1568.97 1238.28 1568.97 Q1234.36 1568.97 1231.53 1567.44 Q1228.73 1565.88 1226.88 1562.7 M1246.81 1550.25 Q1246.81 1543.79 1244.14 1540.13 Q1241.49 1536.44 1236.85 1536.44 Q1232.2 1536.44 1229.53 1540.13 Q1226.88 1543.79 1226.88 1550.25 Q1226.88 1556.71 1229.53 1560.4 Q1232.2 1564.07 1236.85 1564.07 Q1241.49 1564.07 1244.14 1560.4 Q1246.81 1556.71 1246.81 1550.25 Z" fill="#000000" fill-rule="nonzero" fill-opacity="1" /><path clip-path="url(#clip710)" d="M1293.09 1548.76 L1293.09 1551.62 L1266.16 1551.62 Q1266.54 1557.67 1269.79 1560.85 Q1273.07 1564 1278.89 1564 Q1282.27 1564 1285.42 1563.17 Q1288.6 1562.35 1291.72 1560.69 L1291.72 1566.23 Q1288.57 1567.57 1285.26 1568.27 Q1281.95 1568.97 1278.54 1568.97 Q1270.01 1568.97 1265.01 1564 Q1260.05 1559.04 1260.05 1550.57 Q1260.05 1541.82 1264.76 1536.69 Q1269.5 1531.54 1277.52 1531.54 Q1284.72 1531.54 1288.89 1536.18 Q1293.09 1540.8 1293.09 1548.76 M1287.23 1547.04 Q1287.17 1542.23 1284.53 1539.37 Q1281.92 1536.5 1277.59 1536.5 Q1272.69 1536.5 1269.73 1539.27 Q1266.8 1542.04 1266.35 1547.07 L1287.23 1547.04 Z" fill="#000000" fill-rule="nonzero" fill-opacity="1" /><path clip-path="url(#clip710)" d="M1323.36 1537.87 Q1322.37 1537.3 1321.19 1537.04 Q1320.05 1536.76 1318.65 1536.76 Q1313.68 1536.76 1311.01 1540 Q1308.37 1543.22 1308.37 1549.27 L1308.37 1568.04 L1302.48 1568.04 L1302.48 1532.4 L1308.37 1532.4 L1308.37 1537.93 Q1310.21 1534.69 1313.17 1533.13 Q1316.13 1531.54 1320.36 1531.54 Q1320.97 1531.54 1321.7 1531.63 Q1322.43 1531.7 1323.32 1531.85 L1323.36 1537.87 Z" fill="#000000" fill-rule="nonzero" fill-opacity="1" /><path clip-path="url(#clip710)" d="M1345.7 1550.12 Q1338.6 1550.12 1335.87 1551.75 Q1333.13 1553.37 1333.13 1557.29 Q1333.13 1560.4 1335.16 1562.25 Q1337.23 1564.07 1340.77 1564.07 Q1345.64 1564.07 1348.56 1560.63 Q1351.52 1557.16 1351.52 1551.43 L1351.52 1550.12 L1345.7 1550.12 M1357.38 1547.71 L1357.38 1568.04 L1351.52 1568.04 L1351.52 1562.63 Q1349.52 1565.88 1346.53 1567.44 Q1343.54 1568.97 1339.21 1568.97 Q1333.73 1568.97 1330.49 1565.91 Q1327.27 1562.82 1327.27 1557.67 Q1327.27 1551.65 1331.28 1548.6 Q1335.32 1545.54 1343.31 1545.54 L1351.52 1545.54 L1351.52 1544.97 Q1351.52 1540.93 1348.85 1538.73 Q1346.21 1536.5 1341.4 1536.5 Q1338.35 1536.5 1335.45 1537.23 Q1332.56 1537.97 1329.88 1539.43 L1329.88 1534.02 Q1333.1 1532.78 1336.12 1532.17 Q1339.14 1531.54 1342.01 1531.54 Q1349.74 1531.54 1353.56 1535.55 Q1357.38 1539.56 1357.38 1547.71 Z" fill="#000000" fill-rule="nonzero" fill-opacity="1" /><path clip-path="url(#clip710)" d="M1375.24 1522.27 L1375.24 1532.4 L1387.3 1532.4 L1387.3 1536.95 L1375.24 1536.95 L1375.24 1556.3 Q1375.24 1560.66 1376.41 1561.9 Q1377.62 1563.14 1381.28 1563.14 L1387.3 1563.14 L1387.3 1568.04 L1381.28 1568.04 Q1374.51 1568.04 1371.93 1565.53 Q1369.35 1562.98 1369.35 1556.3 L1369.35 1536.95 L1365.05 1536.95 L1365.05 1532.4 L1369.35 1532.4 L1369.35 1522.27 L1375.24 1522.27 Z" fill="#000000" fill-rule="nonzero" fill-opacity="1" /><path clip-path="url(#clip710)" d="M1394.4 1553.98 L1394.4 1532.4 L1400.25 1532.4 L1400.25 1553.75 Q1400.25 1558.81 1402.23 1561.36 Q1404.2 1563.87 1408.15 1563.87 Q1412.89 1563.87 1415.63 1560.85 Q1418.4 1557.83 1418.4 1552.61 L1418.4 1532.4 L1424.25 1532.4 L1424.25 1568.04 L1418.4 1568.04 L1418.4 1562.57 Q1416.26 1565.82 1413.43 1567.41 Q1410.63 1568.97 1406.91 1568.97 Q1400.76 1568.97 1397.58 1565.15 Q1394.4 1561.33 1394.4 1553.98 M1409.13 1531.54 L1409.13 1531.54 Z" fill="#000000" fill-rule="nonzero" fill-opacity="1" /><path clip-path="url(#clip710)" d="M1456.97 1537.87 Q1455.99 1537.3 1454.81 1537.04 Q1453.66 1536.76 1452.26 1536.76 Q1447.3 1536.76 1444.62 1540 Q1441.98 1543.22 1441.98 1549.27 L1441.98 1568.04 L1436.09 1568.04 L1436.09 1532.4 L1441.98 1532.4 L1441.98 1537.93 Q1443.83 1534.69 1446.79 1533.13 Q1449.75 1531.54 1453.98 1531.54 Q1454.59 1531.54 1455.32 1531.63 Q1456.05 1531.7 1456.94 1531.85 L1456.97 1537.87 Z" fill="#000000" fill-rule="nonzero" fill-opacity="1" /><path clip-path="url(#clip710)" d="M1492.18 1548.76 L1492.18 1551.62 L1465.25 1551.62 Q1465.63 1557.67 1468.88 1560.85 Q1472.15 1564 1477.98 1564 Q1481.35 1564 1484.5 1563.17 Q1487.69 1562.35 1490.81 1560.69 L1490.81 1566.23 Q1487.66 1567.57 1484.35 1568.27 Q1481.04 1568.97 1477.63 1568.97 Q1469.1 1568.97 1464.1 1564 Q1459.14 1559.04 1459.14 1550.57 Q1459.14 1541.82 1463.85 1536.69 Q1468.59 1531.54 1476.61 1531.54 Q1483.8 1531.54 1487.97 1536.18 Q1492.18 1540.8 1492.18 1548.76 M1486.32 1547.04 Q1486.26 1542.23 1483.61 1539.37 Q1481 1536.5 1476.67 1536.5 Q1471.77 1536.5 1468.81 1539.27 Q1465.88 1542.04 1465.44 1547.07 L1486.32 1547.04 Z" fill="#000000" fill-rule="nonzero" fill-opacity="1" /><path clip-path="url(#clip710)" d="M1521.97 1518.52 L1535.46 1518.52 L1535.46 1523.07 L1527.82 1523.07 L1527.82 1572.09 L1535.46 1572.09 L1535.46 1576.64 L1521.97 1576.64 L1521.97 1518.52 Z" fill="#000000" fill-rule="nonzero" fill-opacity="1" /><path clip-path="url(#clip710)" d="M1558.09 1523.77 Q1555.55 1523.77 1553.8 1525.55 Q1552.04 1527.3 1552.04 1529.85 Q1552.04 1532.36 1553.8 1534.11 Q1555.55 1535.83 1558.09 1535.83 Q1560.64 1535.83 1562.39 1534.11 Q1564.14 1532.36 1564.14 1529.85 Q1564.14 1527.34 1562.36 1525.55 Q1560.61 1523.77 1558.09 1523.77 M1558.09 1519.66 Q1560.13 1519.66 1562.01 1520.46 Q1563.88 1521.22 1565.25 1522.69 Q1566.72 1524.12 1567.45 1525.93 Q1568.18 1527.75 1568.18 1529.85 Q1568.18 1534.05 1565.22 1536.98 Q1562.29 1539.88 1558.03 1539.88 Q1553.73 1539.88 1550.87 1537.01 Q1548 1534.15 1548 1529.85 Q1548 1525.58 1550.93 1522.62 Q1553.86 1519.66 1558.09 1519.66 Z" fill="#000000" fill-rule="nonzero" fill-opacity="1" /><path clip-path="url(#clip710)" d="M1616.37 1524.18 L1616.37 1530.96 Q1613.12 1527.94 1609.43 1526.44 Q1605.77 1524.95 1601.63 1524.95 Q1593.49 1524.95 1589.16 1529.95 Q1584.83 1534.91 1584.83 1544.33 Q1584.83 1553.72 1589.16 1558.72 Q1593.49 1563.68 1601.63 1563.68 Q1605.77 1563.68 1609.43 1562.19 Q1613.12 1560.69 1616.37 1557.67 L1616.37 1564.38 Q1613 1566.68 1609.21 1567.82 Q1605.45 1568.97 1601.25 1568.97 Q1590.46 1568.97 1584.26 1562.38 Q1578.05 1555.76 1578.05 1544.33 Q1578.05 1532.87 1584.26 1526.28 Q1590.46 1519.66 1601.25 1519.66 Q1605.52 1519.66 1609.27 1520.81 Q1613.06 1521.92 1616.37 1524.18 Z" fill="#000000" fill-rule="nonzero" fill-opacity="1" /><path clip-path="url(#clip710)" d="M1639.73 1518.52 L1639.73 1576.64 L1626.24 1576.64 L1626.24 1572.09 L1633.84 1572.09 L1633.84 1523.07 L1626.24 1523.07 L1626.24 1518.52 L1639.73 1518.52 Z" fill="#000000" fill-rule="nonzero" fill-opacity="1" /><polyline clip-path="url(#clip712)" style="stroke:#000000; stroke-linecap:round; stroke-linejoin:round; stroke-width:2; stroke-opacity:0.1; fill:none" points="369.518,1390.75 2352.76,1390.75 "/>
<polyline clip-path="url(#clip712)" style="stroke:#000000; stroke-linecap:round; stroke-linejoin:round; stroke-width:2; stroke-opacity:0.1; fill:none" points="369.518,1134.63 2352.76,1134.63 "/>
<polyline clip-path="url(#clip712)" style="stroke:#000000; stroke-linecap:round; stroke-linejoin:round; stroke-width:2; stroke-opacity:0.1; fill:none" points="369.518,878.513 2352.76,878.513 "/>
<polyline clip-path="url(#clip712)" style="stroke:#000000; stroke-linecap:round; stroke-linejoin:round; stroke-width:2; stroke-opacity:0.1; fill:none" points="369.518,622.395 2352.76,622.395 "/>
<polyline clip-path="url(#clip712)" style="stroke:#000000; stroke-linecap:round; stroke-linejoin:round; stroke-width:2; stroke-opacity:0.1; fill:none" points="369.518,366.277 2352.76,366.277 "/>
<polyline clip-path="url(#clip710)" style="stroke:#000000; stroke-linecap:round; stroke-linejoin:round; stroke-width:4; stroke-opacity:1; fill:none" points="369.518,1423.18 369.518,123.472 "/>
<polyline clip-path="url(#clip710)" style="stroke:#000000; stroke-linecap:round; stroke-linejoin:round; stroke-width:4; stroke-opacity:1; fill:none" points="369.518,1390.75 388.416,1390.75 "/>
<polyline clip-path="url(#clip710)" style="stroke:#000000; stroke-linecap:round; stroke-linejoin:round; stroke-width:4; stroke-opacity:1; fill:none" points="369.518,1134.63 388.416,1134.63 "/>
<polyline clip-path="url(#clip710)" style="stroke:#000000; stroke-linecap:round; stroke-linejoin:round; stroke-width:4; stroke-opacity:1; fill:none" points="369.518,878.513 388.416,878.513 "/>
<polyline clip-path="url(#clip710)" style="stroke:#000000; stroke-linecap:round; stroke-linejoin:round; stroke-width:4; stroke-opacity:1; fill:none" points="369.518,622.395 388.416,622.395 "/>
<polyline clip-path="url(#clip710)" style="stroke:#000000; stroke-linecap:round; stroke-linejoin:round; stroke-width:4; stroke-opacity:1; fill:none" points="369.518,366.277 388.416,366.277 "/>
<path clip-path="url(#clip710)" d="M321.574 1376.55 Q317.963 1376.55 316.134 1380.11 Q314.329 1383.65 314.329 1390.78 Q314.329 1397.89 316.134 1401.46 Q317.963 1405 321.574 1405 Q325.208 1405 327.014 1401.46 Q328.842 1397.89 328.842 1390.78 Q328.842 1383.65 327.014 1380.11 Q325.208 1376.55 321.574 1376.55 M321.574 1372.84 Q327.384 1372.84 330.44 1377.45 Q333.518 1382.03 333.518 1390.78 Q333.518 1399.51 330.44 1404.12 Q327.384 1408.7 321.574 1408.7 Q315.764 1408.7 312.685 1404.12 Q309.629 1399.51 309.629 1390.78 Q309.629 1382.03 312.685 1377.45 Q315.764 1372.84 321.574 1372.84 Z" fill="#000000" fill-rule="nonzero" fill-opacity="1" /><path clip-path="url(#clip710)" d="M115.718 1123.8 L134.075 1123.8 L134.075 1127.73 L120.001 1127.73 L120.001 1136.21 Q121.019 1135.86 122.038 1135.7 Q123.056 1135.51 124.075 1135.51 Q129.862 1135.51 133.242 1138.68 Q136.621 1141.85 136.621 1147.27 Q136.621 1152.85 133.149 1155.95 Q129.677 1159.03 123.357 1159.03 Q121.181 1159.03 118.913 1158.66 Q116.668 1158.29 114.26 1157.55 L114.26 1152.85 Q116.343 1153.98 118.566 1154.54 Q120.788 1155.1 123.265 1155.1 Q127.269 1155.1 129.607 1152.99 Q131.945 1150.88 131.945 1147.27 Q131.945 1143.66 129.607 1141.55 Q127.269 1139.45 123.265 1139.45 Q121.39 1139.45 119.515 1139.86 Q117.663 1140.28 115.718 1141.16 L115.718 1123.8 Z" fill="#000000" fill-rule="nonzero" fill-opacity="1" /><path clip-path="url(#clip710)" d="M145.834 1152.48 L150.718 1152.48 L150.718 1158.36 L145.834 1158.36 L145.834 1152.48 Z" fill="#000000" fill-rule="nonzero" fill-opacity="1" /><path clip-path="url(#clip710)" d="M170.903 1126.88 Q167.292 1126.88 165.464 1130.44 Q163.658 1133.98 163.658 1141.11 Q163.658 1148.22 165.464 1151.78 Q167.292 1155.33 170.903 1155.33 Q174.538 1155.33 176.343 1151.78 Q178.172 1148.22 178.172 1141.11 Q178.172 1133.98 176.343 1130.44 Q174.538 1126.88 170.903 1126.88 M170.903 1123.17 Q176.714 1123.17 179.769 1127.78 Q182.848 1132.36 182.848 1141.11 Q182.848 1149.84 179.769 1154.45 Q176.714 1159.03 170.903 1159.03 Q165.093 1159.03 162.015 1154.45 Q158.959 1149.84 158.959 1141.11 Q158.959 1132.36 162.015 1127.78 Q165.093 1123.17 170.903 1123.17 Z" fill="#000000" fill-rule="nonzero" fill-opacity="1" /><path clip-path="url(#clip710)" d="M201.065 1126.88 Q197.454 1126.88 195.625 1130.44 Q193.82 1133.98 193.82 1141.11 Q193.82 1148.22 195.625 1151.78 Q197.454 1155.33 201.065 1155.33 Q204.699 1155.33 206.505 1151.78 Q208.334 1148.22 208.334 1141.11 Q208.334 1133.98 206.505 1130.44 Q204.699 1126.88 201.065 1126.88 M201.065 1123.17 Q206.875 1123.17 209.931 1127.78 Q213.01 1132.36 213.01 1141.11 Q213.01 1149.84 209.931 1154.45 Q206.875 1159.03 201.065 1159.03 Q195.255 1159.03 192.176 1154.45 Q189.121 1149.84 189.121 1141.11 Q189.121 1132.36 192.176 1127.78 Q195.255 1123.17 201.065 1123.17 Z" fill="#000000" fill-rule="nonzero" fill-opacity="1" /><path clip-path="url(#clip710)" d="M249.398 1132.9 L238.82 1143.52 L249.398 1154.1 L246.644 1156.9 L236.019 1146.28 L225.394 1156.9 L222.662 1154.1 L233.218 1143.52 L222.662 1132.9 L225.394 1130.1 L236.019 1140.72 L246.644 1130.1 L249.398 1132.9 Z" fill="#000000" fill-rule="nonzero" fill-opacity="1" /><path clip-path="url(#clip710)" d="M261.759 1154.42 L269.398 1154.42 L269.398 1128.06 L261.088 1129.72 L261.088 1125.47 L269.352 1123.8 L274.028 1123.8 L274.028 1154.42 L281.667 1154.42 L281.667 1158.36 L261.759 1158.36 L261.759 1154.42 Z" fill="#000000" fill-rule="nonzero" fill-opacity="1" /><path clip-path="url(#clip710)" d="M301.111 1126.88 Q297.5 1126.88 295.671 1130.44 Q293.866 1133.98 293.866 1141.11 Q293.866 1148.22 295.671 1151.78 Q297.5 1155.33 301.111 1155.33 Q304.745 1155.33 306.551 1151.78 Q308.379 1148.22 308.379 1141.11 Q308.379 1133.98 306.551 1130.44 Q304.745 1126.88 301.111 1126.88 M301.111 1123.17 Q306.921 1123.17 309.977 1127.78 Q313.055 1132.36 313.055 1141.11 Q313.055 1149.84 309.977 1154.45 Q306.921 1159.03 301.111 1159.03 Q295.301 1159.03 292.222 1154.45 Q289.167 1149.84 289.167 1141.11 Q289.167 1132.36 292.222 1127.78 Q295.301 1123.17 301.111 1123.17 Z" fill="#000000" fill-rule="nonzero" fill-opacity="1" /><path clip-path="url(#clip710)" d="M325.732 1106.18 L316.14 1121.17 L325.732 1121.17 L325.732 1106.18 M324.735 1102.87 L329.512 1102.87 L329.512 1121.17 L333.518 1121.17 L333.518 1124.33 L329.512 1124.33 L329.512 1130.95 L325.732 1130.95 L325.732 1124.33 L313.055 1124.33 L313.055 1120.66 L324.735 1102.87 Z" fill="#000000" fill-rule="nonzero" fill-opacity="1" /><path clip-path="url(#clip710)" d="M118.777 898.306 L126.416 898.306 L126.416 871.94 L118.106 873.607 L118.106 869.347 L126.369 867.681 L131.045 867.681 L131.045 898.306 L138.684 898.306 L138.684 902.241 L118.777 902.241 L118.777 898.306 Z" fill="#000000" fill-rule="nonzero" fill-opacity="1" /><path clip-path="url(#clip710)" d="M148.129 896.361 L153.013 896.361 L153.013 902.241 L148.129 902.241 L148.129 896.361 Z" fill="#000000" fill-rule="nonzero" fill-opacity="1" /><path clip-path="url(#clip710)" d="M173.198 870.759 Q169.587 870.759 167.758 874.324 Q165.953 877.866 165.953 884.996 Q165.953 892.102 167.758 895.667 Q169.587 899.208 173.198 899.208 Q176.832 899.208 178.638 895.667 Q180.466 892.102 180.466 884.996 Q180.466 877.866 178.638 874.324 Q176.832 870.759 173.198 870.759 M173.198 867.056 Q179.008 867.056 182.064 871.662 Q185.142 876.246 185.142 884.996 Q185.142 893.722 182.064 898.329 Q179.008 902.912 173.198 902.912 Q167.388 902.912 164.309 898.329 Q161.254 893.722 161.254 884.996 Q161.254 876.246 164.309 871.662 Q167.388 867.056 173.198 867.056 Z" fill="#000000" fill-rule="nonzero" fill-opacity="1" /><path clip-path="url(#clip710)" d="M203.36 870.759 Q199.749 870.759 197.92 874.324 Q196.114 877.866 196.114 884.996 Q196.114 892.102 197.92 895.667 Q199.749 899.208 203.36 899.208 Q206.994 899.208 208.8 895.667 Q210.628 892.102 210.628 884.996 Q210.628 877.866 208.8 874.324 Q206.994 870.759 203.36 870.759 M203.36 867.056 Q209.17 867.056 212.225 871.662 Q215.304 876.246 215.304 884.996 Q215.304 893.722 212.225 898.329 Q209.17 902.912 203.36 902.912 Q197.55 902.912 194.471 898.329 Q191.415 893.722 191.415 884.996 Q191.415 876.246 194.471 871.662 Q197.55 867.056 203.36 867.056 Z" fill="#000000" fill-rule="nonzero" fill-opacity="1" /><path clip-path="url(#clip710)" d="M251.693 876.778 L241.114 887.403 L251.693 897.982 L248.938 900.782 L238.313 890.158 L227.688 900.782 L224.957 897.982 L235.512 887.403 L224.957 876.778 L227.688 873.977 L238.313 884.602 L248.938 873.977 L251.693 876.778 Z" fill="#000000" fill-rule="nonzero" fill-opacity="1" /><path clip-path="url(#clip710)" d="M264.054 898.306 L271.693 898.306 L271.693 871.94 L263.383 873.607 L263.383 869.347 L271.646 867.681 L276.322 867.681 L276.322 898.306 L283.961 898.306 L283.961 902.241 L264.054 902.241 L264.054 898.306 Z" fill="#000000" fill-rule="nonzero" fill-opacity="1" /><path clip-path="url(#clip710)" d="M303.406 870.759 Q299.794 870.759 297.966 874.324 Q296.16 877.866 296.16 884.996 Q296.16 892.102 297.966 895.667 Q299.794 899.208 303.406 899.208 Q307.04 899.208 308.845 895.667 Q310.674 892.102 310.674 884.996 Q310.674 877.866 308.845 874.324 Q307.04 870.759 303.406 870.759 M303.406 867.056 Q309.216 867.056 312.271 871.662 Q315.35 876.246 315.35 884.996 Q315.35 893.722 312.271 898.329 Q309.216 902.912 303.406 902.912 Q297.595 902.912 294.517 898.329 Q291.461 893.722 291.461 884.996 Q291.461 876.246 294.517 871.662 Q297.595 867.056 303.406 867.056 Z" fill="#000000" fill-rule="nonzero" fill-opacity="1" /><path clip-path="url(#clip710)" d="M316.535 846.75 L331.449 846.75 L331.449 849.948 L320.014 849.948 L320.014 856.831 Q320.842 856.549 321.669 856.418 Q322.497 856.267 323.324 856.267 Q328.026 856.267 330.772 858.844 Q333.518 861.42 333.518 865.821 Q333.518 870.354 330.697 872.874 Q327.876 875.376 322.741 875.376 Q320.973 875.376 319.13 875.075 Q317.306 874.774 315.35 874.172 L315.35 870.354 Q317.043 871.276 318.848 871.727 Q320.654 872.178 322.666 872.178 Q325.92 872.178 327.819 870.467 Q329.719 868.755 329.719 865.821 Q329.719 862.887 327.819 861.176 Q325.92 859.464 322.666 859.464 Q321.143 859.464 319.619 859.803 Q318.115 860.142 316.535 860.856 L316.535 846.75 Z" fill="#000000" fill-rule="nonzero" fill-opacity="1" /><path clip-path="url(#clip710)" d="M118.777 642.187 L126.416 642.187 L126.416 615.822 L118.106 617.488 L118.106 613.229 L126.369 611.563 L131.045 611.563 L131.045 642.187 L138.684 642.187 L138.684 646.123 L118.777 646.123 L118.777 642.187 Z" fill="#000000" fill-rule="nonzero" fill-opacity="1" /><path clip-path="url(#clip710)" d="M148.129 640.243 L153.013 640.243 L153.013 646.123 L148.129 646.123 L148.129 640.243 Z" fill="#000000" fill-rule="nonzero" fill-opacity="1" /><path clip-path="url(#clip710)" d="M163.244 611.563 L181.601 611.563 L181.601 615.498 L167.527 615.498 L167.527 623.97 Q168.545 623.623 169.564 623.461 Q170.582 623.275 171.601 623.275 Q177.388 623.275 180.767 626.447 Q184.147 629.618 184.147 635.035 Q184.147 640.613 180.675 643.715 Q177.203 646.794 170.883 646.794 Q168.707 646.794 166.439 646.423 Q164.193 646.053 161.786 645.312 L161.786 640.613 Q163.869 641.748 166.091 642.303 Q168.314 642.859 170.791 642.859 Q174.795 642.859 177.133 640.752 Q179.471 638.646 179.471 635.035 Q179.471 631.424 177.133 629.317 Q174.795 627.211 170.791 627.211 Q168.916 627.211 167.041 627.627 Q165.189 628.044 163.244 628.924 L163.244 611.563 Z" fill="#000000" fill-rule="nonzero" fill-opacity="1" /><path clip-path="url(#clip710)" d="M203.36 614.641 Q199.749 614.641 197.92 618.206 Q196.114 621.748 196.114 628.877 Q196.114 635.984 197.92 639.548 Q199.749 643.09 203.36 643.09 Q206.994 643.09 208.8 639.548 Q210.628 635.984 210.628 628.877 Q210.628 621.748 208.8 618.206 Q206.994 614.641 203.36 614.641 M203.36 610.938 Q209.17 610.938 212.225 615.544 Q215.304 620.127 215.304 628.877 Q215.304 637.604 212.225 642.211 Q209.17 646.794 203.36 646.794 Q197.55 646.794 194.471 642.211 Q191.415 637.604 191.415 628.877 Q191.415 620.127 194.471 615.544 Q197.55 610.938 203.36 610.938 Z" fill="#000000" fill-rule="nonzero" fill-opacity="1" /><path clip-path="url(#clip710)" d="M251.693 620.66 L241.114 631.285 L251.693 641.863 L248.938 644.664 L238.313 634.039 L227.688 644.664 L224.957 641.863 L235.512 631.285 L224.957 620.66 L227.688 617.859 L238.313 628.484 L248.938 617.859 L251.693 620.66 Z" fill="#000000" fill-rule="nonzero" fill-opacity="1" /><path clip-path="url(#clip710)" d="M264.054 642.187 L271.693 642.187 L271.693 615.822 L263.383 617.488 L263.383 613.229 L271.646 611.563 L276.322 611.563 L276.322 642.187 L283.961 642.187 L283.961 646.123 L264.054 646.123 L264.054 642.187 Z" fill="#000000" fill-rule="nonzero" fill-opacity="1" /><path clip-path="url(#clip710)" d="M303.406 614.641 Q299.794 614.641 297.966 618.206 Q296.16 621.748 296.16 628.877 Q296.16 635.984 297.966 639.548 Q299.794 643.09 303.406 643.09 Q307.04 643.09 308.845 639.548 Q310.674 635.984 310.674 628.877 Q310.674 621.748 308.845 618.206 Q307.04 614.641 303.406 614.641 M303.406 610.938 Q309.216 610.938 312.271 615.544 Q315.35 620.127 315.35 628.877 Q315.35 637.604 312.271 642.211 Q309.216 646.794 303.406 646.794 Q297.595 646.794 294.517 642.211 Q291.461 637.604 291.461 628.877 Q291.461 620.127 294.517 615.544 Q297.595 610.938 303.406 610.938 Z" fill="#000000" fill-rule="nonzero" fill-opacity="1" /><path clip-path="url(#clip710)" d="M316.535 590.632 L331.449 590.632 L331.449 593.829 L320.014 593.829 L320.014 600.713 Q320.842 600.431 321.669 600.299 Q322.497 600.149 323.324 600.149 Q328.026 600.149 330.772 602.726 Q333.518 605.302 333.518 609.703 Q333.518 614.236 330.697 616.756 Q327.876 619.258 322.741 619.258 Q320.973 619.258 319.13 618.957 Q317.306 618.656 315.35 618.054 L315.35 614.236 Q317.043 615.157 318.848 615.609 Q320.654 616.06 322.666 616.06 Q325.92 616.06 327.819 614.349 Q329.719 612.637 329.719 609.703 Q329.719 606.769 327.819 605.058 Q325.92 603.346 322.666 603.346 Q321.143 603.346 319.619 603.685 Q318.115 604.023 316.535 604.738 L316.535 590.632 Z" fill="#000000" fill-rule="nonzero" fill-opacity="1" /><path clip-path="url(#clip710)" d="M121.994 386.069 L138.314 386.069 L138.314 390.004 L116.37 390.004 L116.37 386.069 Q119.032 383.315 123.615 378.685 Q128.221 374.032 129.402 372.69 Q131.647 370.166 132.527 368.43 Q133.43 366.671 133.43 364.981 Q133.43 362.227 131.485 360.491 Q129.564 358.754 126.462 358.754 Q124.263 358.754 121.809 359.518 Q119.379 360.282 116.601 361.833 L116.601 357.111 Q119.425 355.977 121.879 355.398 Q124.332 354.819 126.369 354.819 Q131.74 354.819 134.934 357.504 Q138.129 360.19 138.129 364.68 Q138.129 366.81 137.318 368.731 Q136.531 370.629 134.425 373.222 Q133.846 373.893 130.744 377.111 Q127.643 380.305 121.994 386.069 Z" fill="#000000" fill-rule="nonzero" fill-opacity="1" /><path clip-path="url(#clip710)" d="M148.129 384.125 L153.013 384.125 L153.013 390.004 L148.129 390.004 L148.129 384.125 Z" fill="#000000" fill-rule="nonzero" fill-opacity="1" /><path clip-path="url(#clip710)" d="M173.198 358.523 Q169.587 358.523 167.758 362.088 Q165.953 365.629 165.953 372.759 Q165.953 379.865 167.758 383.43 Q169.587 386.972 173.198 386.972 Q176.832 386.972 178.638 383.43 Q180.466 379.865 180.466 372.759 Q180.466 365.629 178.638 362.088 Q176.832 358.523 173.198 358.523 M173.198 354.819 Q179.008 354.819 182.064 359.426 Q185.142 364.009 185.142 372.759 Q185.142 381.486 182.064 386.092 Q179.008 390.676 173.198 390.676 Q167.388 390.676 164.309 386.092 Q161.254 381.486 161.254 372.759 Q161.254 364.009 164.309 359.426 Q167.388 354.819 173.198 354.819 Z" fill="#000000" fill-rule="nonzero" fill-opacity="1" /><path clip-path="url(#clip710)" d="M203.36 358.523 Q199.749 358.523 197.92 362.088 Q196.114 365.629 196.114 372.759 Q196.114 379.865 197.92 383.43 Q199.749 386.972 203.36 386.972 Q206.994 386.972 208.8 383.43 Q210.628 379.865 210.628 372.759 Q210.628 365.629 208.8 362.088 Q206.994 358.523 203.36 358.523 M203.36 354.819 Q209.17 354.819 212.225 359.426 Q215.304 364.009 215.304 372.759 Q215.304 381.486 212.225 386.092 Q209.17 390.676 203.36 390.676 Q197.55 390.676 194.471 386.092 Q191.415 381.486 191.415 372.759 Q191.415 364.009 194.471 359.426 Q197.55 354.819 203.36 354.819 Z" fill="#000000" fill-rule="nonzero" fill-opacity="1" /><path clip-path="url(#clip710)" d="M251.693 364.541 L241.114 375.166 L251.693 385.745 L248.938 388.546 L238.313 377.921 L227.688 388.546 L224.957 385.745 L235.512 375.166 L224.957 364.541 L227.688 361.741 L238.313 372.365 L248.938 361.741 L251.693 364.541 Z" fill="#000000" fill-rule="nonzero" fill-opacity="1" /><path clip-path="url(#clip710)" d="M264.054 386.069 L271.693 386.069 L271.693 359.704 L263.383 361.37 L263.383 357.111 L271.646 355.444 L276.322 355.444 L276.322 386.069 L283.961 386.069 L283.961 390.004 L264.054 390.004 L264.054 386.069 Z" fill="#000000" fill-rule="nonzero" fill-opacity="1" /><path clip-path="url(#clip710)" d="M303.406 358.523 Q299.794 358.523 297.966 362.088 Q296.16 365.629 296.16 372.759 Q296.16 379.865 297.966 383.43 Q299.794 386.972 303.406 386.972 Q307.04 386.972 308.845 383.43 Q310.674 379.865 310.674 372.759 Q310.674 365.629 308.845 362.088 Q307.04 358.523 303.406 358.523 M303.406 354.819 Q309.216 354.819 312.271 359.426 Q315.35 364.009 315.35 372.759 Q315.35 381.486 312.271 386.092 Q309.216 390.676 303.406 390.676 Q297.595 390.676 294.517 386.092 Q291.461 381.486 291.461 372.759 Q291.461 364.009 294.517 359.426 Q297.595 354.819 303.406 354.819 Z" fill="#000000" fill-rule="nonzero" fill-opacity="1" /><path clip-path="url(#clip710)" d="M316.535 334.514 L331.449 334.514 L331.449 337.711 L320.014 337.711 L320.014 344.595 Q320.842 344.313 321.669 344.181 Q322.497 344.031 323.324 344.031 Q328.026 344.031 330.772 346.607 Q333.518 349.184 333.518 353.585 Q333.518 358.118 330.697 360.638 Q327.876 363.139 322.741 363.139 Q320.973 363.139 319.13 362.838 Q317.306 362.537 315.35 361.936 L315.35 358.118 Q317.043 359.039 318.848 359.491 Q320.654 359.942 322.666 359.942 Q325.92 359.942 327.819 358.23 Q329.719 356.519 329.719 353.585 Q329.719 350.651 327.819 348.939 Q325.92 347.228 322.666 347.228 Q321.143 347.228 319.619 347.566 Q318.115 347.905 316.535 348.62 L316.535 334.514 Z" fill="#000000" fill-rule="nonzero" fill-opacity="1" /><path clip-path="url(#clip710)" d="M42.4881 1076.45 L64.0042 1076.45 L64.0042 1082.3 L42.679 1082.3 Q37.6183 1082.3 35.1038 1084.27 Q32.5894 1086.25 32.5894 1090.19 Q32.5894 1094.94 35.6131 1097.67 Q38.6368 1100.41 43.8567 1100.41 L64.0042 1100.41 L64.0042 1106.3 L14.479 1106.3 L14.479 1100.41 L33.8944 1100.41 Q30.6797 1098.31 29.0883 1095.48 Q27.4968 1092.61 27.4968 1088.89 Q27.4968 1082.75 31.3163 1079.6 Q35.1038 1076.45 42.4881 1076.45 Z" fill="#000000" fill-rule="nonzero" fill-opacity="1" /><path clip-path="url(#clip710)" d="M44.7161 1034.27 L47.5806 1034.27 L47.5806 1061.2 Q53.6281 1060.82 56.8109 1057.57 Q59.9619 1054.29 59.9619 1048.47 Q59.9619 1045.09 59.1344 1041.94 Q58.3069 1038.76 56.6518 1035.64 L62.1899 1035.64 Q63.5267 1038.79 64.227 1042.1 Q64.9272 1045.41 64.9272 1048.82 Q64.9272 1057.35 59.9619 1062.34 Q54.9967 1067.31 46.5303 1067.31 Q37.7774 1067.31 32.6531 1062.6 Q27.4968 1057.86 27.4968 1049.84 Q27.4968 1042.64 32.1438 1038.47 Q36.7589 1034.27 44.7161 1034.27 M42.9973 1040.13 Q38.1912 1040.19 35.3266 1042.83 Q32.4621 1045.44 32.4621 1049.77 Q32.4621 1054.67 35.2312 1057.63 Q38.0002 1060.56 43.0292 1061.01 L42.9973 1040.13 Z" fill="#000000" fill-rule="nonzero" fill-opacity="1" /><path clip-path="url(#clip710)" d="M46.0847 1008.46 Q46.0847 1015.56 47.7079 1018.29 Q49.3312 1021.03 53.2461 1021.03 Q56.3653 1021.03 58.2114 1018.99 Q60.0256 1016.93 60.0256 1013.39 Q60.0256 1008.52 56.5881 1005.59 Q53.1188 1002.63 47.3897 1002.63 L46.0847 1002.63 L46.0847 1008.46 M43.6657 996.778 L64.0042 996.778 L64.0042 1002.63 L58.5933 1002.63 Q61.8398 1004.64 63.3994 1007.63 Q64.9272 1010.62 64.9272 1014.95 Q64.9272 1020.43 61.8716 1023.67 Q58.7843 1026.89 53.6281 1026.89 Q47.6125 1026.89 44.5569 1022.88 Q41.5014 1018.84 41.5014 1010.85 L41.5014 1002.63 L40.9285 1002.63 Q36.8862 1002.63 34.6901 1005.31 Q32.4621 1007.95 32.4621 1012.76 Q32.4621 1015.81 33.1941 1018.71 Q33.9262 1021.6 35.3903 1024.28 L29.9795 1024.28 Q28.7381 1021.06 28.1334 1018.04 Q27.4968 1015.02 27.4968 1012.15 Q27.4968 1004.42 31.5072 1000.6 Q35.5176 996.778 43.6657 996.778 Z" fill="#000000" fill-rule="nonzero" fill-opacity="1" /><path clip-path="url(#clip710)" d="M18.2347 978.922 L28.3562 978.922 L28.3562 966.859 L32.9077 966.859 L32.9077 978.922 L52.2594 978.922 Q56.6199 978.922 57.8613 977.745 Q59.1026 976.535 59.1026 972.875 L59.1026 966.859 L64.0042 966.859 L64.0042 972.875 Q64.0042 979.654 61.4897 982.233 Q58.9434 984.811 52.2594 984.811 L32.9077 984.811 L32.9077 989.108 L28.3562 989.108 L28.3562 984.811 L18.2347 984.811 L18.2347 978.922 Z" fill="#000000" fill-rule="nonzero" fill-opacity="1" /><path clip-path="url(#clip710)" d="M29.7248 912.783 L35.1993 912.783 Q33.8307 915.265 33.1623 917.78 Q32.4621 920.262 32.4621 922.809 Q32.4621 928.506 36.0905 931.657 Q39.6872 934.808 46.212 934.808 Q52.7369 934.808 56.3653 931.657 Q59.9619 928.506 59.9619 922.809 Q59.9619 920.262 59.2935 917.78 Q58.5933 915.265 57.2247 912.783 L62.6355 912.783 Q63.7814 915.233 64.3543 917.875 Q64.9272 920.485 64.9272 923.445 Q64.9272 931.498 59.8664 936.24 Q54.8057 940.983 46.212 940.983 Q37.491 940.983 32.4939 936.209 Q27.4968 931.402 27.4968 923.063 Q27.4968 920.358 28.0697 917.78 Q28.6108 915.202 29.7248 912.783 Z" fill="#000000" fill-rule="nonzero" fill-opacity="1" /><path clip-path="url(#clip710)" d="M46.0847 886.397 Q46.0847 893.495 47.7079 896.232 Q49.3312 898.969 53.2461 898.969 Q56.3653 898.969 58.2114 896.932 Q60.0256 894.863 60.0256 891.33 Q60.0256 886.461 56.5881 883.532 Q53.1188 880.572 47.3897 880.572 L46.0847 880.572 L46.0847 886.397 M43.6657 874.716 L64.0042 874.716 L64.0042 880.572 L58.5933 880.572 Q61.8398 882.577 63.3994 885.569 Q64.9272 888.561 64.9272 892.89 Q64.9272 898.364 61.8716 901.611 Q58.7843 904.826 53.6281 904.826 Q47.6125 904.826 44.5569 900.815 Q41.5014 896.773 41.5014 888.784 L41.5014 880.572 L40.9285 880.572 Q36.8862 880.572 34.6901 883.246 Q32.4621 885.888 32.4621 890.694 Q32.4621 893.749 33.1941 896.646 Q33.9262 899.542 35.3903 902.216 L29.9795 902.216 Q28.7381 899.001 28.1334 895.977 Q27.4968 892.954 27.4968 890.089 Q27.4968 882.355 31.5072 878.535 Q35.5176 874.716 43.6657 874.716 Z" fill="#000000" fill-rule="nonzero" fill-opacity="1" /><path clip-path="url(#clip710)" d="M58.657 856.987 L77.5631 856.987 L77.5631 862.876 L28.3562 862.876 L28.3562 856.987 L33.7671 856.987 Q30.5842 855.141 29.0564 852.34 Q27.4968 849.508 27.4968 845.593 Q27.4968 839.1 32.6531 835.057 Q37.8093 830.983 46.212 830.983 Q54.6147 830.983 59.771 835.057 Q64.9272 839.1 64.9272 845.593 Q64.9272 849.508 63.3994 852.34 Q61.8398 855.141 58.657 856.987 M46.212 837.063 Q39.7508 837.063 36.0905 839.736 Q32.3984 842.378 32.3984 847.025 Q32.3984 851.672 36.0905 854.346 Q39.7508 856.987 46.212 856.987 Q52.6732 856.987 56.3653 854.346 Q60.0256 851.672 60.0256 847.025 Q60.0256 842.378 56.3653 839.736 Q52.6732 837.063 46.212 837.063 Z" fill="#000000" fill-rule="nonzero" fill-opacity="1" /><path clip-path="url(#clip710)" d="M46.0847 805.075 Q46.0847 812.173 47.7079 814.91 Q49.3312 817.647 53.2461 817.647 Q56.3653 817.647 58.2114 815.61 Q60.0256 813.541 60.0256 810.008 Q60.0256 805.139 56.5881 802.21 Q53.1188 799.25 47.3897 799.25 L46.0847 799.25 L46.0847 805.075 M43.6657 793.394 L64.0042 793.394 L64.0042 799.25 L58.5933 799.25 Q61.8398 801.256 63.3994 804.247 Q64.9272 807.239 64.9272 811.568 Q64.9272 817.042 61.8716 820.289 Q58.7843 823.504 53.6281 823.504 Q47.6125 823.504 44.5569 819.493 Q41.5014 815.451 41.5014 807.462 L41.5014 799.25 L40.9285 799.25 Q36.8862 799.25 34.6901 801.924 Q32.4621 804.566 32.4621 809.372 Q32.4621 812.427 33.1941 815.324 Q33.9262 818.22 35.3903 820.894 L29.9795 820.894 Q28.7381 817.679 28.1334 814.655 Q27.4968 811.632 27.4968 808.767 Q27.4968 801.033 31.5072 797.213 Q35.5176 793.394 43.6657 793.394 Z" fill="#000000" fill-rule="nonzero" fill-opacity="1" /><path clip-path="url(#clip710)" d="M29.7248 755.677 L35.1993 755.677 Q33.8307 758.16 33.1623 760.674 Q32.4621 763.157 32.4621 765.703 Q32.4621 771.4 36.0905 774.551 Q39.6872 777.702 46.212 777.702 Q52.7369 777.702 56.3653 774.551 Q59.9619 771.4 59.9619 765.703 Q59.9619 763.157 59.2935 760.674 Q58.5933 758.16 57.2247 755.677 L62.6355 755.677 Q63.7814 758.128 64.3543 760.77 Q64.9272 763.38 64.9272 766.34 Q64.9272 774.392 59.8664 779.135 Q54.8057 783.877 46.212 783.877 Q37.491 783.877 32.4939 779.103 Q27.4968 774.297 27.4968 765.958 Q27.4968 763.252 28.0697 760.674 Q28.6108 758.096 29.7248 755.677 Z" fill="#000000" fill-rule="nonzero" fill-opacity="1" /><path clip-path="url(#clip710)" d="M28.3562 745.492 L28.3562 739.635 L64.0042 739.635 L64.0042 745.492 L28.3562 745.492 M14.479 745.492 L14.479 739.635 L21.895 739.635 L21.895 745.492 L14.479 745.492 Z" fill="#000000" fill-rule="nonzero" fill-opacity="1" /><path clip-path="url(#clip710)" d="M18.2347 721.589 L28.3562 721.589 L28.3562 709.526 L32.9077 709.526 L32.9077 721.589 L52.2594 721.589 Q56.6199 721.589 57.8613 720.411 Q59.1026 719.202 59.1026 715.541 L59.1026 709.526 L64.0042 709.526 L64.0042 715.541 Q64.0042 722.321 61.4897 724.899 Q58.9434 727.477 52.2594 727.477 L32.9077 727.477 L32.9077 731.774 L28.3562 731.774 L28.3562 727.477 L18.2347 727.477 L18.2347 721.589 Z" fill="#000000" fill-rule="nonzero" fill-opacity="1" /><path clip-path="url(#clip710)" d="M67.3143 686.991 Q73.68 689.474 75.6216 691.829 Q77.5631 694.184 77.5631 698.131 L77.5631 702.81 L72.6615 702.81 L72.6615 699.372 Q72.6615 696.953 71.5157 695.617 Q70.3699 694.28 66.1048 692.657 L63.4312 691.606 L28.3562 706.025 L28.3562 699.818 L56.238 688.678 L28.3562 677.538 L28.3562 671.331 L67.3143 686.991 Z" fill="#000000" fill-rule="nonzero" fill-opacity="1" /><path clip-path="url(#clip710)" d="M14.479 643.068 L14.479 629.572 L19.0304 629.572 L19.0304 637.211 L68.0464 637.211 L68.0464 629.572 L72.5979 629.572 L72.5979 643.068 L14.479 643.068 Z" fill="#000000" fill-rule="nonzero" fill-opacity="1" /><path clip-path="url(#clip710)" d="M16.4842 616.841 L16.4842 610.412 L60.694 610.412 Q69.2877 610.412 73.1708 613.69 Q77.0539 616.936 77.0539 624.162 L77.0539 626.612 L71.643 626.612 L71.643 624.607 Q71.643 620.342 69.2559 618.592 Q66.8687 616.841 60.694 616.841 L16.4842 616.841 Z" fill="#000000" fill-rule="nonzero" fill-opacity="1" /><path clip-path="url(#clip710)" d="M16.4842 587.463 L16.4842 582.052 L70.0516 598.603 L70.0516 604.014 L16.4842 587.463 Z" fill="#000000" fill-rule="nonzero" fill-opacity="1" /><path clip-path="url(#clip710)" d="M14.479 576.132 L14.479 570.244 L43.7294 570.244 L28.3562 552.77 L28.3562 545.29 L45.0344 564.197 L64.0042 544.495 L64.0042 552.134 L46.5939 570.244 L64.0042 570.244 L64.0042 576.132 L14.479 576.132 Z" fill="#000000" fill-rule="nonzero" fill-opacity="1" /><path clip-path="url(#clip710)" d="M45.7664 514.703 Q39.4007 514.703 35.8996 517.345 Q32.3984 519.955 32.3984 524.697 Q32.3984 529.408 35.8996 532.05 Q39.4007 534.66 45.7664 534.66 Q52.1003 534.66 55.6014 532.05 Q59.1026 529.408 59.1026 524.697 Q59.1026 519.955 55.6014 517.345 Q52.1003 514.703 45.7664 514.703 M59.58 508.847 Q68.683 508.847 73.1071 512.889 Q77.5631 516.931 77.5631 525.27 Q77.5631 528.358 77.0857 531.095 Q76.6401 533.832 75.6852 536.41 L69.9879 536.41 Q71.3884 533.832 72.0568 531.318 Q72.7252 528.803 72.7252 526.193 Q72.7252 520.432 69.7015 517.568 Q66.7096 514.703 60.6303 514.703 L57.7339 514.703 Q60.885 516.517 62.4446 519.35 Q64.0042 522.183 64.0042 526.13 Q64.0042 532.686 59.0071 536.697 Q54.01 540.707 45.7664 540.707 Q37.491 540.707 32.4939 536.697 Q27.4968 532.686 27.4968 526.13 Q27.4968 522.183 29.0564 519.35 Q30.616 516.517 33.7671 514.703 L28.3562 514.703 L28.3562 508.847 L59.58 508.847 Z" fill="#000000" fill-rule="nonzero" fill-opacity="1" /><path clip-path="url(#clip710)" d="M16.4842 496.529 L16.4842 490.1 L36.568 490.1 L16.4842 468.775 L16.4842 460.499 L38.6368 484.084 L64.0042 458.812 L64.0042 467.279 L41.1194 490.1 L64.0042 490.1 L64.0042 496.529 L16.4842 496.529 Z" fill="#000000" fill-rule="nonzero" fill-opacity="1" /><path clip-path="url(#clip710)" d="M14.479 440.352 L72.5979 440.352 L72.5979 453.847 L68.0464 453.847 L68.0464 446.24 L19.0304 446.24 L19.0304 453.847 L14.479 453.847 L14.479 440.352 Z" fill="#000000" fill-rule="nonzero" fill-opacity="1" /><path clip-path="url(#clip710)" d="M430.746 14.0809 L430.746 22.0612 Q426.087 19.8332 421.955 18.7395 Q417.823 17.6457 413.975 17.6457 Q407.291 17.6457 403.645 20.2383 Q400.04 22.8309 400.04 27.611 Q400.04 31.6214 402.43 33.6873 Q404.86 35.7128 411.585 36.9686 L416.527 37.9813 Q425.682 39.7232 430.016 44.1387 Q434.391 48.5136 434.391 55.8863 Q434.391 64.6767 428.477 69.2137 Q422.603 73.7508 411.22 73.7508 Q406.926 73.7508 402.065 72.7785 Q397.245 71.8063 392.06 69.9024 L392.06 61.4765 Q397.042 64.2716 401.822 65.6895 Q406.602 67.1073 411.22 67.1073 Q418.228 67.1073 422.036 64.3527 Q425.844 61.598 425.844 56.4939 Q425.844 52.0379 423.089 49.5264 Q420.375 47.0148 414.137 45.759 L409.154 44.7868 Q399.999 42.9639 395.908 39.075 Q391.816 35.1862 391.816 28.2591 Q391.816 20.2383 397.447 15.6203 Q403.118 11.0023 413.043 11.0023 Q417.297 11.0023 421.712 11.7719 Q426.128 12.5416 430.746 14.0809 Z" fill="#000000" fill-rule="nonzero" fill-opacity="1" /><path clip-path="url(#clip710)" d="M454.038 65.7705 L454.038 89.8329 L446.544 89.8329 L446.544 27.2059 L454.038 27.2059 L454.038 34.0924 Q456.388 30.0415 459.953 28.0971 Q463.558 26.1121 468.541 26.1121 Q476.804 26.1121 481.949 32.6746 Q487.134 39.2371 487.134 49.9314 Q487.134 60.6258 481.949 67.1883 Q476.804 73.7508 468.541 73.7508 Q463.558 73.7508 459.953 71.8063 Q456.388 69.8214 454.038 65.7705 M479.397 49.9314 Q479.397 41.7081 475.994 37.0496 Q472.632 32.3505 466.718 32.3505 Q460.803 32.3505 457.401 37.0496 Q454.038 41.7081 454.038 49.9314 Q454.038 58.1548 457.401 62.8538 Q460.803 67.5124 466.718 67.5124 Q472.632 67.5124 475.994 62.8538 Q479.397 58.1548 479.397 49.9314 Z" fill="#000000" fill-rule="nonzero" fill-opacity="1" /><path clip-path="url(#clip710)" d="M538.297 48.0275 L538.297 51.6733 L504.027 51.6733 Q504.513 59.3701 508.645 63.421 Q512.817 67.4314 520.23 67.4314 Q524.524 67.4314 528.534 66.3781 Q532.585 65.3249 536.555 63.2184 L536.555 70.267 Q532.545 71.9684 528.332 72.8596 Q524.119 73.7508 519.785 73.7508 Q508.928 73.7508 502.568 67.4314 Q496.249 61.1119 496.249 50.3365 Q496.249 39.1965 502.244 32.6746 Q508.28 26.1121 518.488 26.1121 Q527.643 26.1121 532.95 32.0264 Q538.297 37.9003 538.297 48.0275 M530.843 45.84 Q530.762 39.7232 527.4 36.0774 Q524.078 32.4315 518.569 32.4315 Q512.331 32.4315 508.564 35.9558 Q504.837 39.4801 504.27 45.8805 L530.843 45.84 Z" fill="#000000" fill-rule="nonzero" fill-opacity="1" /><path clip-path="url(#clip710)" d="M583.181 28.9478 L583.181 35.9153 Q580.021 34.1734 576.821 33.3227 Q573.662 32.4315 570.421 32.4315 Q563.17 32.4315 559.159 37.0496 Q555.149 41.6271 555.149 49.9314 Q555.149 58.2358 559.159 62.8538 Q563.17 67.4314 570.421 67.4314 Q573.662 67.4314 576.821 66.5807 Q580.021 65.6895 583.181 63.9476 L583.181 70.8341 Q580.062 72.2924 576.7 73.0216 Q573.378 73.7508 569.611 73.7508 Q559.362 73.7508 553.326 67.3098 Q547.29 60.8689 547.29 49.9314 Q547.29 38.832 553.367 32.472 Q559.483 26.1121 570.097 26.1121 Q573.54 26.1121 576.821 26.8413 Q580.102 27.5299 583.181 28.9478 Z" fill="#000000" fill-rule="nonzero" fill-opacity="1" /><path clip-path="url(#clip710)" d="M596.144 27.2059 L603.598 27.2059 L603.598 72.576 L596.144 72.576 L596.144 27.2059 M596.144 9.54393 L603.598 9.54393 L603.598 18.9825 L596.144 18.9825 L596.144 9.54393 Z" fill="#000000" fill-rule="nonzero" fill-opacity="1" /><path clip-path="url(#clip710)" d="M642.162 9.54393 L642.162 15.7418 L635.033 15.7418 Q631.022 15.7418 629.442 17.3622 Q627.903 18.9825 627.903 23.1955 L627.903 27.2059 L640.177 27.2059 L640.177 32.9987 L627.903 32.9987 L627.903 72.576 L620.409 72.576 L620.409 32.9987 L613.279 32.9987 L613.279 27.2059 L620.409 27.2059 L620.409 24.0462 Q620.409 16.471 623.933 13.0277 Q627.458 9.54393 635.114 9.54393 L642.162 9.54393 Z" fill="#000000" fill-rule="nonzero" fill-opacity="1" /><path clip-path="url(#clip710)" d="M648.401 27.2059 L655.854 27.2059 L655.854 72.576 L648.401 72.576 L648.401 27.2059 M648.401 9.54393 L655.854 9.54393 L655.854 18.9825 L648.401 18.9825 L648.401 9.54393 Z" fill="#000000" fill-rule="nonzero" fill-opacity="1" /><path clip-path="url(#clip710)" d="M704.101 28.9478 L704.101 35.9153 Q700.941 34.1734 697.741 33.3227 Q694.581 32.4315 691.34 32.4315 Q684.089 32.4315 680.079 37.0496 Q676.068 41.6271 676.068 49.9314 Q676.068 58.2358 680.079 62.8538 Q684.089 67.4314 691.34 67.4314 Q694.581 67.4314 697.741 66.5807 Q700.941 65.6895 704.101 63.9476 L704.101 70.8341 Q700.981 72.2924 697.619 73.0216 Q694.297 73.7508 690.53 73.7508 Q680.281 73.7508 674.245 67.3098 Q668.21 60.8689 668.21 49.9314 Q668.21 38.832 674.286 32.472 Q680.403 26.1121 691.016 26.1121 Q694.46 26.1121 697.741 26.8413 Q701.022 27.5299 704.101 28.9478 Z" fill="#000000" fill-rule="nonzero" fill-opacity="1" /><path clip-path="url(#clip710)" d="M781.149 45.1919 L781.149 72.576 L773.695 72.576 L773.695 45.4349 Q773.695 38.994 771.184 35.7938 Q768.672 32.5936 763.649 32.5936 Q757.613 32.5936 754.129 36.4419 Q750.646 40.2903 750.646 46.9338 L750.646 72.576 L743.151 72.576 L743.151 9.54393 L750.646 9.54393 L750.646 34.2544 Q753.319 30.163 756.924 28.1376 Q760.57 26.1121 765.31 26.1121 Q773.128 26.1121 777.138 30.9732 Q781.149 35.7938 781.149 45.1919 Z" fill="#000000" fill-rule="nonzero" fill-opacity="1" /><path clip-path="url(#clip710)" d="M834.823 48.0275 L834.823 51.6733 L800.553 51.6733 Q801.039 59.3701 805.171 63.421 Q809.343 67.4314 816.756 67.4314 Q821.05 67.4314 825.061 66.3781 Q829.112 65.3249 833.081 63.2184 L833.081 70.267 Q829.071 71.9684 824.858 72.8596 Q820.645 73.7508 816.311 73.7508 Q805.454 73.7508 799.094 67.4314 Q792.775 61.1119 792.775 50.3365 Q792.775 39.1965 798.77 32.6746 Q804.806 26.1121 815.014 26.1121 Q824.169 26.1121 829.476 32.0264 Q834.823 37.9003 834.823 48.0275 M827.37 45.84 Q827.289 39.7232 823.926 36.0774 Q820.605 32.4315 815.095 32.4315 Q808.857 32.4315 805.09 35.9558 Q801.363 39.4801 800.796 45.8805 L827.37 45.84 Z" fill="#000000" fill-rule="nonzero" fill-opacity="1" /><path clip-path="url(#clip710)" d="M867.676 49.7694 Q858.643 49.7694 855.159 51.8354 Q851.675 53.9013 851.675 58.8839 Q851.675 62.8538 854.268 65.2034 Q856.901 67.5124 861.397 67.5124 Q867.595 67.5124 871.322 63.1374 Q875.089 58.7219 875.089 51.4303 L875.089 49.7694 L867.676 49.7694 M882.543 46.6907 L882.543 72.576 L875.089 72.576 L875.089 65.6895 Q872.537 69.8214 868.729 71.8063 Q864.922 73.7508 859.412 73.7508 Q852.445 73.7508 848.313 69.8619 Q844.221 65.9325 844.221 59.3701 Q844.221 51.7138 849.326 47.825 Q854.47 43.9361 864.638 43.9361 L875.089 43.9361 L875.089 43.2069 Q875.089 38.0623 871.687 35.2672 Q868.324 32.4315 862.207 32.4315 Q858.319 32.4315 854.632 33.3632 Q850.946 34.295 847.543 36.1584 L847.543 29.2718 Q851.635 27.692 855.483 26.9223 Q859.331 26.1121 862.977 26.1121 Q872.821 26.1121 877.682 31.2163 Q882.543 36.3204 882.543 46.6907 Z" fill="#000000" fill-rule="nonzero" fill-opacity="1" /><path clip-path="url(#clip710)" d="M905.269 14.324 L905.269 27.2059 L920.621 27.2059 L920.621 32.9987 L905.269 32.9987 L905.269 57.6282 Q905.269 63.1779 906.767 64.7578 Q908.307 66.3376 912.965 66.3376 L920.621 66.3376 L920.621 72.576 L912.965 72.576 Q904.337 72.576 901.056 69.3758 Q897.774 66.1351 897.774 57.6282 L897.774 32.9987 L892.306 32.9987 L892.306 27.2059 L897.774 27.2059 L897.774 14.324 L905.269 14.324 Z" fill="#000000" fill-rule="nonzero" fill-opacity="1" /><path clip-path="url(#clip710)" d="M989.446 28.9478 L989.446 35.9153 Q986.287 34.1734 983.086 33.3227 Q979.927 32.4315 976.686 32.4315 Q969.435 32.4315 965.424 37.0496 Q961.414 41.6271 961.414 49.9314 Q961.414 58.2358 965.424 62.8538 Q969.435 67.4314 976.686 67.4314 Q979.927 67.4314 983.086 66.5807 Q986.287 65.6895 989.446 63.9476 L989.446 70.8341 Q986.327 72.2924 982.965 73.0216 Q979.643 73.7508 975.876 73.7508 Q965.627 73.7508 959.591 67.3098 Q953.555 60.8689 953.555 49.9314 Q953.555 38.832 959.632 32.472 Q965.749 26.1121 976.362 26.1121 Q979.805 26.1121 983.086 26.8413 Q986.368 27.5299 989.446 28.9478 Z" fill="#000000" fill-rule="nonzero" fill-opacity="1" /><path clip-path="url(#clip710)" d="M1023.03 49.7694 Q1013.99 49.7694 1010.51 51.8354 Q1007.03 53.9013 1007.03 58.8839 Q1007.03 62.8538 1009.62 65.2034 Q1012.25 67.5124 1016.75 67.5124 Q1022.95 67.5124 1026.67 63.1374 Q1030.44 58.7219 1030.44 51.4303 L1030.44 49.7694 L1023.03 49.7694 M1037.9 46.6907 L1037.9 72.576 L1030.44 72.576 L1030.44 65.6895 Q1027.89 69.8214 1024.08 71.8063 Q1020.27 73.7508 1014.76 73.7508 Q1007.8 73.7508 1003.67 69.8619 Q999.574 65.9325 999.574 59.3701 Q999.574 51.7138 1004.68 47.825 Q1009.82 43.9361 1019.99 43.9361 L1030.44 43.9361 L1030.44 43.2069 Q1030.44 38.0623 1027.04 35.2672 Q1023.68 32.4315 1017.56 32.4315 Q1013.67 32.4315 1009.98 33.3632 Q1006.3 34.295 1002.9 36.1584 L1002.9 29.2718 Q1006.99 27.692 1010.84 26.9223 Q1014.68 26.1121 1018.33 26.1121 Q1028.17 26.1121 1033.03 31.2163 Q1037.9 36.3204 1037.9 46.6907 Z" fill="#000000" fill-rule="nonzero" fill-opacity="1" /><path clip-path="url(#clip710)" d="M1060.46 65.7705 L1060.46 89.8329 L1052.96 89.8329 L1052.96 27.2059 L1060.46 27.2059 L1060.46 34.0924 Q1062.81 30.0415 1066.37 28.0971 Q1069.98 26.1121 1074.96 26.1121 Q1083.22 26.1121 1088.37 32.6746 Q1093.55 39.2371 1093.55 49.9314 Q1093.55 60.6258 1088.37 67.1883 Q1083.22 73.7508 1074.96 73.7508 Q1069.98 73.7508 1066.37 71.8063 Q1062.81 69.8214 1060.46 65.7705 M1085.82 49.9314 Q1085.82 41.7081 1082.41 37.0496 Q1079.05 32.3505 1073.14 32.3505 Q1067.22 32.3505 1063.82 37.0496 Q1060.46 41.7081 1060.46 49.9314 Q1060.46 58.1548 1063.82 62.8538 Q1067.22 67.5124 1073.14 67.5124 Q1079.05 67.5124 1082.41 62.8538 Q1085.82 58.1548 1085.82 49.9314 Z" fill="#000000" fill-rule="nonzero" fill-opacity="1" /><path clip-path="url(#clip710)" d="M1126.53 49.7694 Q1117.5 49.7694 1114.01 51.8354 Q1110.53 53.9013 1110.53 58.8839 Q1110.53 62.8538 1113.12 65.2034 Q1115.75 67.5124 1120.25 67.5124 Q1126.45 67.5124 1130.17 63.1374 Q1133.94 58.7219 1133.94 51.4303 L1133.94 49.7694 L1126.53 49.7694 M1141.4 46.6907 L1141.4 72.576 L1133.94 72.576 L1133.94 65.6895 Q1131.39 69.8214 1127.58 71.8063 Q1123.77 73.7508 1118.27 73.7508 Q1111.3 73.7508 1107.17 69.8619 Q1103.07 65.9325 1103.07 59.3701 Q1103.07 51.7138 1108.18 47.825 Q1113.32 43.9361 1123.49 43.9361 L1133.94 43.9361 L1133.94 43.2069 Q1133.94 38.0623 1130.54 35.2672 Q1127.18 32.4315 1121.06 32.4315 Q1117.17 32.4315 1113.49 33.3632 Q1109.8 34.295 1106.4 36.1584 L1106.4 29.2718 Q1110.49 27.692 1114.34 26.9223 Q1118.18 26.1121 1121.83 26.1121 Q1131.67 26.1121 1136.53 31.2163 Q1141.4 36.3204 1141.4 46.6907 Z" fill="#000000" fill-rule="nonzero" fill-opacity="1" /><path clip-path="url(#clip710)" d="M1189.4 28.9478 L1189.4 35.9153 Q1186.24 34.1734 1183.04 33.3227 Q1179.88 32.4315 1176.64 32.4315 Q1169.39 32.4315 1165.38 37.0496 Q1161.37 41.6271 1161.37 49.9314 Q1161.37 58.2358 1165.38 62.8538 Q1169.39 67.4314 1176.64 67.4314 Q1179.88 67.4314 1183.04 66.5807 Q1186.24 65.6895 1189.4 63.9476 L1189.4 70.8341 Q1186.28 72.2924 1182.92 73.0216 Q1179.6 73.7508 1175.83 73.7508 Q1165.58 73.7508 1159.54 67.3098 Q1153.51 60.8689 1153.51 49.9314 Q1153.51 38.832 1159.58 32.472 Q1165.7 26.1121 1176.31 26.1121 Q1179.76 26.1121 1183.04 26.8413 Q1186.32 27.5299 1189.4 28.9478 Z" fill="#000000" fill-rule="nonzero" fill-opacity="1" /><path clip-path="url(#clip710)" d="M1202.36 27.2059 L1209.82 27.2059 L1209.82 72.576 L1202.36 72.576 L1202.36 27.2059 M1202.36 9.54393 L1209.82 9.54393 L1209.82 18.9825 L1202.36 18.9825 L1202.36 9.54393 Z" fill="#000000" fill-rule="nonzero" fill-opacity="1" /><path clip-path="url(#clip710)" d="M1232.78 14.324 L1232.78 27.2059 L1248.14 27.2059 L1248.14 32.9987 L1232.78 32.9987 L1232.78 57.6282 Q1232.78 63.1779 1234.28 64.7578 Q1235.82 66.3376 1240.48 66.3376 L1248.14 66.3376 L1248.14 72.576 L1240.48 72.576 Q1231.85 72.576 1228.57 69.3758 Q1225.29 66.1351 1225.29 57.6282 L1225.29 32.9987 L1219.82 32.9987 L1219.82 27.2059 L1225.29 27.2059 L1225.29 14.324 L1232.78 14.324 Z" fill="#000000" fill-rule="nonzero" fill-opacity="1" /><path clip-path="url(#clip710)" d="M1276.82 76.7889 Q1273.66 84.8907 1270.66 87.3618 Q1267.66 89.8329 1262.64 89.8329 L1256.68 89.8329 L1256.68 83.5945 L1261.06 83.5945 Q1264.14 83.5945 1265.84 82.1361 Q1267.54 80.6778 1269.61 75.2496 L1270.94 71.8468 L1252.59 27.2059 L1260.49 27.2059 L1274.67 62.6918 L1288.85 27.2059 L1296.75 27.2059 L1276.82 76.7889 Z" fill="#000000" fill-rule="nonzero" fill-opacity="1" /><path clip-path="url(#clip710)" d="M1350.99 32.4315 Q1344.99 32.4315 1341.51 37.1306 Q1338.03 41.7891 1338.03 49.9314 Q1338.03 58.0738 1341.47 62.7728 Q1344.95 67.4314 1350.99 67.4314 Q1356.94 67.4314 1360.43 62.7323 Q1363.91 58.0333 1363.91 49.9314 Q1363.91 41.8701 1360.43 37.1711 Q1356.94 32.4315 1350.99 32.4315 M1350.99 26.1121 Q1360.71 26.1121 1366.26 32.4315 Q1371.81 38.7509 1371.81 49.9314 Q1371.81 61.0714 1366.26 67.4314 Q1360.71 73.7508 1350.99 73.7508 Q1341.23 73.7508 1335.68 67.4314 Q1330.17 61.0714 1330.17 49.9314 Q1330.17 38.7509 1335.68 32.4315 Q1341.23 26.1121 1350.99 26.1121 Z" fill="#000000" fill-rule="nonzero" fill-opacity="1" /><path clip-path="url(#clip710)" d="M1407.14 9.54393 L1407.14 15.7418 L1400.01 15.7418 Q1396 15.7418 1394.42 17.3622 Q1392.88 18.9825 1392.88 23.1955 L1392.88 27.2059 L1405.15 27.2059 L1405.15 32.9987 L1392.88 32.9987 L1392.88 72.576 L1385.38 72.576 L1385.38 32.9987 L1378.25 32.9987 L1378.25 27.2059 L1385.38 27.2059 L1385.38 24.0462 Q1385.38 16.471 1388.91 13.0277 Q1392.43 9.54393 1400.09 9.54393 L1407.14 9.54393 Z" fill="#000000" fill-rule="nonzero" fill-opacity="1" /><path clip-path="url(#clip710)" d="M1468.67 28.5427 L1468.67 35.5912 Q1465.51 33.9709 1462.11 33.1607 Q1458.7 32.3505 1455.06 32.3505 Q1449.51 32.3505 1446.71 34.0519 Q1443.96 35.7533 1443.96 39.156 Q1443.96 41.7486 1445.94 43.2475 Q1447.93 44.7058 1453.92 46.0426 L1456.48 46.6097 Q1464.41 48.3111 1467.74 51.4303 Q1471.1 54.509 1471.1 60.0587 Q1471.1 66.3781 1466.08 70.0644 Q1461.09 73.7508 1452.34 73.7508 Q1448.7 73.7508 1444.73 73.0216 Q1440.8 72.3329 1436.42 70.9151 L1436.42 63.2184 Q1440.56 65.3654 1444.57 66.4591 Q1448.58 67.5124 1452.51 67.5124 Q1457.77 67.5124 1460.61 65.73 Q1463.44 63.9071 1463.44 60.6258 Q1463.44 57.5877 1461.38 55.9673 Q1459.35 54.3469 1452.42 52.8481 L1449.83 52.2405 Q1442.9 50.7821 1439.83 47.7845 Q1436.75 44.7463 1436.75 39.4801 Q1436.75 33.0797 1441.28 29.5959 Q1445.82 26.1121 1454.17 26.1121 Q1458.3 26.1121 1461.94 26.7198 Q1465.59 27.3274 1468.67 28.5427 Z" fill="#000000" fill-rule="nonzero" fill-opacity="1" /><path clip-path="url(#clip710)" d="M1500.55 32.4315 Q1494.55 32.4315 1491.07 37.1306 Q1487.59 41.7891 1487.59 49.9314 Q1487.59 58.0738 1491.03 62.7728 Q1494.51 67.4314 1500.55 67.4314 Q1506.5 67.4314 1509.99 62.7323 Q1513.47 58.0333 1513.47 49.9314 Q1513.47 41.8701 1509.99 37.1711 Q1506.5 32.4315 1500.55 32.4315 M1500.55 26.1121 Q1510.27 26.1121 1515.82 32.4315 Q1521.37 38.7509 1521.37 49.9314 Q1521.37 61.0714 1515.82 67.4314 Q1510.27 73.7508 1500.55 73.7508 Q1490.79 73.7508 1485.24 67.4314 Q1479.73 61.0714 1479.73 49.9314 Q1479.73 38.7509 1485.24 32.4315 Q1490.79 26.1121 1500.55 26.1121 Z" fill="#000000" fill-rule="nonzero" fill-opacity="1" /><path clip-path="url(#clip710)" d="M1533.73 27.2059 L1541.18 27.2059 L1541.18 72.576 L1533.73 72.576 L1533.73 27.2059 M1533.73 9.54393 L1541.18 9.54393 L1541.18 18.9825 L1533.73 18.9825 L1533.73 9.54393 Z" fill="#000000" fill-rule="nonzero" fill-opacity="1" /><path clip-path="url(#clip710)" d="M1556.78 9.54393 L1564.23 9.54393 L1564.23 72.576 L1556.78 72.576 L1556.78 9.54393 Z" fill="#000000" fill-rule="nonzero" fill-opacity="1" /><path clip-path="url(#clip710)" d="M1606.2 27.2059 L1613.65 27.2059 L1613.65 72.576 L1606.2 72.576 L1606.2 27.2059 M1606.2 9.54393 L1613.65 9.54393 L1613.65 18.9825 L1606.2 18.9825 L1606.2 9.54393 Z" fill="#000000" fill-rule="nonzero" fill-opacity="1" /><path clip-path="url(#clip710)" d="M1666.96 45.1919 L1666.96 72.576 L1659.51 72.576 L1659.51 45.4349 Q1659.51 38.994 1656.99 35.7938 Q1654.48 32.5936 1649.46 32.5936 Q1643.42 32.5936 1639.94 36.4419 Q1636.46 40.2903 1636.46 46.9338 L1636.46 72.576 L1628.96 72.576 L1628.96 27.2059 L1636.46 27.2059 L1636.46 34.2544 Q1639.13 30.163 1642.74 28.1376 Q1646.38 26.1121 1651.12 26.1121 Q1658.94 26.1121 1662.95 30.9732 Q1666.96 35.7938 1666.96 45.1919 Z" fill="#000000" fill-rule="nonzero" fill-opacity="1" /><path clip-path="url(#clip710)" d="M1714.48 28.9478 L1714.48 35.9153 Q1711.32 34.1734 1708.12 33.3227 Q1704.96 32.4315 1701.72 32.4315 Q1694.47 32.4315 1690.46 37.0496 Q1686.44 41.6271 1686.44 49.9314 Q1686.44 58.2358 1690.46 62.8538 Q1694.47 67.4314 1701.72 67.4314 Q1704.96 67.4314 1708.12 66.5807 Q1711.32 65.6895 1714.48 63.9476 L1714.48 70.8341 Q1711.36 72.2924 1708 73.0216 Q1704.67 73.7508 1700.91 73.7508 Q1690.66 73.7508 1684.62 67.3098 Q1678.59 60.8689 1678.59 49.9314 Q1678.59 38.832 1684.66 32.472 Q1690.78 26.1121 1701.39 26.1121 Q1704.84 26.1121 1708.12 26.8413 Q1711.4 27.5299 1714.48 28.9478 Z" fill="#000000" fill-rule="nonzero" fill-opacity="1" /><path clip-path="url(#clip710)" d="M1727.44 9.54393 L1734.89 9.54393 L1734.89 72.576 L1727.44 72.576 L1727.44 9.54393 Z" fill="#000000" fill-rule="nonzero" fill-opacity="1" /><path clip-path="url(#clip710)" d="M1749.72 54.671 L1749.72 27.2059 L1757.17 27.2059 L1757.17 54.3874 Q1757.17 60.8284 1759.69 64.0691 Q1762.2 67.2693 1767.22 67.2693 Q1773.26 67.2693 1776.74 63.421 Q1780.26 59.5726 1780.26 52.9291 L1780.26 27.2059 L1787.72 27.2059 L1787.72 72.576 L1780.26 72.576 L1780.26 65.6084 Q1777.55 69.7404 1773.94 71.7658 Q1770.38 73.7508 1765.64 73.7508 Q1757.82 73.7508 1753.77 68.8897 Q1749.72 64.0286 1749.72 54.671 M1768.48 26.1121 L1768.48 26.1121 Z" fill="#000000" fill-rule="nonzero" fill-opacity="1" /><path clip-path="url(#clip710)" d="M1832.93 34.0924 L1832.93 9.54393 L1840.38 9.54393 L1840.38 72.576 L1832.93 72.576 L1832.93 65.7705 Q1830.58 69.8214 1826.97 71.8063 Q1823.41 73.7508 1818.38 73.7508 Q1810.16 73.7508 1804.97 67.1883 Q1799.83 60.6258 1799.83 49.9314 Q1799.83 39.2371 1804.97 32.6746 Q1810.16 26.1121 1818.38 26.1121 Q1823.41 26.1121 1826.97 28.0971 Q1830.58 30.0415 1832.93 34.0924 M1807.53 49.9314 Q1807.53 58.1548 1810.89 62.8538 Q1814.29 67.5124 1820.21 67.5124 Q1826.12 67.5124 1829.52 62.8538 Q1832.93 58.1548 1832.93 49.9314 Q1832.93 41.7081 1829.52 37.0496 Q1826.12 32.3505 1820.21 32.3505 Q1814.29 32.3505 1810.89 37.0496 Q1807.53 41.7081 1807.53 49.9314 Z" fill="#000000" fill-rule="nonzero" fill-opacity="1" /><path clip-path="url(#clip710)" d="M1855.73 27.2059 L1863.19 27.2059 L1863.19 72.576 L1855.73 72.576 L1855.73 27.2059 M1855.73 9.54393 L1863.19 9.54393 L1863.19 18.9825 L1855.73 18.9825 L1855.73 9.54393 Z" fill="#000000" fill-rule="nonzero" fill-opacity="1" /><path clip-path="url(#clip710)" d="M1916.5 45.1919 L1916.5 72.576 L1909.04 72.576 L1909.04 45.4349 Q1909.04 38.994 1906.53 35.7938 Q1904.02 32.5936 1899 32.5936 Q1892.96 32.5936 1889.48 36.4419 Q1885.99 40.2903 1885.99 46.9338 L1885.99 72.576 L1878.5 72.576 L1878.5 27.2059 L1885.99 27.2059 L1885.99 34.2544 Q1888.67 30.163 1892.27 28.1376 Q1895.92 26.1121 1900.66 26.1121 Q1908.47 26.1121 1912.49 30.9732 Q1916.5 35.7938 1916.5 45.1919 Z" fill="#000000" fill-rule="nonzero" fill-opacity="1" /><path clip-path="url(#clip710)" d="M1961.22 49.3643 Q1961.22 41.2625 1957.86 36.8065 Q1954.53 32.3505 1948.5 32.3505 Q1942.5 32.3505 1939.14 36.8065 Q1935.82 41.2625 1935.82 49.3643 Q1935.82 57.4256 1939.14 61.8816 Q1942.5 66.3376 1948.5 66.3376 Q1954.53 66.3376 1957.86 61.8816 Q1961.22 57.4256 1961.22 49.3643 M1968.67 66.9452 Q1968.67 78.5308 1963.53 84.1616 Q1958.38 89.8329 1947.77 89.8329 Q1943.84 89.8329 1940.36 89.2252 Q1936.87 88.6581 1933.59 87.4428 L1933.59 80.1917 Q1936.87 81.9741 1940.07 82.8248 Q1943.27 83.6755 1946.59 83.6755 Q1953.93 83.6755 1957.57 79.8271 Q1961.22 76.0193 1961.22 68.282 L1961.22 64.5957 Q1958.91 68.6061 1955.3 70.5911 Q1951.7 72.576 1946.68 72.576 Q1938.33 72.576 1933.23 66.2161 Q1928.12 59.8562 1928.12 49.3643 Q1928.12 38.832 1933.23 32.472 Q1938.33 26.1121 1946.68 26.1121 Q1951.7 26.1121 1955.3 28.0971 Q1958.91 30.082 1961.22 34.0924 L1961.22 27.2059 L1968.67 27.2059 L1968.67 66.9452 Z" fill="#000000" fill-rule="nonzero" fill-opacity="1" /><path clip-path="url(#clip710)" d="M2033.36 9.54393 L2033.36 15.7418 L2026.23 15.7418 Q2022.22 15.7418 2020.64 17.3622 Q2019.11 18.9825 2019.11 23.1955 L2019.11 27.2059 L2031.38 27.2059 L2031.38 32.9987 L2019.11 32.9987 L2019.11 72.576 L2011.61 72.576 L2011.61 32.9987 L2004.48 32.9987 L2004.48 27.2059 L2011.61 27.2059 L2011.61 24.0462 Q2011.61 16.471 2015.14 13.0277 Q2018.66 9.54393 2026.32 9.54393 L2033.36 9.54393 Z" fill="#000000" fill-rule="nonzero" fill-opacity="1" /><path clip-path="url(#clip710)" d="M2065.89 34.1734 Q2064.64 33.4443 2063.14 33.1202 Q2061.68 32.7556 2059.9 32.7556 Q2053.58 32.7556 2050.18 36.8875 Q2046.81 40.9789 2046.81 48.6757 L2046.81 72.576 L2039.32 72.576 L2039.32 27.2059 L2046.81 27.2059 L2046.81 34.2544 Q2049.16 30.1225 2052.93 28.1376 Q2056.7 26.1121 2062.09 26.1121 Q2062.85 26.1121 2063.79 26.2337 Q2064.72 26.3147 2065.85 26.5172 L2065.89 34.1734 Z" fill="#000000" fill-rule="nonzero" fill-opacity="1" /><path clip-path="url(#clip710)" d="M2110.7 48.0275 L2110.7 51.6733 L2076.43 51.6733 Q2076.91 59.3701 2081.04 63.421 Q2085.22 67.4314 2092.63 67.4314 Q2096.92 67.4314 2100.93 66.3781 Q2104.98 65.3249 2108.95 63.2184 L2108.95 70.267 Q2104.94 71.9684 2100.73 72.8596 Q2096.52 73.7508 2092.18 73.7508 Q2081.33 73.7508 2074.97 67.4314 Q2068.65 61.1119 2068.65 50.3365 Q2068.65 39.1965 2074.64 32.6746 Q2080.68 26.1121 2090.89 26.1121 Q2100.04 26.1121 2105.35 32.0264 Q2110.7 37.9003 2110.7 48.0275 M2103.24 45.84 Q2103.16 39.7232 2099.8 36.0774 Q2096.48 32.4315 2090.97 32.4315 Q2084.73 32.4315 2080.96 35.9558 Q2077.24 39.4801 2076.67 45.8805 L2103.24 45.84 Z" fill="#000000" fill-rule="nonzero" fill-opacity="1" /><path clip-path="url(#clip710)" d="M2161.74 48.0275 L2161.74 51.6733 L2127.47 51.6733 Q2127.95 59.3701 2132.08 63.421 Q2136.26 67.4314 2143.67 67.4314 Q2147.96 67.4314 2151.97 66.3781 Q2156.03 65.3249 2160 63.2184 L2160 70.267 Q2155.99 71.9684 2151.77 72.8596 Q2147.56 73.7508 2143.22 73.7508 Q2132.37 73.7508 2126.01 67.4314 Q2119.69 61.1119 2119.69 50.3365 Q2119.69 39.1965 2125.68 32.6746 Q2131.72 26.1121 2141.93 26.1121 Q2151.08 26.1121 2156.39 32.0264 Q2161.74 37.9003 2161.74 48.0275 M2154.28 45.84 Q2154.2 39.7232 2150.84 36.0774 Q2147.52 32.4315 2142.01 32.4315 Q2135.77 32.4315 2132 35.9558 Q2128.28 39.4801 2127.71 45.8805 L2154.28 45.84 Z" fill="#000000" fill-rule="nonzero" fill-opacity="1" /><path clip-path="url(#clip710)" d="M2170.73 27.2059 L2206.14 27.2059 L2206.14 34.0114 L2178.1 66.6212 L2206.14 66.6212 L2206.14 72.576 L2169.72 72.576 L2169.72 65.7705 L2197.75 33.1607 L2170.73 33.1607 L2170.73 27.2059 Z" fill="#000000" fill-rule="nonzero" fill-opacity="1" /><path clip-path="url(#clip710)" d="M2217.52 27.2059 L2224.97 27.2059 L2224.97 72.576 L2217.52 72.576 L2217.52 27.2059 M2217.52 9.54393 L2224.97 9.54393 L2224.97 18.9825 L2217.52 18.9825 L2217.52 9.54393 Z" fill="#000000" fill-rule="nonzero" fill-opacity="1" /><path clip-path="url(#clip710)" d="M2278.28 45.1919 L2278.28 72.576 L2270.83 72.576 L2270.83 45.4349 Q2270.83 38.994 2268.32 35.7938 Q2265.81 32.5936 2260.78 32.5936 Q2254.75 32.5936 2251.26 36.4419 Q2247.78 40.2903 2247.78 46.9338 L2247.78 72.576 L2240.28 72.576 L2240.28 27.2059 L2247.78 27.2059 L2247.78 34.2544 Q2250.45 30.163 2254.06 28.1376 Q2257.7 26.1121 2262.44 26.1121 Q2270.26 26.1121 2274.27 30.9732 Q2278.28 35.7938 2278.28 45.1919 Z" fill="#000000" fill-rule="nonzero" fill-opacity="1" /><path clip-path="url(#clip710)" d="M2323 49.3643 Q2323 41.2625 2319.64 36.8065 Q2316.32 32.3505 2310.28 32.3505 Q2304.29 32.3505 2300.93 36.8065 Q2297.6 41.2625 2297.6 49.3643 Q2297.6 57.4256 2300.93 61.8816 Q2304.29 66.3376 2310.28 66.3376 Q2316.32 66.3376 2319.64 61.8816 Q2323 57.4256 2323 49.3643 M2330.46 66.9452 Q2330.46 78.5308 2325.31 84.1616 Q2320.17 89.8329 2309.56 89.8329 Q2305.63 89.8329 2302.14 89.2252 Q2298.66 88.6581 2295.38 87.4428 L2295.38 80.1917 Q2298.66 81.9741 2301.86 82.8248 Q2305.06 83.6755 2308.38 83.6755 Q2315.71 83.6755 2319.36 79.8271 Q2323 76.0193 2323 68.282 L2323 64.5957 Q2320.7 68.6061 2317.09 70.5911 Q2313.48 72.576 2308.46 72.576 Q2300.12 72.576 2295.01 66.2161 Q2289.91 59.8562 2289.91 49.3643 Q2289.91 38.832 2295.01 32.472 Q2300.12 26.1121 2308.46 26.1121 Q2313.48 26.1121 2317.09 28.0971 Q2320.7 30.082 2323 34.0924 L2323 27.2059 L2330.46 27.2059 L2330.46 66.9452 Z" fill="#000000" fill-rule="nonzero" fill-opacity="1" /><polyline clip-path="url(#clip712)" style="stroke:#009af9; stroke-linecap:round; stroke-linejoin:round; stroke-width:4; stroke-opacity:1; fill:none" points="425.648,1386.14 437.829,1386.14 550.461,1386.14 618.148,1386.14 675.376,1386.14 737.542,1386.14 794.854,1386.14 856.298,1386.14 927.487,1386.14 990.752,1386.14 1046.23,1386.14 1076.47,1386.14 1106.71,1386.13 1121.93,1386.05 1137.14,1385.29 1144.74,1383.84 1152.35,1380.35 1156.15,1377.2 1159.95,1372.6 1163.76,1365.98 1167.56,1356.69 1169.66,1350.11 1171.76,1342.3 1173.87,1333.09 1175.97,1322.32 1178.07,1309.79 1180.17,1295.31 1182.27,1278.69 1184.38,1259.73 1186.48,1238.26 1188.58,1214.12 1190.68,1187.15 1192.79,1157.23 1194.89,1124.3 1196.99,1088.3 1199.09,1049.25 1201.19,1007.2 1203.3,962.301 1205.4,914.73 1207.5,864.754 1209.6,812.706 1211.71,758.992 1213.81,704.084 1215.91,648.52 1218.01,592.892 1220.11,537.844 1222.22,484.051 1224.32,432.215 1226.42,383.045 1227.47,359.679 1228.52,337.243 1229.58,315.818 1230.63,295.486 1231.68,276.327 1232.73,258.414 1233.78,241.818 1234.83,226.606 1235.83,213.473 1236.83,201.696 1237.83,191.319 1238.83,182.381 1239.83,174.916 1240.83,168.951 1241.83,164.509 1242.83,161.607 1243.83,160.256 1244.83,160.462 1245.83,162.223 1246.83,165.532 1247.83,170.378 1248.83,176.741 1249.83,184.598 1250.83,193.919 1251.83,204.67 1252.83,216.81 1253.83,230.294 1254.83,245.072 1255.83,261.092 1256.83,278.295 1257.83,296.619 1258.83,316.001 1259.83,336.372 1260.83,357.662 1261.83,379.8 1262.83,402.712 1264.83,450.554 1266.83,500.58 1270.83,604.754 1274.84,710.549 1276.84,762.719 1278.84,813.778 1280.84,863.32 1282.84,910.997 1284.84,956.517 1286.84,999.649 1288.84,1040.22 1290.84,1078.1 1292.84,1113.22 1294.84,1145.58 1296.84,1175.17 1298.84,1202.07 1300.92,1227.27 1303,1249.78 1305.08,1269.75 1307.16,1287.34 1309.24,1302.74 1311.32,1316.14 1313.4,1327.71 1315.48,1337.65 1317.56,1346.12 1319.64,1353.3 1321.72,1359.36 1323.79,1364.42 1327.95,1372.12 1332.11,1377.32 1336.27,1380.75 1340.43,1382.96 1344.59,1384.35 1348.75,1385.21 1357.07,1386.02 1365.39,1386.29 1393.4,1386.39 1421.41,1386.4 1489.81,1386.4 1552.47,1386.4 1610.34,1386.4 1668.96,1386.4 1734.65,1386.4 1794.18,1386.4 1862.34,1386.4 1925.45,1386.4 1987.67,1386.4 2048.07,1386.4 2110,1386.4 2177.85,1386.4 2276.41,1386.4 2296.63,1386.4 "/>
</svg>
