<?xml version="1.0" encoding="utf-8"?>
<svg xmlns="http://www.w3.org/2000/svg" xmlns:xlink="http://www.w3.org/1999/xlink" width="900" height="1200" viewBox="0 0 3600 4800">
<defs>
  <clipPath id="clip360">
    <rect x="0" y="0" width="3600" height="4800"/>
  </clipPath>
</defs>
<path clip-path="url(#clip360)" d="M0 4800 L3600 4800 L3600 0 L0 0  Z" fill="#ffffff" fill-rule="evenodd" fill-opacity="1"/>
<defs>
  <clipPath id="clip361">
    <rect x="960" y="480" width="3361" height="3361"/>
  </clipPath>
</defs>
<path clip-path="url(#clip360)" d="M799.221 4141.75 L3332.28 4141.75 L3332.28 646.345 L799.221 646.345  Z" fill="#ffffff" fill-rule="evenodd" fill-opacity="1"/>
<defs>
  <clipPath id="clip362">
    <rect x="799" y="646" width="2534" height="3496"/>
  </clipPath>
</defs>
<polyline clip-path="url(#clip362)" style="stroke:#000000; stroke-linecap:round; stroke-linejoin:round; stroke-width:4; stroke-opacity:0.1; fill:none" points="994.048,4141.75 994.048,646.345 "/>
<polyline clip-path="url(#clip362)" style="stroke:#000000; stroke-linecap:round; stroke-linejoin:round; stroke-width:4; stroke-opacity:0.1; fill:none" points="1653.56,4141.75 1653.56,646.345 "/>
<polyline clip-path="url(#clip362)" style="stroke:#000000; stroke-linecap:round; stroke-linejoin:round; stroke-width:4; stroke-opacity:0.1; fill:none" points="2313.07,4141.75 2313.07,646.345 "/>
<polyline clip-path="url(#clip362)" style="stroke:#000000; stroke-linecap:round; stroke-linejoin:round; stroke-width:4; stroke-opacity:0.1; fill:none" points="2972.58,4141.75 2972.58,646.345 "/>
<polyline clip-path="url(#clip360)" style="stroke:#000000; stroke-linecap:round; stroke-linejoin:round; stroke-width:4; stroke-opacity:1; fill:none" points="799.221,4141.75 3332.28,4141.75 "/>
<polyline clip-path="url(#clip360)" style="stroke:#000000; stroke-linecap:round; stroke-linejoin:round; stroke-width:4; stroke-opacity:1; fill:none" points="994.048,4141.75 994.048,4122.85 "/>
<polyline clip-path="url(#clip360)" style="stroke:#000000; stroke-linecap:round; stroke-linejoin:round; stroke-width:4; stroke-opacity:1; fill:none" points="1653.56,4141.75 1653.56,4122.85 "/>
<polyline clip-path="url(#clip360)" style="stroke:#000000; stroke-linecap:round; stroke-linejoin:round; stroke-width:4; stroke-opacity:1; fill:none" points="2313.07,4141.75 2313.07,4122.85 "/>
<polyline clip-path="url(#clip360)" style="stroke:#000000; stroke-linecap:round; stroke-linejoin:round; stroke-width:4; stroke-opacity:1; fill:none" points="2972.58,4141.75 2972.58,4122.85 "/>
<path clip-path="url(#clip360)" d="M903.875 4259.26 L992.902 4259.26 L992.902 4271.07 L903.875 4271.07 L903.875 4259.26 Z" fill="#000000" fill-rule="nonzero" fill-opacity="1" /><path clip-path="url(#clip360)" d="M1035.26 4297.94 L1084.22 4297.94 L1084.22 4309.75 L1018.39 4309.75 L1018.39 4297.94 Q1026.37 4289.68 1040.12 4275.79 Q1053.94 4261.83 1057.49 4257.8 Q1064.22 4250.23 1066.86 4245.03 Q1069.57 4239.75 1069.57 4234.68 Q1069.57 4226.41 1063.74 4221.21 Q1057.97 4216 1048.67 4216 Q1042.07 4216 1034.71 4218.29 Q1027.42 4220.58 1019.08 4225.23 L1019.08 4211.07 Q1027.56 4207.66 1034.92 4205.93 Q1042.28 4204.19 1048.39 4204.19 Q1064.5 4204.19 1074.08 4212.25 Q1083.67 4220.3 1083.67 4233.78 Q1083.67 4240.16 1081.24 4245.93 Q1078.87 4251.62 1072.55 4259.4 Q1070.82 4261.41 1061.51 4271.07 Q1052.21 4280.65 1035.26 4297.94 Z" fill="#000000" fill-rule="nonzero" fill-opacity="1" /><path clip-path="url(#clip360)" d="M1653.56 4215.3 Q1642.72 4215.3 1637.24 4226 Q1631.82 4236.62 1631.82 4258.01 Q1631.82 4279.33 1637.24 4290.03 Q1642.72 4300.65 1653.56 4300.65 Q1664.46 4300.65 1669.88 4290.03 Q1675.36 4279.33 1675.36 4258.01 Q1675.36 4236.62 1669.88 4226 Q1664.46 4215.3 1653.56 4215.3 M1653.56 4204.19 Q1670.99 4204.19 1680.16 4218.01 Q1689.39 4231.76 1689.39 4258.01 Q1689.39 4284.19 1680.16 4298.01 Q1670.99 4311.76 1653.56 4311.76 Q1636.13 4311.76 1626.89 4298.01 Q1617.73 4284.19 1617.73 4258.01 Q1617.73 4231.76 1626.89 4218.01 Q1636.13 4204.19 1653.56 4204.19 Z" fill="#000000" fill-rule="nonzero" fill-opacity="1" /><path clip-path="url(#clip360)" d="M2297.03 4297.94 L2345.98 4297.94 L2345.98 4309.75 L2280.15 4309.75 L2280.15 4297.94 Q2288.14 4289.68 2301.89 4275.79 Q2315.71 4261.83 2319.25 4257.8 Q2325.98 4250.23 2328.62 4245.03 Q2331.33 4239.75 2331.33 4234.68 Q2331.33 4226.41 2325.5 4221.21 Q2319.73 4216 2310.43 4216 Q2303.83 4216 2296.47 4218.29 Q2289.18 4220.58 2280.85 4225.23 L2280.85 4211.07 Q2289.32 4207.66 2296.68 4205.93 Q2304.04 4204.19 2310.15 4204.19 Q2326.26 4204.19 2335.85 4212.25 Q2345.43 4220.3 2345.43 4233.78 Q2345.43 4240.16 2343 4245.93 Q2340.64 4251.62 2334.32 4259.4 Q2332.58 4261.41 2323.28 4271.07 Q2313.97 4280.65 2297.03 4297.94 Z" fill="#000000" fill-rule="nonzero" fill-opacity="1" /><path clip-path="url(#clip360)" d="M2981.61 4218.29 L2946.19 4273.64 L2981.61 4273.64 L2981.61 4218.29 M2977.93 4206.07 L2995.56 4206.07 L2995.56 4273.64 L3010.36 4273.64 L3010.36 4285.3 L2995.56 4285.3 L2995.56 4309.75 L2981.61 4309.75 L2981.61 4285.3 L2934.8 4285.3 L2934.8 4271.76 L2977.93 4206.07 Z" fill="#000000" fill-rule="nonzero" fill-opacity="1" /><path clip-path="url(#clip360)" d="M1250.44 4446.74 L1250.44 4493.68 L1237.67 4493.68 L1237.67 4447.16 Q1237.67 4436.11 1233.36 4430.63 Q1229.06 4425.14 1220.44 4425.14 Q1210.1 4425.14 1204.12 4431.74 Q1198.15 4438.34 1198.15 4449.73 L1198.15 4493.68 L1185.31 4493.68 L1185.31 4385.63 L1198.15 4385.63 L1198.15 4427.99 Q1202.74 4420.98 1208.92 4417.5 Q1215.17 4414.03 1223.29 4414.03 Q1236.69 4414.03 1243.57 4422.36 Q1250.44 4430.63 1250.44 4446.74 Z" fill="#000000" fill-rule="nonzero" fill-opacity="1" /><path clip-path="url(#clip360)" d="M1306.07 4424.86 Q1295.79 4424.86 1289.82 4432.92 Q1283.85 4440.91 1283.85 4454.86 Q1283.85 4468.82 1289.75 4476.88 Q1295.72 4484.86 1306.07 4484.86 Q1316.28 4484.86 1322.25 4476.81 Q1328.22 4468.75 1328.22 4454.86 Q1328.22 4441.04 1322.25 4432.99 Q1316.28 4424.86 1306.07 4424.86 M1306.07 4414.03 Q1322.74 4414.03 1332.25 4424.86 Q1341.76 4435.7 1341.76 4454.86 Q1341.76 4473.96 1332.25 4484.86 Q1322.74 4495.7 1306.07 4495.7 Q1289.33 4495.7 1279.82 4484.86 Q1270.37 4473.96 1270.37 4454.86 Q1270.37 4435.7 1279.82 4424.86 Q1289.33 4414.03 1306.07 4414.03 Z" fill="#000000" fill-rule="nonzero" fill-opacity="1" /><path clip-path="url(#clip360)" d="M1408.01 4427.85 Q1405.86 4426.6 1403.29 4426.04 Q1400.79 4425.42 1397.73 4425.42 Q1386.9 4425.42 1381.07 4432.5 Q1375.3 4439.52 1375.3 4452.71 L1375.3 4493.68 L1362.46 4493.68 L1362.46 4415.91 L1375.3 4415.91 L1375.3 4427.99 Q1379.33 4420.91 1385.79 4417.5 Q1392.25 4414.03 1401.48 4414.03 Q1402.8 4414.03 1404.4 4414.24 Q1406 4414.38 1407.94 4414.73 L1408.01 4427.85 Z" fill="#000000" fill-rule="nonzero" fill-opacity="1" /><path clip-path="url(#clip360)" d="M1421.42 4415.91 L1434.19 4415.91 L1434.19 4493.68 L1421.42 4493.68 L1421.42 4415.91 M1421.42 4385.63 L1434.19 4385.63 L1434.19 4401.81 L1421.42 4401.81 L1421.42 4385.63 Z" fill="#000000" fill-rule="nonzero" fill-opacity="1" /><path clip-path="url(#clip360)" d="M1455.37 4415.91 L1516.07 4415.91 L1516.07 4427.57 L1468.01 4483.48 L1516.07 4483.48 L1516.07 4493.68 L1453.64 4493.68 L1453.64 4482.02 L1501.69 4426.11 L1455.37 4426.11 L1455.37 4415.91 Z" fill="#000000" fill-rule="nonzero" fill-opacity="1" /><path clip-path="url(#clip360)" d="M1565.72 4424.86 Q1555.44 4424.86 1549.47 4432.92 Q1543.5 4440.91 1543.5 4454.86 Q1543.5 4468.82 1549.4 4476.88 Q1555.37 4484.86 1565.72 4484.86 Q1575.93 4484.86 1581.9 4476.81 Q1587.87 4468.75 1587.87 4454.86 Q1587.87 4441.04 1581.9 4432.99 Q1575.93 4424.86 1565.72 4424.86 M1565.72 4414.03 Q1582.39 4414.03 1591.9 4424.86 Q1601.41 4435.7 1601.41 4454.86 Q1601.41 4473.96 1591.9 4484.86 Q1582.39 4495.7 1565.72 4495.7 Q1548.98 4495.7 1539.47 4484.86 Q1530.03 4473.96 1530.03 4454.86 Q1530.03 4435.7 1539.47 4424.86 Q1548.98 4414.03 1565.72 4414.03 Z" fill="#000000" fill-rule="nonzero" fill-opacity="1" /><path clip-path="url(#clip360)" d="M1687.25 4446.74 L1687.25 4493.68 L1674.47 4493.68 L1674.47 4447.16 Q1674.47 4436.11 1670.16 4430.63 Q1665.86 4425.14 1657.25 4425.14 Q1646.9 4425.14 1640.93 4431.74 Q1634.96 4438.34 1634.96 4449.73 L1634.96 4493.68 L1622.11 4493.68 L1622.11 4415.91 L1634.96 4415.91 L1634.96 4427.99 Q1639.54 4420.98 1645.72 4417.5 Q1651.97 4414.03 1660.09 4414.03 Q1673.5 4414.03 1680.37 4422.36 Q1687.25 4430.63 1687.25 4446.74 Z" fill="#000000" fill-rule="nonzero" fill-opacity="1" /><path clip-path="url(#clip360)" d="M1725.37 4393.82 L1725.37 4415.91 L1751.69 4415.91 L1751.69 4425.84 L1725.37 4425.84 L1725.37 4468.06 Q1725.37 4477.57 1727.94 4480.28 Q1730.58 4482.99 1738.57 4482.99 L1751.69 4482.99 L1751.69 4493.68 L1738.57 4493.68 Q1723.77 4493.68 1718.15 4488.2 Q1712.52 4482.64 1712.52 4468.06 L1712.52 4425.84 L1703.15 4425.84 L1703.15 4415.91 L1712.52 4415.91 L1712.52 4393.82 L1725.37 4393.82 Z" fill="#000000" fill-rule="nonzero" fill-opacity="1" /><path clip-path="url(#clip360)" d="M1803.84 4454.59 Q1788.36 4454.59 1782.39 4458.13 Q1776.41 4461.67 1776.41 4470.21 Q1776.41 4477.02 1780.86 4481.04 Q1785.37 4485 1793.08 4485 Q1803.7 4485 1810.09 4477.5 Q1816.55 4469.93 1816.55 4457.43 L1816.55 4454.59 L1803.84 4454.59 M1829.33 4449.31 L1829.33 4493.68 L1816.55 4493.68 L1816.55 4481.88 Q1812.18 4488.96 1805.65 4492.36 Q1799.12 4495.7 1789.68 4495.7 Q1777.73 4495.7 1770.65 4489.03 Q1763.64 4482.29 1763.64 4471.04 Q1763.64 4457.92 1772.39 4451.25 Q1781.2 4444.59 1798.64 4444.59 L1816.55 4444.59 L1816.55 4443.34 Q1816.55 4434.52 1810.72 4429.73 Q1804.95 4424.86 1794.47 4424.86 Q1787.8 4424.86 1781.48 4426.46 Q1775.16 4428.06 1769.33 4431.25 L1769.33 4419.45 Q1776.34 4416.74 1782.94 4415.42 Q1789.54 4414.03 1795.79 4414.03 Q1812.66 4414.03 1821 4422.78 Q1829.33 4431.53 1829.33 4449.31 Z" fill="#000000" fill-rule="nonzero" fill-opacity="1" /><path clip-path="url(#clip360)" d="M1855.65 4385.63 L1868.43 4385.63 L1868.43 4493.68 L1855.65 4493.68 L1855.65 4385.63 Z" fill="#000000" fill-rule="nonzero" fill-opacity="1" /><path clip-path="url(#clip360)" d="M1991.55 4427.71 L1991.55 4385.63 L2004.33 4385.63 L2004.33 4493.68 L1991.55 4493.68 L1991.55 4482.02 Q1987.52 4488.96 1981.34 4492.36 Q1975.23 4495.7 1966.62 4495.7 Q1952.52 4495.7 1943.63 4484.45 Q1934.82 4473.2 1934.82 4454.86 Q1934.82 4436.53 1943.63 4425.28 Q1952.52 4414.03 1966.62 4414.03 Q1975.23 4414.03 1981.34 4417.43 Q1987.52 4420.77 1991.55 4427.71 M1948.01 4454.86 Q1948.01 4468.96 1953.77 4477.02 Q1959.61 4485 1969.75 4485 Q1979.88 4485 1985.72 4477.02 Q1991.55 4468.96 1991.55 4454.86 Q1991.55 4440.77 1985.72 4432.78 Q1979.88 4424.73 1969.75 4424.73 Q1959.61 4424.73 1953.77 4432.78 Q1948.01 4440.77 1948.01 4454.86 Z" fill="#000000" fill-rule="nonzero" fill-opacity="1" /><path clip-path="url(#clip360)" d="M2030.65 4415.91 L2043.43 4415.91 L2043.43 4493.68 L2030.65 4493.68 L2030.65 4415.91 M2030.65 4385.63 L2043.43 4385.63 L2043.43 4401.81 L2030.65 4401.81 L2030.65 4385.63 Z" fill="#000000" fill-rule="nonzero" fill-opacity="1" /><path clip-path="url(#clip360)" d="M2130.72 4430.84 Q2135.51 4422.23 2142.18 4418.13 Q2148.84 4414.03 2157.87 4414.03 Q2170.02 4414.03 2176.62 4422.57 Q2183.22 4431.04 2183.22 4446.74 L2183.22 4493.68 L2170.37 4493.68 L2170.37 4447.16 Q2170.37 4435.98 2166.41 4430.56 Q2162.45 4425.14 2154.33 4425.14 Q2144.4 4425.14 2138.63 4431.74 Q2132.87 4438.34 2132.87 4449.73 L2132.87 4493.68 L2120.02 4493.68 L2120.02 4447.16 Q2120.02 4435.91 2116.06 4430.56 Q2112.11 4425.14 2103.84 4425.14 Q2094.05 4425.14 2088.29 4431.81 Q2082.52 4438.41 2082.52 4449.73 L2082.52 4493.68 L2069.68 4493.68 L2069.68 4415.91 L2082.52 4415.91 L2082.52 4427.99 Q2086.9 4420.84 2093.01 4417.43 Q2099.12 4414.03 2107.52 4414.03 Q2115.99 4414.03 2121.9 4418.34 Q2127.87 4422.64 2130.72 4430.84 Z" fill="#000000" fill-rule="nonzero" fill-opacity="1" /><path clip-path="url(#clip360)" d="M2275.23 4451.6 L2275.23 4457.85 L2216.48 4457.85 Q2217.31 4471.04 2224.4 4477.99 Q2231.55 4484.86 2244.26 4484.86 Q2251.62 4484.86 2258.49 4483.06 Q2265.44 4481.25 2272.24 4477.64 L2272.24 4489.73 Q2265.37 4492.64 2258.15 4494.17 Q2250.92 4495.7 2243.49 4495.7 Q2224.88 4495.7 2213.98 4484.86 Q2203.15 4474.03 2203.15 4455.56 Q2203.15 4436.46 2213.42 4425.28 Q2223.77 4414.03 2241.27 4414.03 Q2256.97 4414.03 2266.06 4424.17 Q2275.23 4434.24 2275.23 4451.6 M2262.45 4447.85 Q2262.31 4437.36 2256.55 4431.11 Q2250.86 4424.86 2241.41 4424.86 Q2230.72 4424.86 2224.26 4430.91 Q2217.87 4436.95 2216.9 4447.92 L2262.45 4447.85 Z" fill="#000000" fill-rule="nonzero" fill-opacity="1" /><path clip-path="url(#clip360)" d="M2360.85 4446.74 L2360.85 4493.68 L2348.08 4493.68 L2348.08 4447.16 Q2348.08 4436.11 2343.77 4430.63 Q2339.47 4425.14 2330.85 4425.14 Q2320.51 4425.14 2314.54 4431.74 Q2308.56 4438.34 2308.56 4449.73 L2308.56 4493.68 L2295.72 4493.68 L2295.72 4415.91 L2308.56 4415.91 L2308.56 4427.99 Q2313.15 4420.98 2319.33 4417.5 Q2325.58 4414.03 2333.7 4414.03 Q2347.1 4414.03 2353.98 4422.36 Q2360.85 4430.63 2360.85 4446.74 Z" fill="#000000" fill-rule="nonzero" fill-opacity="1" /><path clip-path="url(#clip360)" d="M2435.92 4418.2 L2435.92 4430.28 Q2430.51 4427.5 2424.67 4426.11 Q2418.84 4424.73 2412.59 4424.73 Q2403.08 4424.73 2398.28 4427.64 Q2393.56 4430.56 2393.56 4436.39 Q2393.56 4440.84 2396.97 4443.41 Q2400.37 4445.91 2410.65 4448.2 L2415.02 4449.17 Q2428.63 4452.09 2434.33 4457.43 Q2440.09 4462.71 2440.09 4472.23 Q2440.09 4483.06 2431.48 4489.38 Q2422.94 4495.7 2407.94 4495.7 Q2401.69 4495.7 2394.88 4494.45 Q2388.15 4493.27 2380.65 4490.84 L2380.65 4477.64 Q2387.73 4481.32 2394.6 4483.2 Q2401.48 4485 2408.22 4485 Q2417.24 4485 2422.1 4481.95 Q2426.97 4478.82 2426.97 4473.2 Q2426.97 4467.99 2423.42 4465.21 Q2419.95 4462.43 2408.08 4459.86 L2403.63 4458.82 Q2391.76 4456.32 2386.48 4451.18 Q2381.2 4445.98 2381.2 4436.95 Q2381.2 4425.98 2388.98 4420 Q2396.76 4414.03 2411.06 4414.03 Q2418.15 4414.03 2424.4 4415.07 Q2430.65 4416.11 2435.92 4418.2 Z" fill="#000000" fill-rule="nonzero" fill-opacity="1" /><path clip-path="url(#clip360)" d="M2460.44 4415.91 L2473.22 4415.91 L2473.22 4493.68 L2460.44 4493.68 L2460.44 4415.91 M2460.44 4385.63 L2473.22 4385.63 L2473.22 4401.81 L2460.44 4401.81 L2460.44 4385.63 Z" fill="#000000" fill-rule="nonzero" fill-opacity="1" /><path clip-path="url(#clip360)" d="M2530.09 4424.86 Q2519.81 4424.86 2513.84 4432.92 Q2507.87 4440.91 2507.87 4454.86 Q2507.87 4468.82 2513.77 4476.88 Q2519.74 4484.86 2530.09 4484.86 Q2540.3 4484.86 2546.27 4476.81 Q2552.24 4468.75 2552.24 4454.86 Q2552.24 4441.04 2546.27 4432.99 Q2540.3 4424.86 2530.09 4424.86 M2530.09 4414.03 Q2546.76 4414.03 2556.27 4424.86 Q2565.78 4435.7 2565.78 4454.86 Q2565.78 4473.96 2556.27 4484.86 Q2546.76 4495.7 2530.09 4495.7 Q2513.35 4495.7 2503.84 4484.86 Q2494.4 4473.96 2494.4 4454.86 Q2494.4 4435.7 2503.84 4424.86 Q2513.35 4414.03 2530.09 4414.03 Z" fill="#000000" fill-rule="nonzero" fill-opacity="1" /><path clip-path="url(#clip360)" d="M2651.62 4446.74 L2651.62 4493.68 L2638.84 4493.68 L2638.84 4447.16 Q2638.84 4436.11 2634.53 4430.63 Q2630.23 4425.14 2621.62 4425.14 Q2611.27 4425.14 2605.3 4431.74 Q2599.33 4438.34 2599.33 4449.73 L2599.33 4493.68 L2586.48 4493.68 L2586.48 4415.91 L2599.33 4415.91 L2599.33 4427.99 Q2603.91 4420.98 2610.09 4417.5 Q2616.34 4414.03 2624.46 4414.03 Q2637.87 4414.03 2644.74 4422.36 Q2651.62 4430.63 2651.62 4446.74 Z" fill="#000000" fill-rule="nonzero" fill-opacity="1" /><path clip-path="url(#clip360)" d="M2721.13 4385.63 L2750.57 4385.63 L2750.57 4395.56 L2733.91 4395.56 L2733.91 4502.5 L2750.57 4502.5 L2750.57 4512.43 L2721.13 4512.43 L2721.13 4385.63 Z" fill="#000000" fill-rule="nonzero" fill-opacity="1" /><path clip-path="url(#clip360)" d="M2838.35 4430.84 Q2843.14 4422.23 2849.81 4418.13 Q2856.48 4414.03 2865.5 4414.03 Q2877.66 4414.03 2884.25 4422.57 Q2890.85 4431.04 2890.85 4446.74 L2890.85 4493.68 L2878 4493.68 L2878 4447.16 Q2878 4435.98 2874.05 4430.56 Q2870.09 4425.14 2861.96 4425.14 Q2852.03 4425.14 2846.27 4431.74 Q2840.5 4438.34 2840.5 4449.73 L2840.5 4493.68 L2827.66 4493.68 L2827.66 4447.16 Q2827.66 4435.91 2823.7 4430.56 Q2819.74 4425.14 2811.48 4425.14 Q2801.69 4425.14 2795.92 4431.81 Q2790.16 4438.41 2790.16 4449.73 L2790.16 4493.68 L2777.31 4493.68 L2777.31 4415.91 L2790.16 4415.91 L2790.16 4427.99 Q2794.53 4420.84 2800.64 4417.43 Q2806.75 4414.03 2815.16 4414.03 Q2823.63 4414.03 2829.53 4418.34 Q2835.5 4422.64 2838.35 4430.84 Z" fill="#000000" fill-rule="nonzero" fill-opacity="1" /><path clip-path="url(#clip360)" d="M2946.2 4385.63 L2946.2 4512.43 L2916.75 4512.43 L2916.75 4502.5 L2933.35 4502.5 L2933.35 4395.56 L2916.75 4395.56 L2916.75 4385.63 L2946.2 4385.63 Z" fill="#000000" fill-rule="nonzero" fill-opacity="1" /><polyline clip-path="url(#clip362)" style="stroke:#000000; stroke-linecap:round; stroke-linejoin:round; stroke-width:4; stroke-opacity:0.1; fill:none" points="799.221,4042.82 3332.28,4042.82 "/>
<polyline clip-path="url(#clip362)" style="stroke:#000000; stroke-linecap:round; stroke-linejoin:round; stroke-width:4; stroke-opacity:0.1; fill:none" points="799.221,3218.43 3332.28,3218.43 "/>
<polyline clip-path="url(#clip362)" style="stroke:#000000; stroke-linecap:round; stroke-linejoin:round; stroke-width:4; stroke-opacity:0.1; fill:none" points="799.221,2394.05 3332.28,2394.05 "/>
<polyline clip-path="url(#clip362)" style="stroke:#000000; stroke-linecap:round; stroke-linejoin:round; stroke-width:4; stroke-opacity:0.1; fill:none" points="799.221,1569.66 3332.28,1569.66 "/>
<polyline clip-path="url(#clip362)" style="stroke:#000000; stroke-linecap:round; stroke-linejoin:round; stroke-width:4; stroke-opacity:0.1; fill:none" points="799.221,745.271 3332.28,745.271 "/>
<polyline clip-path="url(#clip360)" style="stroke:#000000; stroke-linecap:round; stroke-linejoin:round; stroke-width:4; stroke-opacity:1; fill:none" points="799.221,4141.75 799.221,646.345 "/>
<polyline clip-path="url(#clip360)" style="stroke:#000000; stroke-linecap:round; stroke-linejoin:round; stroke-width:4; stroke-opacity:1; fill:none" points="799.221,4042.82 818.118,4042.82 "/>
<polyline clip-path="url(#clip360)" style="stroke:#000000; stroke-linecap:round; stroke-linejoin:round; stroke-width:4; stroke-opacity:1; fill:none" points="799.221,3218.43 818.118,3218.43 "/>
<polyline clip-path="url(#clip360)" style="stroke:#000000; stroke-linecap:round; stroke-linejoin:round; stroke-width:4; stroke-opacity:1; fill:none" points="799.221,2394.05 818.118,2394.05 "/>
<polyline clip-path="url(#clip360)" style="stroke:#000000; stroke-linecap:round; stroke-linejoin:round; stroke-width:4; stroke-opacity:1; fill:none" points="799.221,1569.66 818.118,1569.66 "/>
<polyline clip-path="url(#clip360)" style="stroke:#000000; stroke-linecap:round; stroke-linejoin:round; stroke-width:4; stroke-opacity:1; fill:none" points="799.221,745.271 818.118,745.271 "/>
<path clip-path="url(#clip360)" d="M315.903 4044.18 L404.931 4044.18 L404.931 4055.98 L315.903 4055.98 L315.903 4044.18 Z" fill="#000000" fill-rule="nonzero" fill-opacity="1" /><path clip-path="url(#clip360)" d="M437.639 4082.86 L460.555 4082.86 L460.555 4003.76 L435.625 4008.76 L435.625 3995.98 L460.416 3990.98 L474.444 3990.98 L474.444 4082.86 L497.361 4082.86 L497.361 4094.66 L437.639 4094.66 L437.639 4082.86 Z" fill="#000000" fill-rule="nonzero" fill-opacity="1" /><path clip-path="url(#clip360)" d="M555.694 4000.22 Q544.86 4000.22 539.374 4010.91 Q533.958 4021.54 533.958 4042.93 Q533.958 4064.24 539.374 4074.94 Q544.86 4085.56 555.694 4085.56 Q566.596 4085.56 572.013 4074.94 Q577.499 4064.24 577.499 4042.93 Q577.499 4021.54 572.013 4010.91 Q566.596 4000.22 555.694 4000.22 M555.694 3989.11 Q573.124 3989.11 582.291 4002.93 Q591.527 4016.68 591.527 4042.93 Q591.527 4069.11 582.291 4082.92 Q573.124 4096.67 555.694 4096.67 Q538.263 4096.67 529.027 4082.92 Q519.861 4069.11 519.861 4042.93 Q519.861 4016.68 529.027 4002.93 Q538.263 3989.11 555.694 3989.11 Z" fill="#000000" fill-rule="nonzero" fill-opacity="1" /><path clip-path="url(#clip360)" d="M616.179 4077.02 L630.832 4077.02 L630.832 4094.66 L616.179 4094.66 L616.179 4077.02 Z" fill="#000000" fill-rule="nonzero" fill-opacity="1" /><path clip-path="url(#clip360)" d="M691.387 4000.22 Q680.554 4000.22 675.068 4010.91 Q669.651 4021.54 669.651 4042.93 Q669.651 4064.24 675.068 4074.94 Q680.554 4085.56 691.387 4085.56 Q702.29 4085.56 707.707 4074.94 Q713.193 4064.24 713.193 4042.93 Q713.193 4021.54 707.707 4010.91 Q702.29 4000.22 691.387 4000.22 M691.387 3989.11 Q708.818 3989.11 717.984 4002.93 Q727.221 4016.68 727.221 4042.93 Q727.221 4069.11 717.984 4082.92 Q708.818 4096.67 691.387 4096.67 Q673.957 4096.67 664.721 4082.92 Q655.554 4069.11 655.554 4042.93 Q655.554 4016.68 664.721 4002.93 Q673.957 3989.11 691.387 3989.11 Z" fill="#000000" fill-rule="nonzero" fill-opacity="1" /><path clip-path="url(#clip360)" d="M409.375 3219.79 L498.402 3219.79 L498.402 3231.59 L409.375 3231.59 L409.375 3219.79 Z" fill="#000000" fill-rule="nonzero" fill-opacity="1" /><path clip-path="url(#clip360)" d="M525.138 3166.59 L591.805 3166.59 L591.805 3172.57 L554.166 3270.27 L539.513 3270.27 L574.93 3178.4 L525.138 3178.4 L525.138 3166.59 Z" fill="#000000" fill-rule="nonzero" fill-opacity="1" /><path clip-path="url(#clip360)" d="M619.166 3252.63 L633.818 3252.63 L633.818 3270.27 L619.166 3270.27 L619.166 3252.63 Z" fill="#000000" fill-rule="nonzero" fill-opacity="1" /><path clip-path="url(#clip360)" d="M664.513 3166.59 L719.582 3166.59 L719.582 3178.4 L677.36 3178.4 L677.36 3203.82 Q680.415 3202.77 683.471 3202.29 Q686.526 3201.73 689.582 3201.73 Q706.943 3201.73 717.082 3211.25 Q727.221 3220.76 727.221 3237.01 Q727.221 3253.75 716.804 3263.05 Q706.387 3272.29 687.429 3272.29 Q680.901 3272.29 674.096 3271.18 Q667.36 3270.07 660.138 3267.84 L660.138 3253.75 Q666.388 3257.15 673.054 3258.82 Q679.721 3260.48 687.151 3260.48 Q699.165 3260.48 706.179 3254.16 Q713.193 3247.84 713.193 3237.01 Q713.193 3226.18 706.179 3219.86 Q699.165 3213.54 687.151 3213.54 Q681.526 3213.54 675.901 3214.79 Q670.346 3216.04 664.513 3218.68 L664.513 3166.59 Z" fill="#000000" fill-rule="nonzero" fill-opacity="1" /><path clip-path="url(#clip360)" d="M406.389 2395.4 L495.416 2395.4 L495.416 2407.21 L406.389 2407.21 L406.389 2395.4 Z" fill="#000000" fill-rule="nonzero" fill-opacity="1" /><path clip-path="url(#clip360)" d="M525.833 2342.21 L580.902 2342.21 L580.902 2354.01 L538.68 2354.01 L538.68 2379.43 Q541.735 2378.39 544.791 2377.9 Q547.846 2377.34 550.902 2377.34 Q568.263 2377.34 578.402 2386.86 Q588.541 2396.37 588.541 2412.62 Q588.541 2429.36 578.124 2438.66 Q567.707 2447.9 548.749 2447.9 Q542.222 2447.9 535.416 2446.79 Q528.68 2445.68 521.458 2443.46 L521.458 2429.36 Q527.708 2432.76 534.374 2434.43 Q541.041 2436.09 548.471 2436.09 Q560.485 2436.09 567.499 2429.77 Q574.513 2423.46 574.513 2412.62 Q574.513 2401.79 567.499 2395.47 Q560.485 2389.15 548.471 2389.15 Q542.847 2389.15 537.222 2390.4 Q531.666 2391.65 525.833 2394.29 L525.833 2342.21 Z" fill="#000000" fill-rule="nonzero" fill-opacity="1" /><path clip-path="url(#clip360)" d="M616.179 2428.25 L630.832 2428.25 L630.832 2445.89 L616.179 2445.89 L616.179 2428.25 Z" fill="#000000" fill-rule="nonzero" fill-opacity="1" /><path clip-path="url(#clip360)" d="M691.387 2351.44 Q680.554 2351.44 675.068 2362.14 Q669.651 2372.76 669.651 2394.15 Q669.651 2415.47 675.068 2426.16 Q680.554 2436.79 691.387 2436.79 Q702.29 2436.79 707.707 2426.16 Q713.193 2415.47 713.193 2394.15 Q713.193 2372.76 707.707 2362.14 Q702.29 2351.44 691.387 2351.44 M691.387 2340.33 Q708.818 2340.33 717.984 2354.15 Q727.221 2367.9 727.221 2394.15 Q727.221 2420.33 717.984 2434.15 Q708.818 2447.9 691.387 2447.9 Q673.957 2447.9 664.721 2434.15 Q655.554 2420.33 655.554 2394.15 Q655.554 2367.9 664.721 2354.15 Q673.957 2340.33 691.387 2340.33 Z" fill="#000000" fill-rule="nonzero" fill-opacity="1" /><path clip-path="url(#clip360)" d="M409.375 1571.01 L498.402 1571.01 L498.402 1582.82 L409.375 1582.82 L409.375 1571.01 Z" fill="#000000" fill-rule="nonzero" fill-opacity="1" /><path clip-path="url(#clip360)" d="M540.763 1609.69 L589.721 1609.69 L589.721 1621.5 L523.888 1621.5 L523.888 1609.69 Q531.874 1601.43 545.624 1587.54 Q559.444 1573.58 562.985 1569.55 Q569.721 1561.98 572.36 1556.78 Q575.069 1551.5 575.069 1546.43 Q575.069 1538.17 569.235 1532.96 Q563.471 1527.75 554.166 1527.75 Q547.569 1527.75 540.208 1530.04 Q532.916 1532.33 524.583 1536.99 L524.583 1522.82 Q533.055 1519.42 540.416 1517.68 Q547.777 1515.94 553.888 1515.94 Q569.999 1515.94 579.582 1524 Q589.166 1532.05 589.166 1545.53 Q589.166 1551.92 586.735 1557.68 Q584.374 1563.37 578.055 1571.15 Q576.319 1573.17 567.013 1582.82 Q557.708 1592.4 540.763 1609.69 Z" fill="#000000" fill-rule="nonzero" fill-opacity="1" /><path clip-path="url(#clip360)" d="M619.166 1603.86 L633.818 1603.86 L633.818 1621.5 L619.166 1621.5 L619.166 1603.86 Z" fill="#000000" fill-rule="nonzero" fill-opacity="1" /><path clip-path="url(#clip360)" d="M664.513 1517.82 L719.582 1517.82 L719.582 1529.62 L677.36 1529.62 L677.36 1555.04 Q680.415 1554 683.471 1553.51 Q686.526 1552.96 689.582 1552.96 Q706.943 1552.96 717.082 1562.47 Q727.221 1571.98 727.221 1588.23 Q727.221 1604.97 716.804 1614.28 Q706.387 1623.51 687.429 1623.51 Q680.901 1623.51 674.096 1622.4 Q667.36 1621.29 660.138 1619.07 L660.138 1604.97 Q666.388 1608.37 673.054 1610.04 Q679.721 1611.71 687.151 1611.71 Q699.165 1611.71 706.179 1605.39 Q713.193 1599.07 713.193 1588.23 Q713.193 1577.4 706.179 1571.08 Q699.165 1564.76 687.151 1564.76 Q681.526 1564.76 675.901 1566.01 Q670.346 1567.26 664.513 1569.9 L664.513 1517.82 Z" fill="#000000" fill-rule="nonzero" fill-opacity="1" /><path clip-path="url(#clip360)" d="M555.694 702.667 Q544.86 702.667 539.374 713.362 Q533.958 723.986 533.958 745.375 Q533.958 766.695 539.374 777.389 Q544.86 788.014 555.694 788.014 Q566.596 788.014 572.013 777.389 Q577.499 766.695 577.499 745.375 Q577.499 723.986 572.013 713.362 Q566.596 702.667 555.694 702.667 M555.694 691.556 Q573.124 691.556 582.291 705.375 Q591.527 719.125 591.527 745.375 Q591.527 771.556 582.291 785.375 Q573.124 799.125 555.694 799.125 Q538.263 799.125 529.027 785.375 Q519.861 771.556 519.861 745.375 Q519.861 719.125 529.027 705.375 Q538.263 691.556 555.694 691.556 Z" fill="#000000" fill-rule="nonzero" fill-opacity="1" /><path clip-path="url(#clip360)" d="M616.179 779.472 L630.832 779.472 L630.832 797.111 L616.179 797.111 L616.179 779.472 Z" fill="#000000" fill-rule="nonzero" fill-opacity="1" /><path clip-path="url(#clip360)" d="M691.387 702.667 Q680.554 702.667 675.068 713.362 Q669.651 723.986 669.651 745.375 Q669.651 766.695 675.068 777.389 Q680.554 788.014 691.387 788.014 Q702.29 788.014 707.707 777.389 Q713.193 766.695 713.193 745.375 Q713.193 723.986 707.707 713.362 Q702.29 702.667 691.387 702.667 M691.387 691.556 Q708.818 691.556 717.984 705.375 Q727.221 719.125 727.221 745.375 Q727.221 771.556 717.984 785.375 Q708.818 799.125 691.387 799.125 Q673.957 799.125 664.721 785.375 Q655.554 771.556 655.554 745.375 Q655.554 719.125 664.721 705.375 Q673.957 691.556 691.387 691.556 Z" fill="#000000" fill-rule="nonzero" fill-opacity="1" /><path clip-path="url(#clip360)" d="M135.022 3189.28 L135.022 3175.74 L200.299 3151.44 L135.022 3127.13 L135.022 3113.59 L212.799 3142.76 L212.799 3160.12 L135.022 3189.28 Z" fill="#000000" fill-rule="nonzero" fill-opacity="1" /><path clip-path="url(#clip360)" d="M170.716 3029.42 L176.966 3029.42 L176.966 3088.17 Q190.161 3087.34 197.105 3080.26 Q203.98 3073.1 203.98 3060.4 Q203.98 3053.04 202.174 3046.16 Q200.369 3039.22 196.758 3032.41 L208.841 3032.41 Q211.758 3039.29 213.285 3046.51 Q214.813 3053.73 214.813 3061.16 Q214.813 3079.77 203.98 3090.67 Q193.147 3101.51 174.674 3101.51 Q155.577 3101.51 144.397 3091.23 Q133.147 3080.88 133.147 3063.38 Q133.147 3047.69 143.286 3038.59 Q153.355 3029.42 170.716 3029.42 M166.966 3042.2 Q156.48 3042.34 150.23 3048.1 Q143.98 3053.8 143.98 3063.24 Q143.98 3073.94 150.022 3080.4 Q156.063 3086.79 167.036 3087.76 L166.966 3042.2 Z" fill="#000000" fill-rule="nonzero" fill-opacity="1" /><path clip-path="url(#clip360)" d="M146.966 2963.38 Q145.716 2965.54 145.161 2968.11 Q144.536 2970.61 144.536 2973.66 Q144.536 2984.49 151.619 2990.33 Q158.633 2996.09 171.827 2996.09 L212.799 2996.09 L212.799 3008.94 L135.022 3008.94 L135.022 2996.09 L147.105 2996.09 Q140.022 2992.06 136.619 2985.61 Q133.147 2979.15 133.147 2969.91 Q133.147 2968.59 133.355 2966.99 Q133.494 2965.4 133.841 2963.45 L146.966 2963.38 Z" fill="#000000" fill-rule="nonzero" fill-opacity="1" /><path clip-path="url(#clip360)" d="M112.939 2937.34 L135.022 2937.34 L135.022 2911.02 L144.952 2911.02 L144.952 2937.34 L187.174 2937.34 Q196.688 2937.34 199.397 2934.77 Q202.105 2932.13 202.105 2924.15 L202.105 2911.02 L212.799 2911.02 L212.799 2924.15 Q212.799 2938.94 207.313 2944.56 Q201.758 2950.19 187.174 2950.19 L144.952 2950.19 L144.952 2959.56 L135.022 2959.56 L135.022 2950.19 L112.939 2950.19 L112.939 2937.34 Z" fill="#000000" fill-rule="nonzero" fill-opacity="1" /><path clip-path="url(#clip360)" d="M135.022 2894.22 L135.022 2881.44 L212.799 2881.44 L212.799 2894.22 L135.022 2894.22 M104.744 2894.22 L104.744 2881.44 L120.925 2881.44 L120.925 2894.22 L104.744 2894.22 Z" fill="#000000" fill-rule="nonzero" fill-opacity="1" /><path clip-path="url(#clip360)" d="M138.008 2798.73 L149.952 2798.73 Q146.966 2804.15 145.508 2809.63 Q143.98 2815.05 143.98 2820.61 Q143.98 2833.04 151.897 2839.91 Q159.744 2846.79 173.98 2846.79 Q188.216 2846.79 196.133 2839.91 Q203.98 2833.04 203.98 2820.61 Q203.98 2815.05 202.522 2809.63 Q200.994 2804.15 198.008 2798.73 L209.813 2798.73 Q212.313 2804.08 213.563 2809.84 Q214.813 2815.54 214.813 2822 Q214.813 2839.56 203.772 2849.91 Q192.73 2860.26 173.98 2860.26 Q154.952 2860.26 144.05 2849.84 Q133.147 2839.36 133.147 2821.16 Q133.147 2815.26 134.397 2809.63 Q135.577 2804.01 138.008 2798.73 Z" fill="#000000" fill-rule="nonzero" fill-opacity="1" /><path clip-path="url(#clip360)" d="M173.702 2741.16 Q173.702 2756.65 177.244 2762.62 Q180.786 2768.59 189.327 2768.59 Q196.133 2768.59 200.16 2764.15 Q204.119 2759.63 204.119 2751.93 Q204.119 2741.3 196.619 2734.91 Q189.049 2728.45 176.549 2728.45 L173.702 2728.45 L173.702 2741.16 M168.425 2715.68 L212.799 2715.68 L212.799 2728.45 L200.994 2728.45 Q208.077 2732.83 211.48 2739.36 Q214.813 2745.88 214.813 2755.33 Q214.813 2767.27 208.147 2774.36 Q201.41 2781.37 190.161 2781.37 Q177.036 2781.37 170.369 2772.62 Q163.702 2763.8 163.702 2746.37 L163.702 2728.45 L162.452 2728.45 Q153.633 2728.45 148.841 2734.29 Q143.98 2740.05 143.98 2750.54 Q143.98 2757.2 145.577 2763.52 Q147.175 2769.84 150.369 2775.68 L138.564 2775.68 Q135.855 2768.66 134.536 2762.06 Q133.147 2755.47 133.147 2749.22 Q133.147 2732.34 141.897 2724.01 Q150.647 2715.68 168.425 2715.68 Z" fill="#000000" fill-rule="nonzero" fill-opacity="1" /><path clip-path="url(#clip360)" d="M104.744 2689.36 L104.744 2676.58 L212.799 2676.58 L212.799 2689.36 L104.744 2689.36 Z" fill="#000000" fill-rule="nonzero" fill-opacity="1" /><path clip-path="url(#clip360)" d="M146.827 2553.45 L104.744 2553.45 L104.744 2540.68 L212.799 2540.68 L212.799 2553.45 L201.133 2553.45 Q208.077 2557.48 211.48 2563.66 Q214.813 2569.77 214.813 2578.39 Q214.813 2592.48 203.563 2601.37 Q192.313 2610.19 173.98 2610.19 Q155.647 2610.19 144.397 2601.37 Q133.147 2592.48 133.147 2578.39 Q133.147 2569.77 136.55 2563.66 Q139.883 2557.48 146.827 2553.45 M173.98 2597 Q188.077 2597 196.133 2591.23 Q204.119 2585.4 204.119 2575.26 Q204.119 2565.12 196.133 2559.29 Q188.077 2553.45 173.98 2553.45 Q159.883 2553.45 151.897 2559.29 Q143.841 2565.12 143.841 2575.26 Q143.841 2585.4 151.897 2591.23 Q159.883 2597 173.98 2597 Z" fill="#000000" fill-rule="nonzero" fill-opacity="1" /><path clip-path="url(#clip360)" d="M135.022 2514.36 L135.022 2501.58 L212.799 2501.58 L212.799 2514.36 L135.022 2514.36 M104.744 2514.36 L104.744 2501.58 L120.925 2501.58 L120.925 2514.36 L104.744 2514.36 Z" fill="#000000" fill-rule="nonzero" fill-opacity="1" /><path clip-path="url(#clip360)" d="M149.952 2414.29 Q141.341 2409.5 137.244 2402.83 Q133.147 2396.16 133.147 2387.14 Q133.147 2374.98 141.689 2368.39 Q150.161 2361.79 165.855 2361.79 L212.799 2361.79 L212.799 2374.64 L166.272 2374.64 Q155.091 2374.64 149.675 2378.59 Q144.258 2382.55 144.258 2390.68 Q144.258 2400.61 150.855 2406.37 Q157.452 2412.14 168.841 2412.14 L212.799 2412.14 L212.799 2424.98 L166.272 2424.98 Q155.022 2424.98 149.675 2428.94 Q144.258 2432.9 144.258 2441.16 Q144.258 2450.96 150.925 2456.72 Q157.522 2462.48 168.841 2462.48 L212.799 2462.48 L212.799 2475.33 L135.022 2475.33 L135.022 2462.48 L147.105 2462.48 Q139.952 2458.11 136.55 2452 Q133.147 2445.89 133.147 2437.48 Q133.147 2429.01 137.452 2423.11 Q141.758 2417.14 149.952 2414.29 Z" fill="#000000" fill-rule="nonzero" fill-opacity="1" /><path clip-path="url(#clip360)" d="M170.716 2269.78 L176.966 2269.78 L176.966 2328.53 Q190.161 2327.69 197.105 2320.61 Q203.98 2313.46 203.98 2300.75 Q203.98 2293.39 202.174 2286.51 Q200.369 2279.57 196.758 2272.76 L208.841 2272.76 Q211.758 2279.64 213.285 2286.86 Q214.813 2294.08 214.813 2301.51 Q214.813 2320.12 203.98 2331.03 Q193.147 2341.86 174.674 2341.86 Q155.577 2341.86 144.397 2331.58 Q133.147 2321.23 133.147 2303.73 Q133.147 2288.04 143.286 2278.94 Q153.355 2269.78 170.716 2269.78 M166.966 2282.55 Q156.48 2282.69 150.23 2288.46 Q143.98 2294.15 143.98 2303.6 Q143.98 2314.29 150.022 2320.75 Q156.063 2327.14 167.036 2328.11 L166.966 2282.55 Z" fill="#000000" fill-rule="nonzero" fill-opacity="1" /><path clip-path="url(#clip360)" d="M165.855 2184.15 L212.799 2184.15 L212.799 2196.93 L166.272 2196.93 Q155.23 2196.93 149.744 2201.23 Q144.258 2205.54 144.258 2214.15 Q144.258 2224.5 150.855 2230.47 Q157.452 2236.44 168.841 2236.44 L212.799 2236.44 L212.799 2249.29 L135.022 2249.29 L135.022 2236.44 L147.105 2236.44 Q140.091 2231.86 136.619 2225.68 Q133.147 2219.43 133.147 2211.3 Q133.147 2197.9 141.48 2191.03 Q149.744 2184.15 165.855 2184.15 Z" fill="#000000" fill-rule="nonzero" fill-opacity="1" /><path clip-path="url(#clip360)" d="M137.314 2109.08 L149.397 2109.08 Q146.619 2114.5 145.23 2120.33 Q143.841 2126.17 143.841 2132.42 Q143.841 2141.93 146.758 2146.72 Q149.675 2151.44 155.508 2151.44 Q159.952 2151.44 162.522 2148.04 Q165.022 2144.64 167.313 2134.36 L168.286 2129.98 Q171.202 2116.37 176.549 2110.68 Q181.827 2104.92 191.341 2104.92 Q202.174 2104.92 208.494 2113.53 Q214.813 2122.07 214.813 2137.07 Q214.813 2143.32 213.563 2150.12 Q212.383 2156.86 209.952 2164.36 L196.758 2164.36 Q200.438 2157.28 202.313 2150.4 Q204.119 2143.53 204.119 2136.79 Q204.119 2127.76 201.063 2122.9 Q197.938 2118.04 192.313 2118.04 Q187.105 2118.04 184.327 2121.58 Q181.549 2125.05 178.98 2136.93 L177.938 2141.37 Q175.438 2153.25 170.3 2158.53 Q165.091 2163.8 156.063 2163.8 Q145.091 2163.8 139.119 2156.03 Q133.147 2148.25 133.147 2133.94 Q133.147 2126.86 134.189 2120.61 Q135.23 2114.36 137.314 2109.08 Z" fill="#000000" fill-rule="nonzero" fill-opacity="1" /><path clip-path="url(#clip360)" d="M135.022 2084.57 L135.022 2071.79 L212.799 2071.79 L212.799 2084.57 L135.022 2084.57 M104.744 2084.57 L104.744 2071.79 L120.925 2071.79 L120.925 2084.57 L104.744 2084.57 Z" fill="#000000" fill-rule="nonzero" fill-opacity="1" /><path clip-path="url(#clip360)" d="M143.98 2014.92 Q143.98 2025.19 152.036 2031.17 Q160.022 2037.14 173.98 2037.14 Q187.938 2037.14 195.994 2031.24 Q203.98 2025.26 203.98 2014.92 Q203.98 2004.71 195.924 1998.74 Q187.869 1992.76 173.98 1992.76 Q160.161 1992.76 152.105 1998.74 Q143.98 2004.71 143.98 2014.92 M133.147 2014.92 Q133.147 1998.25 143.98 1988.74 Q154.813 1979.22 173.98 1979.22 Q193.077 1979.22 203.98 1988.74 Q214.813 1998.25 214.813 2014.92 Q214.813 2031.65 203.98 2041.17 Q193.077 2050.61 173.98 2050.61 Q154.813 2050.61 143.98 2041.17 Q133.147 2031.65 133.147 2014.92 Z" fill="#000000" fill-rule="nonzero" fill-opacity="1" /><path clip-path="url(#clip360)" d="M165.855 1893.39 L212.799 1893.39 L212.799 1906.17 L166.272 1906.17 Q155.23 1906.17 149.744 1910.47 Q144.258 1914.78 144.258 1923.39 Q144.258 1933.74 150.855 1939.71 Q157.452 1945.68 168.841 1945.68 L212.799 1945.68 L212.799 1958.53 L135.022 1958.53 L135.022 1945.68 L147.105 1945.68 Q140.091 1941.1 136.619 1934.92 Q133.147 1928.67 133.147 1920.54 Q133.147 1907.14 141.48 1900.26 Q149.744 1893.39 165.855 1893.39 Z" fill="#000000" fill-rule="nonzero" fill-opacity="1" /><path clip-path="url(#clip360)" d="M104.744 1823.88 L104.744 1794.43 L114.675 1794.43 L114.675 1811.1 L221.619 1811.1 L221.619 1794.43 L231.549 1794.43 L231.549 1823.88 L104.744 1823.88 Z" fill="#000000" fill-rule="nonzero" fill-opacity="1" /><path clip-path="url(#clip360)" d="M149.952 1706.65 Q141.341 1701.86 137.244 1695.2 Q133.147 1688.53 133.147 1679.5 Q133.147 1667.35 141.689 1660.75 Q150.161 1654.15 165.855 1654.15 L212.799 1654.15 L212.799 1667 L166.272 1667 Q155.091 1667 149.675 1670.96 Q144.258 1674.92 144.258 1683.04 Q144.258 1692.97 150.855 1698.74 Q157.452 1704.5 168.841 1704.5 L212.799 1704.5 L212.799 1717.35 L166.272 1717.35 Q155.022 1717.35 149.675 1721.31 Q144.258 1725.26 144.258 1733.53 Q144.258 1743.32 150.925 1749.08 Q157.522 1754.85 168.841 1754.85 L212.799 1754.85 L212.799 1767.7 L135.022 1767.7 L135.022 1754.85 L147.105 1754.85 Q139.952 1750.47 136.55 1744.36 Q133.147 1738.25 133.147 1729.85 Q133.147 1721.38 137.452 1715.47 Q141.758 1709.5 149.952 1706.65 Z" fill="#000000" fill-rule="nonzero" fill-opacity="1" /><path clip-path="url(#clip360)" d="M104.744 1598.81 L231.549 1598.81 L231.549 1628.25 L221.619 1628.25 L221.619 1611.65 L114.675 1611.65 L114.675 1628.25 L104.744 1628.25 L104.744 1598.81 Z" fill="#000000" fill-rule="nonzero" fill-opacity="1" /><path clip-path="url(#clip360)" d="M543.382 66.528 L565.419 66.528 L619.053 167.72 L619.053 66.528 L634.932 66.528 L634.932 187.488 L612.895 187.488 L559.261 86.2964 L559.261 187.488 L543.382 187.488 L543.382 66.528 Z" fill="#000000" fill-rule="nonzero" fill-opacity="1" /><path clip-path="url(#clip360)" d="M702.015 107.199 Q690.024 107.199 683.057 116.597 Q676.089 125.914 676.089 142.199 Q676.089 158.484 682.976 167.882 Q689.943 177.199 702.015 177.199 Q713.925 177.199 720.892 167.801 Q727.86 158.403 727.86 142.199 Q727.86 126.076 720.892 116.678 Q713.925 107.199 702.015 107.199 M702.015 94.5603 Q721.459 94.5603 732.559 107.199 Q743.658 119.838 743.658 142.199 Q743.658 164.479 732.559 177.199 Q721.459 189.838 702.015 189.838 Q682.49 189.838 671.39 177.199 Q660.372 164.479 660.372 142.199 Q660.372 119.838 671.39 107.199 Q682.49 94.5603 702.015 94.5603 Z" fill="#000000" fill-rule="nonzero" fill-opacity="1" /><path clip-path="url(#clip360)" d="M843.797 132.72 L843.797 187.488 L828.889 187.488 L828.889 133.206 Q828.889 120.324 823.866 113.924 Q818.843 107.523 808.797 107.523 Q796.725 107.523 789.758 115.22 Q782.79 122.917 782.79 136.204 L782.79 187.488 L767.802 187.488 L767.802 96.7477 L782.79 96.7477 L782.79 110.845 Q788.137 102.662 795.348 98.6112 Q802.64 94.5603 812.119 94.5603 Q827.755 94.5603 835.776 104.282 Q843.797 113.924 843.797 132.72 Z" fill="#000000" fill-rule="nonzero" fill-opacity="1" /><path clip-path="url(#clip360)" d="M865.996 135.393 L909.664 135.393 L909.664 148.68 L865.996 148.68 L865.996 135.393 Z" fill="#000000" fill-rule="nonzero" fill-opacity="1" /><path clip-path="url(#clip360)" d="M931.863 151.678 L931.863 96.7477 L946.771 96.7477 L946.771 151.111 Q946.771 163.993 951.794 170.474 Q956.817 176.875 966.863 176.875 Q978.935 176.875 985.902 169.178 Q992.951 161.481 992.951 148.194 L992.951 96.7477 L1007.86 96.7477 L1007.86 187.488 L992.951 187.488 L992.951 173.553 Q987.523 181.817 980.312 185.868 Q973.183 189.838 963.704 189.838 Q948.067 189.838 939.965 180.115 Q931.863 170.393 931.863 151.678 M969.375 94.5603 L969.375 94.5603 Z" fill="#000000" fill-rule="nonzero" fill-opacity="1" /><path clip-path="url(#clip360)" d="M1113.99 132.72 L1113.99 187.488 L1099.08 187.488 L1099.08 133.206 Q1099.08 120.324 1094.06 113.924 Q1089.04 107.523 1078.99 107.523 Q1066.92 107.523 1059.95 115.22 Q1052.99 122.917 1052.99 136.204 L1052.99 187.488 L1038 187.488 L1038 96.7477 L1052.99 96.7477 L1052.99 110.845 Q1058.33 102.662 1065.54 98.6112 Q1072.83 94.5603 1082.31 94.5603 Q1097.95 94.5603 1105.97 104.282 Q1113.99 113.924 1113.99 132.72 Z" fill="#000000" fill-rule="nonzero" fill-opacity="1" /><path clip-path="url(#clip360)" d="M1143.73 96.7477 L1158.63 96.7477 L1158.63 187.488 L1143.73 187.488 L1143.73 96.7477 M1143.73 61.4239 L1158.63 61.4239 L1158.63 80.3011 L1143.73 80.3011 L1143.73 61.4239 Z" fill="#000000" fill-rule="nonzero" fill-opacity="1" /><path clip-path="url(#clip360)" d="M1235.76 61.4239 L1235.76 73.8196 L1221.5 73.8196 Q1213.48 73.8196 1210.32 77.0604 Q1207.24 80.3011 1207.24 88.727 L1207.24 96.7477 L1231.79 96.7477 L1231.79 108.333 L1207.24 108.333 L1207.24 187.488 L1192.26 187.488 L1192.26 108.333 L1178 108.333 L1178 96.7477 L1192.26 96.7477 L1192.26 90.4283 Q1192.26 75.278 1199.3 68.3914 Q1206.35 61.4239 1221.67 61.4239 L1235.76 61.4239 Z" fill="#000000" fill-rule="nonzero" fill-opacity="1" /><path clip-path="url(#clip360)" d="M1283.4 107.199 Q1271.41 107.199 1264.44 116.597 Q1257.48 125.914 1257.48 142.199 Q1257.48 158.484 1264.36 167.882 Q1271.33 177.199 1283.4 177.199 Q1295.31 177.199 1302.28 167.801 Q1309.25 158.403 1309.25 142.199 Q1309.25 126.076 1302.28 116.678 Q1295.31 107.199 1283.4 107.199 M1283.4 94.5603 Q1302.85 94.5603 1313.94 107.199 Q1325.04 119.838 1325.04 142.199 Q1325.04 164.479 1313.94 177.199 Q1302.85 189.838 1283.4 189.838 Q1263.88 189.838 1252.78 177.199 Q1241.76 164.479 1241.76 142.199 Q1241.76 119.838 1252.78 107.199 Q1263.88 94.5603 1283.4 94.5603 Z" fill="#000000" fill-rule="nonzero" fill-opacity="1" /><path clip-path="url(#clip360)" d="M1402.34 110.683 Q1399.82 109.225 1396.83 108.576 Q1393.91 107.847 1390.34 107.847 Q1377.71 107.847 1370.9 116.111 Q1364.18 124.294 1364.18 139.687 L1364.18 187.488 L1349.19 187.488 L1349.19 96.7477 L1364.18 96.7477 L1364.18 110.845 Q1368.87 102.581 1376.41 98.6112 Q1383.94 94.5603 1394.72 94.5603 Q1396.26 94.5603 1398.12 94.8033 Q1399.99 94.9653 1402.25 95.3704 L1402.34 110.683 Z" fill="#000000" fill-rule="nonzero" fill-opacity="1" /><path clip-path="url(#clip360)" d="M1485.7 114.167 Q1491.29 104.12 1499.07 99.3403 Q1506.85 94.5603 1517.38 94.5603 Q1531.56 94.5603 1539.26 104.525 Q1546.95 114.41 1546.95 132.72 L1546.95 187.488 L1531.96 187.488 L1531.96 133.206 Q1531.96 120.162 1527.35 113.843 Q1522.73 107.523 1513.25 107.523 Q1501.66 107.523 1494.94 115.22 Q1488.21 122.917 1488.21 136.204 L1488.21 187.488 L1473.23 187.488 L1473.23 133.206 Q1473.23 120.081 1468.61 113.843 Q1463.99 107.523 1454.35 107.523 Q1442.93 107.523 1436.2 115.301 Q1429.48 122.998 1429.48 136.204 L1429.48 187.488 L1414.49 187.488 L1414.49 96.7477 L1429.48 96.7477 L1429.48 110.845 Q1434.58 102.5 1441.71 98.5301 Q1448.84 94.5603 1458.64 94.5603 Q1468.53 94.5603 1475.41 99.5834 Q1482.38 104.606 1485.7 114.167 Z" fill="#000000" fill-rule="nonzero" fill-opacity="1" /><path clip-path="url(#clip360)" d="M1700.08 114.167 Q1705.67 104.12 1713.44 99.3403 Q1721.22 94.5603 1731.75 94.5603 Q1745.93 94.5603 1753.63 104.525 Q1761.33 114.41 1761.33 132.72 L1761.33 187.488 L1746.34 187.488 L1746.34 133.206 Q1746.34 120.162 1741.72 113.843 Q1737.1 107.523 1727.62 107.523 Q1716.04 107.523 1709.31 115.22 Q1702.59 122.917 1702.59 136.204 L1702.59 187.488 L1687.6 187.488 L1687.6 133.206 Q1687.6 120.081 1682.98 113.843 Q1678.36 107.523 1668.72 107.523 Q1657.3 107.523 1650.57 115.301 Q1643.85 122.998 1643.85 136.204 L1643.85 187.488 L1628.86 187.488 L1628.86 96.7477 L1643.85 96.7477 L1643.85 110.845 Q1648.95 102.5 1656.08 98.5301 Q1663.21 94.5603 1673.02 94.5603 Q1682.9 94.5603 1689.79 99.5834 Q1696.76 104.606 1700.08 114.167 Z" fill="#000000" fill-rule="nonzero" fill-opacity="1" /><path clip-path="url(#clip360)" d="M1868.68 138.391 L1868.68 145.683 L1800.13 145.683 Q1801.11 161.076 1809.37 169.178 Q1817.72 177.199 1832.54 177.199 Q1841.13 177.199 1849.15 175.092 Q1857.25 172.986 1865.19 168.773 L1865.19 182.87 Q1857.17 186.273 1848.75 188.055 Q1840.32 189.838 1831.65 189.838 Q1809.94 189.838 1797.22 177.199 Q1784.58 164.56 1784.58 143.009 Q1784.58 120.729 1796.57 107.685 Q1808.64 94.5603 1829.06 94.5603 Q1847.37 94.5603 1857.98 106.389 Q1868.68 118.137 1868.68 138.391 M1853.77 134.016 Q1853.61 121.782 1846.88 114.491 Q1840.24 107.199 1829.22 107.199 Q1816.74 107.199 1809.21 114.248 Q1801.75 121.296 1800.62 134.097 L1853.77 134.016 Z" fill="#000000" fill-rule="nonzero" fill-opacity="1" /><path clip-path="url(#clip360)" d="M1950.99 99.4213 L1950.99 113.518 Q1944.67 110.278 1937.86 108.657 Q1931.06 107.037 1923.77 107.037 Q1912.67 107.037 1907.08 110.44 Q1901.57 113.843 1901.57 120.648 Q1901.57 125.833 1905.54 128.831 Q1909.51 131.748 1921.5 134.421 L1926.6 135.555 Q1942.48 138.958 1949.13 145.197 Q1955.85 151.354 1955.85 162.453 Q1955.85 175.092 1945.8 182.465 Q1935.84 189.838 1918.34 189.838 Q1911.05 189.838 1903.11 188.379 Q1895.25 187.002 1886.5 184.166 L1886.5 168.773 Q1894.76 173.067 1902.78 175.254 Q1910.8 177.361 1918.66 177.361 Q1929.2 177.361 1934.87 173.796 Q1940.54 170.15 1940.54 163.588 Q1940.54 157.511 1936.41 154.271 Q1932.36 151.03 1918.5 148.032 L1913.32 146.817 Q1899.46 143.9 1893.31 137.905 Q1887.15 131.829 1887.15 121.296 Q1887.15 108.495 1896.22 101.528 Q1905.3 94.5603 1921.99 94.5603 Q1930.25 94.5603 1937.54 95.7755 Q1944.83 96.9908 1950.99 99.4213 Z" fill="#000000" fill-rule="nonzero" fill-opacity="1" /><path clip-path="url(#clip360)" d="M2055.02 132.72 L2055.02 187.488 L2040.11 187.488 L2040.11 133.206 Q2040.11 120.324 2035.09 113.924 Q2030.06 107.523 2020.02 107.523 Q2007.95 107.523 2000.98 115.22 Q1994.01 122.917 1994.01 136.204 L1994.01 187.488 L1979.02 187.488 L1979.02 61.4239 L1994.01 61.4239 L1994.01 110.845 Q1999.36 102.662 2006.57 98.6112 Q2013.86 94.5603 2023.34 94.5603 Q2038.98 94.5603 2047 104.282 Q2055.02 113.924 2055.02 132.72 Z" fill="#000000" fill-rule="nonzero" fill-opacity="1" /><path clip-path="url(#clip360)" d="M2172.66 107.199 Q2160.66 107.199 2153.7 116.597 Q2146.73 125.914 2146.73 142.199 Q2146.73 158.484 2153.62 167.882 Q2160.58 177.199 2172.66 177.199 Q2184.57 177.199 2191.53 167.801 Q2198.5 158.403 2198.5 142.199 Q2198.5 126.076 2191.53 116.678 Q2184.57 107.199 2172.66 107.199 M2172.66 94.5603 Q2192.1 94.5603 2203.2 107.199 Q2214.3 119.838 2214.3 142.199 Q2214.3 164.479 2203.2 177.199 Q2192.1 189.838 2172.66 189.838 Q2153.13 189.838 2142.03 177.199 Q2131.01 164.479 2131.01 142.199 Q2131.01 119.838 2142.03 107.199 Q2153.13 94.5603 2172.66 94.5603 Z" fill="#000000" fill-rule="nonzero" fill-opacity="1" /><path clip-path="url(#clip360)" d="M2284.95 61.4239 L2284.95 73.8196 L2270.69 73.8196 Q2262.67 73.8196 2259.51 77.0604 Q2256.43 80.3011 2256.43 88.727 L2256.43 96.7477 L2280.98 96.7477 L2280.98 108.333 L2256.43 108.333 L2256.43 187.488 L2241.44 187.488 L2241.44 108.333 L2227.18 108.333 L2227.18 96.7477 L2241.44 96.7477 L2241.44 90.4283 Q2241.44 75.278 2248.49 68.3914 Q2255.54 61.4239 2270.85 61.4239 L2284.95 61.4239 Z" fill="#000000" fill-rule="nonzero" fill-opacity="1" /><path clip-path="url(#clip360)" d="M2364.91 70.984 L2364.91 96.7477 L2395.62 96.7477 L2395.62 108.333 L2364.91 108.333 L2364.91 157.592 Q2364.91 168.692 2367.91 171.852 Q2370.99 175.011 2380.3 175.011 L2395.62 175.011 L2395.62 187.488 L2380.3 187.488 Q2363.05 187.488 2356.49 181.088 Q2349.92 174.606 2349.92 157.592 L2349.92 108.333 L2338.99 108.333 L2338.99 96.7477 L2349.92 96.7477 L2349.92 70.984 L2364.91 70.984 Z" fill="#000000" fill-rule="nonzero" fill-opacity="1" /><path clip-path="url(#clip360)" d="M2490.65 132.72 L2490.65 187.488 L2475.74 187.488 L2475.74 133.206 Q2475.74 120.324 2470.72 113.924 Q2465.7 107.523 2455.65 107.523 Q2443.58 107.523 2436.61 115.22 Q2429.64 122.917 2429.64 136.204 L2429.64 187.488 L2414.66 187.488 L2414.66 61.4239 L2429.64 61.4239 L2429.64 110.845 Q2434.99 102.662 2442.2 98.6112 Q2449.49 94.5603 2458.97 94.5603 Q2474.61 94.5603 2482.63 104.282 Q2490.65 113.924 2490.65 132.72 Z" fill="#000000" fill-rule="nonzero" fill-opacity="1" /><path clip-path="url(#clip360)" d="M2598 138.391 L2598 145.683 L2529.46 145.683 Q2530.43 161.076 2538.7 169.178 Q2547.04 177.199 2561.87 177.199 Q2570.45 177.199 2578.47 175.092 Q2586.58 172.986 2594.52 168.773 L2594.52 182.87 Q2586.5 186.273 2578.07 188.055 Q2569.64 189.838 2560.98 189.838 Q2539.26 189.838 2526.54 177.199 Q2513.9 164.56 2513.9 143.009 Q2513.9 120.729 2525.89 107.685 Q2537.97 94.5603 2558.38 94.5603 Q2576.69 94.5603 2587.31 106.389 Q2598 118.137 2598 138.391 M2583.09 134.016 Q2582.93 121.782 2576.21 114.491 Q2569.56 107.199 2558.54 107.199 Q2546.07 107.199 2538.53 114.248 Q2531.08 121.296 2529.95 134.097 L2583.09 134.016 Z" fill="#000000" fill-rule="nonzero" fill-opacity="1" /><path clip-path="url(#clip360)" d="M2740.51 100.232 L2740.51 114.167 Q2734.19 110.683 2727.79 108.981 Q2721.47 107.199 2714.99 107.199 Q2700.49 107.199 2692.47 116.435 Q2684.45 125.59 2684.45 142.199 Q2684.45 158.808 2692.47 168.044 Q2700.49 177.199 2714.99 177.199 Q2721.47 177.199 2727.79 175.497 Q2734.19 173.715 2740.51 170.231 L2740.51 184.004 Q2734.27 186.921 2727.55 188.379 Q2720.9 189.838 2713.37 189.838 Q2692.87 189.838 2680.8 176.956 Q2668.73 164.074 2668.73 142.199 Q2668.73 120 2680.88 107.28 Q2693.12 94.5603 2714.34 94.5603 Q2721.23 94.5603 2727.79 96.0186 Q2734.35 97.3959 2740.51 100.232 Z" fill="#000000" fill-rule="nonzero" fill-opacity="1" /><path clip-path="url(#clip360)" d="M2801.6 107.199 Q2789.61 107.199 2782.64 116.597 Q2775.67 125.914 2775.67 142.199 Q2775.67 158.484 2782.56 167.882 Q2789.53 177.199 2801.6 177.199 Q2813.51 177.199 2820.48 167.801 Q2827.44 158.403 2827.44 142.199 Q2827.44 126.076 2820.48 116.678 Q2813.51 107.199 2801.6 107.199 M2801.6 94.5603 Q2821.04 94.5603 2832.14 107.199 Q2843.24 119.838 2843.24 142.199 Q2843.24 164.479 2832.14 177.199 Q2821.04 189.838 2801.6 189.838 Q2782.07 189.838 2770.97 177.199 Q2759.96 164.479 2759.96 142.199 Q2759.96 119.838 2770.97 107.199 Q2782.07 94.5603 2801.6 94.5603 Z" fill="#000000" fill-rule="nonzero" fill-opacity="1" /><path clip-path="url(#clip360)" d="M2867.95 61.4239 L2882.86 61.4239 L2882.86 187.488 L2867.95 187.488 L2867.95 61.4239 Z" fill="#000000" fill-rule="nonzero" fill-opacity="1" /><path clip-path="url(#clip360)" d="M2914.05 61.4239 L2928.96 61.4239 L2928.96 187.488 L2914.05 187.488 L2914.05 61.4239 Z" fill="#000000" fill-rule="nonzero" fill-opacity="1" /><path clip-path="url(#clip360)" d="M3037.77 138.391 L3037.77 145.683 L2969.23 145.683 Q2970.2 161.076 2978.46 169.178 Q2986.81 177.199 3001.63 177.199 Q3010.22 177.199 3018.24 175.092 Q3026.34 172.986 3034.28 168.773 L3034.28 182.87 Q3026.26 186.273 3017.84 188.055 Q3009.41 189.838 3000.74 189.838 Q2979.03 189.838 2966.31 177.199 Q2953.67 164.56 2953.67 143.009 Q2953.67 120.729 2965.66 107.685 Q2977.73 94.5603 2998.15 94.5603 Q3016.46 94.5603 3027.07 106.389 Q3037.77 118.137 3037.77 138.391 M3022.86 134.016 Q3022.7 121.782 3015.97 114.491 Q3009.33 107.199 2998.31 107.199 Q2985.83 107.199 2978.3 114.248 Q2970.85 121.296 2969.71 134.097 L3022.86 134.016 Z" fill="#000000" fill-rule="nonzero" fill-opacity="1" /><path clip-path="url(#clip360)" d="M3127.53 100.232 L3127.53 114.167 Q3121.22 110.683 3114.81 108.981 Q3108.5 107.199 3102.01 107.199 Q3087.51 107.199 3079.49 116.435 Q3071.47 125.59 3071.47 142.199 Q3071.47 158.808 3079.49 168.044 Q3087.51 177.199 3102.01 177.199 Q3108.5 177.199 3114.81 175.497 Q3121.22 173.715 3127.53 170.231 L3127.53 184.004 Q3121.3 186.921 3114.57 188.379 Q3107.93 189.838 3100.39 189.838 Q3079.9 189.838 3067.82 176.956 Q3055.75 164.074 3055.75 142.199 Q3055.75 120 3067.91 107.28 Q3080.14 94.5603 3101.37 94.5603 Q3108.25 94.5603 3114.81 96.0186 Q3121.38 97.3959 3127.53 100.232 Z" fill="#000000" fill-rule="nonzero" fill-opacity="1" /><path clip-path="url(#clip360)" d="M3168.21 70.984 L3168.21 96.7477 L3198.91 96.7477 L3198.91 108.333 L3168.21 108.333 L3168.21 157.592 Q3168.21 168.692 3171.2 171.852 Q3174.28 175.011 3183.6 175.011 L3198.91 175.011 L3198.91 187.488 L3183.6 187.488 Q3166.34 187.488 3159.78 181.088 Q3153.22 174.606 3153.22 157.592 L3153.22 108.333 L3142.28 108.333 L3142.28 96.7477 L3153.22 96.7477 L3153.22 70.984 L3168.21 70.984 Z" fill="#000000" fill-rule="nonzero" fill-opacity="1" /><path clip-path="url(#clip360)" d="M3253.68 107.199 Q3241.69 107.199 3234.72 116.597 Q3227.75 125.914 3227.75 142.199 Q3227.75 158.484 3234.64 167.882 Q3241.61 177.199 3253.68 177.199 Q3265.59 177.199 3272.56 167.801 Q3279.52 158.403 3279.52 142.199 Q3279.52 126.076 3272.56 116.678 Q3265.59 107.199 3253.68 107.199 M3253.68 94.5603 Q3273.12 94.5603 3284.22 107.199 Q3295.32 119.838 3295.32 142.199 Q3295.32 164.479 3284.22 177.199 Q3273.12 189.838 3253.68 189.838 Q3234.15 189.838 3223.05 177.199 Q3212.04 164.479 3212.04 142.199 Q3212.04 119.838 3223.05 107.199 Q3234.15 94.5603 3253.68 94.5603 Z" fill="#000000" fill-rule="nonzero" fill-opacity="1" /><path clip-path="url(#clip360)" d="M3372.61 110.683 Q3370.1 109.225 3367.1 108.576 Q3364.19 107.847 3360.62 107.847 Q3347.98 107.847 3341.18 116.111 Q3334.45 124.294 3334.45 139.687 L3334.45 187.488 L3319.47 187.488 L3319.47 96.7477 L3334.45 96.7477 L3334.45 110.845 Q3339.15 102.581 3346.69 98.6112 Q3354.22 94.5603 3365 94.5603 Q3366.54 94.5603 3368.4 94.8033 Q3370.26 94.9653 3372.53 95.3704 L3372.61 110.683 Z" fill="#000000" fill-rule="nonzero" fill-opacity="1" /><path clip-path="url(#clip360)" d="M3482.23 141.875 Q3464.16 141.875 3457.2 146.007 Q3450.23 150.139 3450.23 160.104 Q3450.23 168.044 3455.41 172.743 Q3460.68 177.361 3469.67 177.361 Q3482.07 177.361 3489.52 168.611 Q3497.06 159.78 3497.06 145.197 L3497.06 141.875 L3482.23 141.875 M3511.97 135.717 L3511.97 187.488 L3497.06 187.488 L3497.06 173.715 Q3491.95 181.979 3484.34 185.949 Q3476.72 189.838 3465.7 189.838 Q3451.77 189.838 3443.51 182.06 Q3435.32 174.201 3435.32 161.076 Q3435.32 145.764 3445.53 137.986 Q3455.82 130.208 3476.16 130.208 L3497.06 130.208 L3497.06 128.75 Q3497.06 118.461 3490.25 112.87 Q3483.53 107.199 3471.29 107.199 Q3463.52 107.199 3456.14 109.062 Q3448.77 110.926 3441.97 114.653 L3441.97 100.88 Q3450.15 97.72 3457.85 96.1806 Q3465.54 94.5603 3472.83 94.5603 Q3492.52 94.5603 3502.24 104.769 Q3511.97 114.977 3511.97 135.717 Z" fill="#000000" fill-rule="nonzero" fill-opacity="1" /><path clip-path="url(#clip360)" d="M3557.42 70.984 L3557.42 96.7477 L3588.12 96.7477 L3588.12 108.333 L3557.42 108.333 L3557.42 157.592 Q3557.42 168.692 3560.41 171.852 Q3563.49 175.011 3572.81 175.011 L3588.12 175.011 L3588.12 187.488 L3572.81 187.488 Q3555.55 187.488 3548.99 181.088 Q3542.43 174.606 3542.43 157.592 L3542.43 108.333 L3531.49 108.333 L3531.49 96.7477 L3542.43 96.7477 L3542.43 70.984 L3557.42 70.984 Z" fill="#000000" fill-rule="nonzero" fill-opacity="1" /><path clip-path="url(#clip360)" d="M539.614 247.968 L539.614 292.933 L525.841 292.933 L525.841 247.968 L539.614 247.968 M570.239 247.968 L570.239 292.933 L556.466 292.933 L556.466 247.968 L570.239 247.968 Z" fill="#000000" fill-rule="nonzero" fill-opacity="1" /><path clip-path="url(#clip360)" d="M677.264 314.16 L677.264 368.928 L662.357 368.928 L662.357 314.646 Q662.357 301.764 657.334 295.364 Q652.31 288.963 642.264 288.963 Q630.193 288.963 623.225 296.66 Q616.257 304.357 616.257 317.644 L616.257 368.928 L601.269 368.928 L601.269 278.188 L616.257 278.188 L616.257 292.285 Q621.605 284.102 628.815 280.051 Q636.107 276 645.586 276 Q661.222 276 669.243 285.722 Q677.264 295.364 677.264 314.16 Z" fill="#000000" fill-rule="nonzero" fill-opacity="1" /><path clip-path="url(#clip360)" d="M742.16 288.639 Q730.169 288.639 723.201 298.037 Q716.234 307.354 716.234 323.639 Q716.234 339.924 723.12 349.322 Q730.088 358.639 742.16 358.639 Q754.069 358.639 761.037 349.241 Q768.004 339.843 768.004 323.639 Q768.004 307.516 761.037 298.118 Q754.069 288.639 742.16 288.639 M742.16 276 Q761.604 276 772.703 288.639 Q783.803 301.278 783.803 323.639 Q783.803 345.919 772.703 358.639 Q761.604 371.278 742.16 371.278 Q722.634 371.278 711.535 358.639 Q700.516 345.919 700.516 323.639 Q700.516 301.278 711.535 288.639 Q722.634 276 742.16 276 Z" fill="#000000" fill-rule="nonzero" fill-opacity="1" /><path clip-path="url(#clip360)" d="M861.094 292.123 Q858.583 290.665 855.585 290.016 Q852.668 289.287 849.103 289.287 Q836.465 289.287 829.659 297.551 Q822.935 305.734 822.935 321.127 L822.935 368.928 L807.946 368.928 L807.946 278.188 L822.935 278.188 L822.935 292.285 Q827.634 284.021 835.168 280.051 Q842.703 276 853.478 276 Q855.018 276 856.881 276.243 Q858.745 276.405 861.013 276.81 L861.094 292.123 Z" fill="#000000" fill-rule="nonzero" fill-opacity="1" /><path clip-path="url(#clip360)" d="M944.462 295.607 Q950.052 285.56 957.83 280.78 Q965.607 276 976.14 276 Q990.318 276 998.015 285.965 Q1005.71 295.85 1005.71 314.16 L1005.71 368.928 L990.723 368.928 L990.723 314.646 Q990.723 301.602 986.105 295.283 Q981.487 288.963 972.008 288.963 Q960.422 288.963 953.698 296.66 Q946.973 304.357 946.973 317.644 L946.973 368.928 L931.985 368.928 L931.985 314.646 Q931.985 301.521 927.367 295.283 Q922.749 288.963 913.108 288.963 Q901.684 288.963 894.96 296.741 Q888.235 304.438 888.235 317.644 L888.235 368.928 L873.247 368.928 L873.247 278.188 L888.235 278.188 L888.235 292.285 Q893.339 283.94 900.469 279.97 Q907.598 276 917.402 276 Q927.286 276 934.172 281.023 Q941.14 286.046 944.462 295.607 Z" fill="#000000" fill-rule="nonzero" fill-opacity="1" /><path clip-path="url(#clip360)" d="M1076.68 323.315 Q1058.62 323.315 1051.65 327.447 Q1044.68 331.579 1044.68 341.544 Q1044.68 349.484 1049.87 354.183 Q1055.13 358.801 1064.13 358.801 Q1076.52 358.801 1083.97 350.051 Q1091.51 341.22 1091.51 326.637 L1091.51 323.315 L1076.68 323.315 M1106.42 317.157 L1106.42 368.928 L1091.51 368.928 L1091.51 355.155 Q1086.41 363.419 1078.79 367.389 Q1071.17 371.278 1060.16 371.278 Q1046.22 371.278 1037.96 363.5 Q1029.77 355.641 1029.77 342.516 Q1029.77 327.204 1039.98 319.426 Q1050.27 311.648 1070.61 311.648 L1091.51 311.648 L1091.51 310.19 Q1091.51 299.901 1084.7 294.31 Q1077.98 288.639 1065.75 288.639 Q1057.97 288.639 1050.6 290.502 Q1043.22 292.366 1036.42 296.093 L1036.42 282.32 Q1044.6 279.16 1052.3 277.621 Q1059.99 276 1067.29 276 Q1086.97 276 1096.69 286.209 Q1106.42 296.417 1106.42 317.157 Z" fill="#000000" fill-rule="nonzero" fill-opacity="1" /><path clip-path="url(#clip360)" d="M1137.12 242.864 L1152.03 242.864 L1152.03 368.928 L1137.12 368.928 L1137.12 242.864 Z" fill="#000000" fill-rule="nonzero" fill-opacity="1" /><path clip-path="url(#clip360)" d="M1197.32 247.968 L1197.32 292.933 L1183.55 292.933 L1183.55 247.968 L1197.32 247.968 M1227.94 247.968 L1227.94 292.933 L1214.17 292.933 L1214.17 247.968 L1227.94 247.968 Z" fill="#000000" fill-rule="nonzero" fill-opacity="1" /><path clip-path="url(#clip360)" d="M1353.52 323.315 Q1335.45 323.315 1328.49 327.447 Q1321.52 331.579 1321.52 341.544 Q1321.52 349.484 1326.71 354.183 Q1331.97 358.801 1340.96 358.801 Q1353.36 358.801 1360.81 350.051 Q1368.35 341.22 1368.35 326.637 L1368.35 323.315 L1353.52 323.315 M1383.26 317.157 L1383.26 368.928 L1368.35 368.928 L1368.35 355.155 Q1363.24 363.419 1355.63 367.389 Q1348.01 371.278 1336.99 371.278 Q1323.06 371.278 1314.8 363.5 Q1306.61 355.641 1306.61 342.516 Q1306.61 327.204 1316.82 319.426 Q1327.11 311.648 1347.45 311.648 L1368.35 311.648 L1368.35 310.19 Q1368.35 299.901 1361.54 294.31 Q1354.82 288.639 1342.58 288.639 Q1334.81 288.639 1327.43 290.502 Q1320.06 292.366 1313.26 296.093 L1313.26 282.32 Q1321.44 279.16 1329.14 277.621 Q1336.83 276 1344.12 276 Q1363.81 276 1373.53 286.209 Q1383.26 296.417 1383.26 317.157 Z" fill="#000000" fill-rule="nonzero" fill-opacity="1" /><path clip-path="url(#clip360)" d="M1479.26 281.672 L1479.26 295.607 Q1472.94 292.123 1466.54 290.421 Q1460.22 288.639 1453.74 288.639 Q1439.24 288.639 1431.22 297.875 Q1423.2 307.03 1423.2 323.639 Q1423.2 340.248 1431.22 349.484 Q1439.24 358.639 1453.74 358.639 Q1460.22 358.639 1466.54 356.937 Q1472.94 355.155 1479.26 351.671 L1479.26 365.444 Q1473.02 368.361 1466.3 369.819 Q1459.66 371.278 1452.12 371.278 Q1431.62 371.278 1419.55 358.396 Q1407.48 345.514 1407.48 323.639 Q1407.48 301.44 1419.63 288.72 Q1431.87 276 1453.09 276 Q1459.98 276 1466.54 277.459 Q1473.1 278.836 1479.26 281.672 Z" fill="#000000" fill-rule="nonzero" fill-opacity="1" /><path clip-path="url(#clip360)" d="M1570.49 281.672 L1570.49 295.607 Q1564.17 292.123 1557.77 290.421 Q1551.45 288.639 1544.97 288.639 Q1530.47 288.639 1522.44 297.875 Q1514.42 307.03 1514.42 323.639 Q1514.42 340.248 1522.44 349.484 Q1530.47 358.639 1544.97 358.639 Q1551.45 358.639 1557.77 356.937 Q1564.17 355.155 1570.49 351.671 L1570.49 365.444 Q1564.25 368.361 1557.53 369.819 Q1550.88 371.278 1543.35 371.278 Q1522.85 371.278 1510.78 358.396 Q1498.71 345.514 1498.71 323.639 Q1498.71 301.44 1510.86 288.72 Q1523.09 276 1544.32 276 Q1551.21 276 1557.77 277.459 Q1564.33 278.836 1570.49 281.672 Z" fill="#000000" fill-rule="nonzero" fill-opacity="1" /><path clip-path="url(#clip360)" d="M1594.87 333.118 L1594.87 278.188 L1609.78 278.188 L1609.78 332.551 Q1609.78 345.433 1614.81 351.914 Q1619.83 358.315 1629.87 358.315 Q1641.95 358.315 1648.91 350.618 Q1655.96 342.921 1655.96 329.634 L1655.96 278.188 L1670.87 278.188 L1670.87 368.928 L1655.96 368.928 L1655.96 354.993 Q1650.53 363.257 1643.32 367.308 Q1636.19 371.278 1626.71 371.278 Q1611.08 371.278 1602.98 361.555 Q1594.87 351.833 1594.87 333.118 M1632.39 276 L1632.39 276 Z" fill="#000000" fill-rule="nonzero" fill-opacity="1" /><path clip-path="url(#clip360)" d="M1754.16 292.123 Q1751.64 290.665 1748.65 290.016 Q1745.73 289.287 1742.17 289.287 Q1729.53 289.287 1722.72 297.551 Q1716 305.734 1716 321.127 L1716 368.928 L1701.01 368.928 L1701.01 278.188 L1716 278.188 L1716 292.285 Q1720.7 284.021 1728.23 280.051 Q1735.77 276 1746.54 276 Q1748.08 276 1749.94 276.243 Q1751.81 276.405 1754.08 276.81 L1754.16 292.123 Z" fill="#000000" fill-rule="nonzero" fill-opacity="1" /><path clip-path="url(#clip360)" d="M1811.03 323.315 Q1792.96 323.315 1786 327.447 Q1779.03 331.579 1779.03 341.544 Q1779.03 349.484 1784.21 354.183 Q1789.48 358.801 1798.47 358.801 Q1810.87 358.801 1818.32 350.051 Q1825.86 341.22 1825.86 326.637 L1825.86 323.315 L1811.03 323.315 M1840.76 317.157 L1840.76 368.928 L1825.86 368.928 L1825.86 355.155 Q1820.75 363.419 1813.14 367.389 Q1805.52 371.278 1794.5 371.278 Q1780.57 371.278 1772.3 363.5 Q1764.12 355.641 1764.12 342.516 Q1764.12 327.204 1774.33 319.426 Q1784.62 311.648 1804.95 311.648 L1825.86 311.648 L1825.86 310.19 Q1825.86 299.901 1819.05 294.31 Q1812.33 288.639 1800.09 288.639 Q1792.32 288.639 1784.94 290.502 Q1777.57 292.366 1770.77 296.093 L1770.77 282.32 Q1778.95 279.16 1786.64 277.621 Q1794.34 276 1801.63 276 Q1821.32 276 1831.04 286.209 Q1840.76 296.417 1840.76 317.157 Z" fill="#000000" fill-rule="nonzero" fill-opacity="1" /><path clip-path="url(#clip360)" d="M1936.77 281.672 L1936.77 295.607 Q1930.45 292.123 1924.05 290.421 Q1917.73 288.639 1911.25 288.639 Q1896.75 288.639 1888.73 297.875 Q1880.71 307.03 1880.71 323.639 Q1880.71 340.248 1888.73 349.484 Q1896.75 358.639 1911.25 358.639 Q1917.73 358.639 1924.05 356.937 Q1930.45 355.155 1936.77 351.671 L1936.77 365.444 Q1930.53 368.361 1923.81 369.819 Q1917.16 371.278 1909.63 371.278 Q1889.13 371.278 1877.06 358.396 Q1864.99 345.514 1864.99 323.639 Q1864.99 301.44 1877.14 288.72 Q1889.38 276 1910.6 276 Q1917.49 276 1924.05 277.459 Q1930.61 278.836 1936.77 281.672 Z" fill="#000000" fill-rule="nonzero" fill-opacity="1" /><path clip-path="url(#clip360)" d="M2000.45 377.354 Q1994.13 393.557 1988.14 398.5 Q1982.14 403.442 1972.1 403.442 L1960.19 403.442 L1960.19 390.965 L1968.94 390.965 Q1975.09 390.965 1978.5 388.048 Q1981.9 385.132 1986.03 374.275 L1988.7 367.47 L1952 278.188 L1967.8 278.188 L1996.16 349.16 L2024.51 278.188 L2040.31 278.188 L2000.45 377.354 Z" fill="#000000" fill-rule="nonzero" fill-opacity="1" /><path clip-path="url(#clip360)" d="M2149.44 243.026 Q2138.59 261.66 2133.32 279.889 Q2128.05 298.118 2128.05 316.833 Q2128.05 335.549 2133.32 353.94 Q2138.67 372.25 2149.44 390.803 L2136.48 390.803 Q2124.33 371.764 2118.25 353.373 Q2112.26 334.981 2112.26 316.833 Q2112.26 298.766 2118.25 280.456 Q2124.25 262.146 2136.48 243.026 L2149.44 243.026 Z" fill="#000000" fill-rule="nonzero" fill-opacity="1" /><path clip-path="url(#clip360)" d="M2238.08 291.961 L2238.08 242.864 L2252.98 242.864 L2252.98 368.928 L2238.08 368.928 L2238.08 355.317 Q2233.38 363.419 2226.17 367.389 Q2219.04 371.278 2208.99 371.278 Q2192.55 371.278 2182.17 358.153 Q2171.89 345.028 2171.89 323.639 Q2171.89 302.25 2182.17 289.125 Q2192.55 276 2208.99 276 Q2219.04 276 2226.17 279.97 Q2233.38 283.859 2238.08 291.961 M2187.28 323.639 Q2187.28 340.086 2194 349.484 Q2200.81 358.801 2212.64 358.801 Q2224.47 358.801 2231.27 349.484 Q2238.08 340.086 2238.08 323.639 Q2238.08 307.192 2231.27 297.875 Q2224.47 288.477 2212.64 288.477 Q2200.81 288.477 2194 297.875 Q2187.28 307.192 2187.28 323.639 Z" fill="#000000" fill-rule="nonzero" fill-opacity="1" /><path clip-path="url(#clip360)" d="M2359.12 278.188 L2326.31 322.343 L2360.82 368.928 L2343.24 368.928 L2316.83 333.28 L2290.42 368.928 L2272.83 368.928 L2308.08 321.451 L2275.83 278.188 L2293.41 278.188 L2317.48 310.514 L2341.54 278.188 L2359.12 278.188 Z" fill="#000000" fill-rule="nonzero" fill-opacity="1" /><path clip-path="url(#clip360)" d="M2450.83 396.474 L2450.83 408.06 L2364.63 408.06 L2364.63 396.474 L2450.83 396.474 Z" fill="#000000" fill-rule="nonzero" fill-opacity="1" /><path clip-path="url(#clip360)" d="M2535.49 295.607 Q2541.09 285.56 2548.86 280.78 Q2556.64 276 2567.17 276 Q2581.35 276 2589.05 285.965 Q2596.74 295.85 2596.74 314.16 L2596.74 368.928 L2581.76 368.928 L2581.76 314.646 Q2581.76 301.602 2577.14 295.283 Q2572.52 288.963 2563.04 288.963 Q2551.46 288.963 2544.73 296.66 Q2538.01 304.357 2538.01 317.644 L2538.01 368.928 L2523.02 368.928 L2523.02 314.646 Q2523.02 301.521 2518.4 295.283 Q2513.78 288.963 2504.14 288.963 Q2492.72 288.963 2485.99 296.741 Q2479.27 304.438 2479.27 317.644 L2479.27 368.928 L2464.28 368.928 L2464.28 278.188 L2479.27 278.188 L2479.27 292.285 Q2484.37 283.94 2491.5 279.97 Q2498.63 276 2508.43 276 Q2518.32 276 2525.21 281.023 Q2532.17 286.046 2535.49 295.607 Z" fill="#000000" fill-rule="nonzero" fill-opacity="1" /><path clip-path="url(#clip360)" d="M2626.48 278.188 L2641.39 278.188 L2641.39 368.928 L2626.48 368.928 L2626.48 278.188 M2626.48 242.864 L2641.39 242.864 L2641.39 261.741 L2626.48 261.741 L2626.48 242.864 Z" fill="#000000" fill-rule="nonzero" fill-opacity="1" /><path clip-path="url(#clip360)" d="M2748.01 314.16 L2748.01 368.928 L2733.1 368.928 L2733.1 314.646 Q2733.1 301.764 2728.07 295.364 Q2723.05 288.963 2713.01 288.963 Q2700.93 288.963 2693.97 296.66 Q2687 304.357 2687 317.644 L2687 368.928 L2672.01 368.928 L2672.01 278.188 L2687 278.188 L2687 292.285 Q2692.35 284.102 2699.56 280.051 Q2706.85 276 2716.33 276 Q2731.96 276 2739.98 285.722 Q2748.01 295.364 2748.01 314.16 Z" fill="#000000" fill-rule="nonzero" fill-opacity="1" /><path clip-path="url(#clip360)" d="M2832.43 293.581 L2936.29 293.581 L2936.29 307.192 L2832.43 307.192 L2832.43 293.581 M2832.43 326.637 L2936.29 326.637 L2936.29 340.41 L2832.43 340.41 L2832.43 326.637 Z" fill="#000000" fill-rule="nonzero" fill-opacity="1" /><path clip-path="url(#clip360)" d="M3027.19 355.155 L3053.93 355.155 L3053.93 262.875 L3024.84 268.709 L3024.84 253.801 L3053.77 247.968 L3070.13 247.968 L3070.13 355.155 L3096.87 355.155 L3096.87 368.928 L3027.19 368.928 L3027.19 355.155 Z" fill="#000000" fill-rule="nonzero" fill-opacity="1" /><path clip-path="url(#clip360)" d="M3251.21 295.607 Q3256.8 285.56 3264.58 280.78 Q3272.35 276 3282.89 276 Q3297.06 276 3304.76 285.965 Q3312.46 295.85 3312.46 314.16 L3312.46 368.928 L3297.47 368.928 L3297.47 314.646 Q3297.47 301.602 3292.85 295.283 Q3288.23 288.963 3278.75 288.963 Q3267.17 288.963 3260.44 296.66 Q3253.72 304.357 3253.72 317.644 L3253.72 368.928 L3238.73 368.928 L3238.73 314.646 Q3238.73 301.521 3234.11 295.283 Q3229.5 288.963 3219.85 288.963 Q3208.43 288.963 3201.71 296.741 Q3194.98 304.438 3194.98 317.644 L3194.98 368.928 L3179.99 368.928 L3179.99 278.188 L3194.98 278.188 L3194.98 292.285 Q3200.09 283.94 3207.22 279.97 Q3214.35 276 3224.15 276 Q3234.03 276 3240.92 281.023 Q3247.89 286.046 3251.21 295.607 Z" fill="#000000" fill-rule="nonzero" fill-opacity="1" /><path clip-path="url(#clip360)" d="M3412.84 295.607 Q3418.43 285.56 3426.21 280.78 Q3433.99 276 3444.52 276 Q3458.7 276 3466.39 285.965 Q3474.09 295.85 3474.09 314.16 L3474.09 368.928 L3459.1 368.928 L3459.1 314.646 Q3459.1 301.602 3454.48 295.283 Q3449.86 288.963 3440.39 288.963 Q3428.8 288.963 3422.08 296.66 Q3415.35 304.357 3415.35 317.644 L3415.35 368.928 L3400.36 368.928 L3400.36 314.646 Q3400.36 301.521 3395.74 295.283 Q3391.13 288.963 3381.49 288.963 Q3370.06 288.963 3363.34 296.741 Q3356.61 304.438 3356.61 317.644 L3356.61 368.928 L3341.62 368.928 L3341.62 278.188 L3356.61 278.188 L3356.61 292.285 Q3361.72 283.94 3368.85 279.97 Q3375.98 276 3385.78 276 Q3395.66 276 3402.55 281.023 Q3409.52 286.046 3412.84 295.607 Z" fill="#000000" fill-rule="nonzero" fill-opacity="1" /><path clip-path="url(#clip360)" d="M3501.47 243.026 L3514.44 243.026 Q3526.59 262.146 3532.58 280.456 Q3538.66 298.766 3538.66 316.833 Q3538.66 334.981 3532.58 353.373 Q3526.59 371.764 3514.44 390.803 L3501.47 390.803 Q3512.25 372.25 3517.52 353.94 Q3522.86 335.549 3522.86 316.833 Q3522.86 298.118 3517.52 279.889 Q3512.25 261.66 3501.47 243.026 Z" fill="#000000" fill-rule="nonzero" fill-opacity="1" /><polyline clip-path="url(#clip362)" style="stroke:#000000; stroke-linecap:round; stroke-linejoin:round; stroke-width:4; stroke-opacity:1; fill:none" points="1653.56,745.271 1653.56,4042.82 "/>
<polyline clip-path="url(#clip362)" style="stroke:#000000; stroke-linecap:round; stroke-linejoin:round; stroke-width:4; stroke-opacity:1; fill:none" points="1656.86,745.271 1656.86,4042.82 "/>
<polyline clip-path="url(#clip362)" style="stroke:#000000; stroke-linecap:round; stroke-linejoin:round; stroke-width:4; stroke-opacity:1; fill:none" points="1663.45,745.271 1663.45,4042.82 "/>
<polyline clip-path="url(#clip362)" style="stroke:#000000; stroke-linecap:round; stroke-linejoin:round; stroke-width:4; stroke-opacity:1; fill:none" points="1666.75,745.271 1666.75,4042.82 "/>
<polyline clip-path="url(#clip362)" style="stroke:#000000; stroke-linecap:round; stroke-linejoin:round; stroke-width:4; stroke-opacity:1; fill:none" points="1673.34,745.271 1673.34,4042.82 "/>
<polyline clip-path="url(#clip362)" style="stroke:#000000; stroke-linecap:round; stroke-linejoin:round; stroke-width:4; stroke-opacity:1; fill:none" points="1686.53,745.271 1686.53,4042.82 "/>
<polyline clip-path="url(#clip362)" style="stroke:#000000; stroke-linecap:round; stroke-linejoin:round; stroke-width:4; stroke-opacity:1; fill:none" points="1712.91,745.271 1712.91,4042.82 "/>
<polyline clip-path="url(#clip362)" style="stroke:#000000; stroke-linecap:round; stroke-linejoin:round; stroke-width:4; stroke-opacity:1; fill:none" points="1765.67,745.271 1765.67,4042.82 "/>
<polyline clip-path="url(#clip362)" style="stroke:#000000; stroke-linecap:round; stroke-linejoin:round; stroke-width:4; stroke-opacity:1; fill:none" points="1871.2,745.271 1871.2,4042.82 "/>
<polyline clip-path="url(#clip362)" style="stroke:#000000; stroke-linecap:round; stroke-linejoin:round; stroke-width:4; stroke-opacity:1; fill:none" points="2082.24,745.271 2082.24,4042.82 "/>
<polyline clip-path="url(#clip362)" style="stroke:#000000; stroke-linecap:round; stroke-linejoin:round; stroke-width:4; stroke-opacity:1; fill:none" points="2477.95,745.271 2477.95,4042.82 "/>
<polyline clip-path="url(#clip362)" style="stroke:#000000; stroke-linecap:round; stroke-linejoin:round; stroke-width:4; stroke-opacity:1; fill:none" points="1653.56,745.271 2477.95,745.271 "/>
<polyline clip-path="url(#clip362)" style="stroke:#000000; stroke-linecap:round; stroke-linejoin:round; stroke-width:4; stroke-opacity:1; fill:none" points="1653.56,748.569 2477.95,748.569 "/>
<polyline clip-path="url(#clip362)" style="stroke:#000000; stroke-linecap:round; stroke-linejoin:round; stroke-width:4; stroke-opacity:1; fill:none" points="1653.56,755.164 2477.95,755.164 "/>
<polyline clip-path="url(#clip362)" style="stroke:#000000; stroke-linecap:round; stroke-linejoin:round; stroke-width:4; stroke-opacity:1; fill:none" points="1653.56,768.354 2477.95,768.354 "/>
<polyline clip-path="url(#clip362)" style="stroke:#000000; stroke-linecap:round; stroke-linejoin:round; stroke-width:4; stroke-opacity:1; fill:none" points="1653.56,794.734 2477.95,794.734 "/>
<polyline clip-path="url(#clip362)" style="stroke:#000000; stroke-linecap:round; stroke-linejoin:round; stroke-width:4; stroke-opacity:1; fill:none" points="1653.56,847.495 2477.95,847.495 "/>
<polyline clip-path="url(#clip362)" style="stroke:#000000; stroke-linecap:round; stroke-linejoin:round; stroke-width:4; stroke-opacity:1; fill:none" points="1653.56,953.017 2477.95,953.017 "/>
<polyline clip-path="url(#clip362)" style="stroke:#000000; stroke-linecap:round; stroke-linejoin:round; stroke-width:4; stroke-opacity:1; fill:none" points="1653.56,1070.08 2477.95,1070.08 "/>
<polyline clip-path="url(#clip362)" style="stroke:#000000; stroke-linecap:round; stroke-linejoin:round; stroke-width:4; stroke-opacity:1; fill:none" points="1653.56,1187.14 2477.95,1187.14 "/>
<polyline clip-path="url(#clip362)" style="stroke:#000000; stroke-linecap:round; stroke-linejoin:round; stroke-width:4; stroke-opacity:1; fill:none" points="1653.56,1292.66 2477.95,1292.66 "/>
<polyline clip-path="url(#clip362)" style="stroke:#000000; stroke-linecap:round; stroke-linejoin:round; stroke-width:4; stroke-opacity:1; fill:none" points="1653.56,1345.43 2477.95,1345.43 "/>
<polyline clip-path="url(#clip362)" style="stroke:#000000; stroke-linecap:round; stroke-linejoin:round; stroke-width:4; stroke-opacity:1; fill:none" points="1653.56,1371.81 2477.95,1371.81 "/>
<polyline clip-path="url(#clip362)" style="stroke:#000000; stroke-linecap:round; stroke-linejoin:round; stroke-width:4; stroke-opacity:1; fill:none" points="1653.56,1385 2477.95,1385 "/>
<polyline clip-path="url(#clip362)" style="stroke:#000000; stroke-linecap:round; stroke-linejoin:round; stroke-width:4; stroke-opacity:1; fill:none" points="1653.56,1391.59 2477.95,1391.59 "/>
<polyline clip-path="url(#clip362)" style="stroke:#000000; stroke-linecap:round; stroke-linejoin:round; stroke-width:4; stroke-opacity:1; fill:none" points="1653.56,1394.89 2477.95,1394.89 "/>
<polyline clip-path="url(#clip362)" style="stroke:#000000; stroke-linecap:round; stroke-linejoin:round; stroke-width:4; stroke-opacity:1; fill:none" points="1653.56,1401.48 2477.95,1401.48 "/>
<polyline clip-path="url(#clip362)" style="stroke:#000000; stroke-linecap:round; stroke-linejoin:round; stroke-width:4; stroke-opacity:1; fill:none" points="1653.56,1408.08 2477.95,1408.08 "/>
<polyline clip-path="url(#clip362)" style="stroke:#000000; stroke-linecap:round; stroke-linejoin:round; stroke-width:4; stroke-opacity:1; fill:none" points="1653.56,1414.67 2477.95,1414.67 "/>
<polyline clip-path="url(#clip362)" style="stroke:#000000; stroke-linecap:round; stroke-linejoin:round; stroke-width:4; stroke-opacity:1; fill:none" points="1653.56,1417.97 2477.95,1417.97 "/>
<polyline clip-path="url(#clip362)" style="stroke:#000000; stroke-linecap:round; stroke-linejoin:round; stroke-width:4; stroke-opacity:1; fill:none" points="1653.56,1424.57 2477.95,1424.57 "/>
<polyline clip-path="url(#clip362)" style="stroke:#000000; stroke-linecap:round; stroke-linejoin:round; stroke-width:4; stroke-opacity:1; fill:none" points="1653.56,1437.76 2477.95,1437.76 "/>
<polyline clip-path="url(#clip362)" style="stroke:#000000; stroke-linecap:round; stroke-linejoin:round; stroke-width:4; stroke-opacity:1; fill:none" points="1653.56,1464.14 2477.95,1464.14 "/>
<polyline clip-path="url(#clip362)" style="stroke:#000000; stroke-linecap:round; stroke-linejoin:round; stroke-width:4; stroke-opacity:1; fill:none" points="1653.56,1516.9 2477.95,1516.9 "/>
<polyline clip-path="url(#clip362)" style="stroke:#000000; stroke-linecap:round; stroke-linejoin:round; stroke-width:4; stroke-opacity:1; fill:none" points="1653.56,1622.42 2477.95,1622.42 "/>
<polyline clip-path="url(#clip362)" style="stroke:#000000; stroke-linecap:round; stroke-linejoin:round; stroke-width:4; stroke-opacity:1; fill:none" points="1653.56,1833.46 2477.95,1833.46 "/>
<polyline clip-path="url(#clip362)" style="stroke:#000000; stroke-linecap:round; stroke-linejoin:round; stroke-width:4; stroke-opacity:1; fill:none" points="1653.56,2255.55 2477.95,2255.55 "/>
<polyline clip-path="url(#clip362)" style="stroke:#000000; stroke-linecap:round; stroke-linejoin:round; stroke-width:4; stroke-opacity:1; fill:none" points="1653.56,2728.75 2477.95,2728.75 "/>
<polyline clip-path="url(#clip362)" style="stroke:#000000; stroke-linecap:round; stroke-linejoin:round; stroke-width:4; stroke-opacity:1; fill:none" points="1653.56,3201.95 2477.95,3201.95 "/>
<polyline clip-path="url(#clip362)" style="stroke:#000000; stroke-linecap:round; stroke-linejoin:round; stroke-width:4; stroke-opacity:1; fill:none" points="1653.56,3624.03 2477.95,3624.03 "/>
<polyline clip-path="url(#clip362)" style="stroke:#000000; stroke-linecap:round; stroke-linejoin:round; stroke-width:4; stroke-opacity:1; fill:none" points="1653.56,3835.08 2477.95,3835.08 "/>
<polyline clip-path="url(#clip362)" style="stroke:#000000; stroke-linecap:round; stroke-linejoin:round; stroke-width:4; stroke-opacity:1; fill:none" points="1653.56,3940.6 2477.95,3940.6 "/>
<polyline clip-path="url(#clip362)" style="stroke:#000000; stroke-linecap:round; stroke-linejoin:round; stroke-width:4; stroke-opacity:1; fill:none" points="1653.56,3993.36 2477.95,3993.36 "/>
<polyline clip-path="url(#clip362)" style="stroke:#000000; stroke-linecap:round; stroke-linejoin:round; stroke-width:4; stroke-opacity:1; fill:none" points="1653.56,4019.74 2477.95,4019.74 "/>
<polyline clip-path="url(#clip362)" style="stroke:#000000; stroke-linecap:round; stroke-linejoin:round; stroke-width:4; stroke-opacity:1; fill:none" points="1653.56,4032.93 2477.95,4032.93 "/>
<polyline clip-path="url(#clip362)" style="stroke:#000000; stroke-linecap:round; stroke-linejoin:round; stroke-width:4; stroke-opacity:1; fill:none" points="1653.56,4039.52 2477.95,4039.52 "/>
<polyline clip-path="url(#clip362)" style="stroke:#000000; stroke-linecap:round; stroke-linejoin:round; stroke-width:4; stroke-opacity:1; fill:none" points="1653.56,4042.82 2477.95,4042.82 "/>
</svg>
